<svg width="240" height="240" viewBox="0 0 240 240" fill="none" xmlns="http://www.w3.org/2000/svg">
<g clip-path="url(#clip0_439_1796)">
<rect x="25" y="79.9976" width="190" height="80" rx="6" fill="url(#paint0_linear_439_1796)"/>
<g clip-path="url(#clip1_439_1796)">
<circle cx="58.1771" cy="119.998" r="20.6918" fill="#00B16D"/>
<path fill-rule="evenodd" clip-rule="evenodd" d="M58.1841 123.105C62.6025 123.104 66.5535 125.1 69.1862 128.238C69.7987 128.969 69.7521 130.035 69.0839 130.715C66.3097 133.537 62.4499 135.288 58.1802 135.288C53.9137 135.288 50.0558 133.54 47.2819 130.722C46.6128 130.043 46.566 128.975 47.179 128.244C49.8134 125.104 53.7656 123.107 58.1841 123.105ZM58.646 107.331C62.2306 107.33 65.1359 110.235 65.1352 113.82C65.1342 117.405 62.2269 120.312 58.6421 120.313C55.0573 120.314 52.1518 117.409 52.1528 113.824C52.1541 110.239 55.0613 107.332 58.646 107.331Z" fill="white"/>
</g>
<g clip-path="url(#clip2_439_1796)">
<path d="M93.5676 110.117C93.7399 109.703 94.3265 109.703 94.4988 110.117L96.8245 115.709C96.8971 115.883 97.0613 116.002 97.2498 116.018L103.286 116.501C103.733 116.537 103.915 117.095 103.574 117.387L98.9748 121.327C98.8312 121.45 98.7685 121.643 98.8124 121.827L100.218 127.717C100.322 128.154 99.847 128.499 99.4642 128.265L94.2961 125.108C94.1347 125.01 93.9317 125.01 93.7704 125.108L88.6022 128.265C88.2194 128.499 87.7448 128.154 87.8489 127.717L89.254 121.827C89.2979 121.643 89.2352 121.45 89.0916 121.327L84.4923 117.387C84.1517 117.095 84.333 116.537 84.7801 116.501L90.8167 116.018C91.0051 116.002 91.1693 115.883 91.2419 115.709L93.5676 110.117Z" fill="url(#paint1_linear_439_1796)"/>
<path d="M118.157 110.117C118.33 109.703 118.916 109.703 119.089 110.117L121.414 115.709C121.487 115.883 121.651 116.002 121.84 116.018L127.876 116.501C128.323 116.537 128.505 117.095 128.164 117.387L123.565 121.327C123.421 121.45 123.358 121.643 123.402 121.827L124.807 127.717C124.911 128.154 124.437 128.499 124.054 128.265L118.886 125.108C118.725 125.01 118.522 125.01 118.36 125.108L113.192 128.265C112.809 128.499 112.335 128.154 112.439 127.717L113.844 121.827C113.888 121.643 113.825 121.45 113.681 121.327L109.082 117.387C108.742 117.095 108.923 116.537 109.37 116.501L115.406 116.018C115.595 116.002 115.759 115.883 115.832 115.709L118.157 110.117Z" fill="#00B16D"/>
<path d="M143.612 110.117C143.784 109.703 144.37 109.703 144.543 110.117L146.868 115.709C146.941 115.883 147.105 116.002 147.294 116.018L153.33 116.501C153.777 116.537 153.959 117.095 153.618 117.387L149.019 121.327C148.875 121.45 148.812 121.643 148.856 121.827L150.261 127.717C150.366 128.154 149.891 128.499 149.508 128.265L144.34 125.108C144.179 125.01 143.976 125.01 143.814 125.108L138.646 128.265C138.263 128.499 137.789 128.154 137.893 127.717L139.298 121.827C139.342 121.643 139.279 121.45 139.136 121.327L134.536 117.387C134.196 117.095 134.377 116.537 134.824 116.501L140.861 116.018C141.049 116.002 141.213 115.883 141.286 115.709L143.612 110.117Z" fill="#E1E8F3"/>
<path d="M168.2 110.117C168.373 109.703 168.959 109.703 169.132 110.117L171.457 115.709C171.53 115.883 171.694 116.002 171.883 116.018L177.919 116.501C178.366 116.537 178.548 117.095 178.207 117.387L173.608 121.327C173.464 121.45 173.401 121.643 173.445 121.827L174.85 127.717C174.954 128.154 174.48 128.499 174.097 128.265L168.929 125.108C168.767 125.01 168.565 125.01 168.403 125.108L163.235 128.265C162.852 128.499 162.378 128.154 162.482 127.717L163.887 121.827C163.931 121.643 163.868 121.45 163.724 121.327L159.125 117.387C158.784 117.095 158.966 116.537 159.413 116.501L165.449 116.018C165.638 116.002 165.802 115.883 165.875 115.709L168.2 110.117Z" fill="#E1E8F3"/>
<path d="M192.79 110.117C192.963 109.703 193.549 109.703 193.721 110.117L196.047 115.709C196.12 115.883 196.284 116.002 196.472 116.018L202.509 116.501C202.956 116.537 203.137 117.095 202.797 117.387L198.198 121.327C198.054 121.45 197.991 121.643 198.035 121.827L199.44 127.717C199.544 128.154 199.07 128.499 198.687 128.265L193.519 125.108C193.357 125.01 193.154 125.01 192.993 125.108L187.825 128.265C187.442 128.499 186.967 128.154 187.072 127.717L188.477 121.827C188.521 121.643 188.458 121.45 188.314 121.327L183.715 117.387C183.374 117.095 183.556 116.537 184.003 116.501L190.039 116.018C190.228 116.002 190.392 115.883 190.465 115.709L192.79 110.117Z" fill="#E1E8F3"/>
</g>
<rect x="25" y="31.1296" width="190" height="40" rx="6" fill="url(#paint2_linear_439_1796)"/>
<path d="M93.9268 49.1285C94.4789 49.1285 94.9265 49.5764 94.9268 50.1285V62.1295C94.9267 62.6817 94.479 63.1295 93.9268 63.1295H83.9268C83.3745 63.1295 82.9268 62.6817 82.9268 62.1295V50.1285C82.927 49.5764 83.3746 49.1285 83.9268 49.1285H93.9268ZM135.356 45.1285C135.908 45.1288 136.356 45.5766 136.356 46.1285V62.1295C136.356 62.6817 135.909 63.1293 135.356 63.1295H125.355C124.803 63.1294 124.355 62.6817 124.355 62.1295V46.1285C124.356 45.5765 124.803 45.1286 125.355 45.1285H135.356ZM52.498 53.1256C53.0503 53.1256 53.4979 53.5734 53.498 54.1256V62.1266C53.4978 62.6787 53.0502 63.1266 52.498 63.1266H42.498C41.9459 63.1266 41.4983 62.6787 41.498 62.1266V54.1256C41.4982 53.5734 41.9458 53.1256 42.498 53.1256H52.498ZM114.642 39.1256C115.194 39.1256 115.641 39.5734 115.642 40.1256V62.1266C115.642 62.6789 115.194 63.1266 114.642 63.1266H104.642C104.089 63.1266 103.642 62.6789 103.642 62.1266V40.1256C103.642 39.5734 104.089 39.1256 104.642 39.1256H114.642ZM156.072 43.1256C156.624 43.1257 157.072 43.5735 157.072 44.1256V62.1266C157.072 62.6787 156.624 63.1265 156.072 63.1266H146.071C145.519 63.1264 145.071 62.6787 145.071 62.1266V44.1256C145.071 43.5735 145.519 43.1258 146.071 43.1256H156.072ZM176.787 39.1256C177.339 39.1257 177.787 39.5735 177.787 40.1256V62.1266C177.787 62.6788 177.339 63.1265 176.787 63.1266H166.786C166.234 63.1264 165.786 62.6787 165.786 62.1266V40.1256C165.786 39.5735 166.234 39.1258 166.786 39.1256H176.787ZM197.501 39.1256C198.053 39.1256 198.501 39.5734 198.501 40.1256V62.1266C198.501 62.6789 198.053 63.1266 197.501 63.1266H187.501C186.949 63.1266 186.501 62.6789 186.501 62.1266V40.1256C186.501 39.5734 186.949 39.1256 187.501 39.1256H197.501ZM73.2119 55.1227C73.7642 55.1227 74.2119 55.5704 74.2119 56.1227V62.1227C74.2119 62.675 73.7642 63.1227 73.2119 63.1227H63.2119C62.6596 63.1227 62.2119 62.675 62.2119 62.1227V56.1227C62.2119 55.5704 62.6596 55.1227 63.2119 55.1227H73.2119Z" fill="url(#paint3_radial_439_1796)"/>
<rect x="25" y="168.864" width="190" height="40" rx="6" fill="url(#paint4_linear_439_1796)"/>
<path d="M46.2275 185.334H48.9932L49.5693 181.862H51.7822L51.2061 185.334H53.1514L52.7773 187.522H50.8428L50.3984 190.202H52.335L51.9688 192.389H50.0352L49.459 195.862H47.2461L47.8223 192.389H45.0566L44.4805 195.862H42.2686L42.8447 192.389H40.9062L41.2725 190.202H43.208L43.6523 187.522H41.7148L42.0889 185.334H44.0156L44.5918 181.862H46.8037L46.2275 185.334ZM198.981 186.456C200.045 186.456 200.906 187.317 200.906 188.38V189.343C200.906 190.406 200.044 191.268 198.981 191.268H66.543C65.48 191.268 64.6183 190.406 64.6182 189.343V188.38C64.6182 187.317 65.4799 186.456 66.543 186.456H198.981ZM45.8643 187.522L45.4199 190.202H48.1855L48.6299 187.522H45.8643Z" fill="#E1E8F3"/>
<path d="M121.55 86.1351C143.919 109.234 143.112 146.682 119.57 170.224C96.2559 193.538 59.3068 194.555 36.1588 172.85L36.1381 172.87L35.0298 171.762C34.9577 171.691 34.8848 171.62 34.813 171.548C34.7411 171.476 34.6703 171.403 34.5989 171.331L27.5299 164.262L28.1832 163.609C16.9724 147.419 14.9632 126.638 22.0464 108.352C24.5344 100.261 29.0149 92.5913 35.4759 86.1303C41.9385 79.6678 49.6096 75.1856 57.7028 72.698C75.9878 65.6174 96.7675 67.6273 112.955 78.8369L113.611 78.1816L121.557 86.1282L121.55 86.1351ZM114.935 91.4232C95.187 71.6755 62.5762 72.268 42.0967 92.747C21.6174 113.226 21.0245 145.838 40.7723 165.586C54.3063 179.12 73.8812 183.098 91.4527 177.671C99.258 174.637 106.607 169.948 112.948 163.608C119.304 157.251 124.002 149.88 127.035 142.052C132.439 124.494 128.456 104.944 114.935 91.4232ZM125.968 145.173C125.801 145.618 125.627 146.061 125.447 146.502C125.627 146.061 125.801 145.618 125.968 145.173Z" fill="url(#paint5_radial_439_1796)"/>
<path d="M114.271 78.8454C137.31 101.885 136.718 139.832 112.947 163.603C89.176 187.373 51.2293 187.966 28.19 164.927C5.15066 141.887 5.74319 103.941 29.5137 80.1699C53.2845 56.3991 91.2319 55.8061 114.271 78.8454ZM108.311 84.8013C88.5632 65.0535 55.9531 65.6465 35.4737 86.1257C14.9943 106.605 14.4008 139.216 34.1486 158.964C53.8966 178.712 86.508 178.119 106.987 157.64C127.467 137.16 128.059 104.549 108.311 84.8013Z" fill="url(#paint6_linear_439_1796)"/>
<path d="M48.7241 178.124C41.2101 175.322 34.1929 170.925 28.189 164.921C5.14965 141.882 5.74275 103.934 29.5134 80.1636C47.7042 61.9728 74.1967 57.3555 95.9573 66.5152C74.6462 58.5865 49.3415 63.4954 31.777 81.0599C8.00625 104.831 7.41327 142.778 30.4526 165.817C35.8496 171.214 42.0648 175.315 48.7241 178.124Z" fill="url(#paint7_linear_439_1796)"/>
<path d="M111.471 88.275C127.931 108.203 126.31 138.321 106.989 157.642C87.6663 176.965 57.5433 178.583 37.615 162.116C21.1553 142.188 22.7763 112.071 42.0966 92.7504C61.4197 73.4272 91.5427 71.8079 111.471 88.275Z" fill="url(#paint8_linear_439_1796)"/>
<path d="M156.324 223.967L111.352 175.252L111.355 175.248C111.335 175.23 111.313 175.213 111.294 175.194C109.465 173.365 110.948 168.917 114.605 165.26C118.262 161.603 122.709 160.121 124.537 161.95C124.557 161.969 124.574 161.991 124.593 162.011L124.595 162.009L173.296 206.995L156.324 223.967Z" fill="url(#paint9_linear_439_1796)"/>
<ellipse cx="164.867" cy="215.521" rx="6.00019" ry="12.0004" transform="rotate(45 164.867 215.521)" fill="url(#paint10_linear_439_1796)"/>
<path d="M42.0516 115.516C44.8755 106.925 55.0308 95.1297 66.0777 91.258" stroke="url(#paint11_linear_439_1796)" stroke-width="8" stroke-linecap="round"/>
</g>
<defs>
<linearGradient id="paint0_linear_439_1796" x1="229.616" y1="81.9659" x2="69.1366" y2="78.6798" gradientUnits="userSpaceOnUse">
<stop stop-color="white"/>
<stop offset="1" stop-color="white"/>
</linearGradient>
<linearGradient id="paint1_linear_439_1796" x1="103.122" y1="117.338" x2="84.9081" y2="117.047" gradientUnits="userSpaceOnUse">
<stop stop-color="#00B16D"/>
<stop offset="1" stop-color="#C1F5DC"/>
</linearGradient>
<linearGradient id="paint2_linear_439_1796" x1="25" y1="51.1296" x2="215" y2="67.0975" gradientUnits="userSpaceOnUse">
<stop stop-color="white"/>
<stop offset="0.533654" stop-color="#F8FCFF"/>
<stop offset="1" stop-color="white"/>
</linearGradient>
<radialGradient id="paint3_radial_439_1796" cx="0" cy="0" r="1" gradientUnits="userSpaceOnUse" gradientTransform="translate(66.871 73.8762) rotate(-9.80516) scale(133.581 176.47)">
<stop stop-color="#F0F5FD"/>
<stop offset="1" stop-color="#E1E8F3"/>
</radialGradient>
<linearGradient id="paint4_linear_439_1796" x1="25" y1="188.864" x2="215" y2="204.832" gradientUnits="userSpaceOnUse">
<stop stop-color="white"/>
<stop offset="0.533654" stop-color="#F8FCFF"/>
<stop offset="1" stop-color="white"/>
</linearGradient>
<radialGradient id="paint5_radial_439_1796" cx="0" cy="0" r="1" gradientTransform="matrix(34.7373 76.6418 -204.618 92.7455 68.0488 105.606)" gradientUnits="userSpaceOnUse">
<stop stop-color="#00B16D"/>
<stop offset="0.266329" stop-color="#69CEA2"/>
<stop offset="1" stop-color="#005832"/>
</radialGradient>
<linearGradient id="paint6_linear_439_1796" x1="16.2503" y1="74.7612" x2="120.219" y2="178.248" gradientUnits="userSpaceOnUse">
<stop stop-color="#C1F5DC"/>
<stop offset="1" stop-color="#69CEA2"/>
</linearGradient>
<linearGradient id="paint7_linear_439_1796" x1="26.361" y1="81.9733" x2="37.7269" y2="99.2657" gradientUnits="userSpaceOnUse">
<stop stop-color="#EAFFF7"/>
<stop offset="1" stop-color="white" stop-opacity="0"/>
</linearGradient>
<linearGradient id="paint8_linear_439_1796" x1="125.069" y1="171.976" x2="18.1679" y2="94.9989" gradientUnits="userSpaceOnUse">
<stop stop-color="white"/>
<stop offset="0.5" stop-color="white" stop-opacity="0"/>
<stop offset="1" stop-color="white"/>
</linearGradient>
<linearGradient id="paint9_linear_439_1796" x1="128.457" y1="206.854" x2="159.199" y2="183.838" gradientUnits="userSpaceOnUse">
<stop offset="0.200644" stop-color="#69CEA2"/>
<stop offset="1" stop-color="#00B16D"/>
</linearGradient>
<linearGradient id="paint10_linear_439_1796" x1="166.709" y1="184.502" x2="164.867" y2="227.521" gradientUnits="userSpaceOnUse">
<stop stop-color="#53812A"/>
<stop offset="1" stop-color="#005832"/>
</linearGradient>
<linearGradient id="paint11_linear_439_1796" x1="65.5508" y1="91.2861" x2="42.5785" y2="115.488" gradientUnits="userSpaceOnUse">
<stop stop-color="white" stop-opacity="0"/>
<stop offset="0.5" stop-color="white"/>
<stop offset="1" stop-color="white" stop-opacity="0"/>
</linearGradient>
<clipPath id="clip0_439_1796">
<rect width="240" height="240" fill="white"/>
</clipPath>
<clipPath id="clip1_439_1796">
<rect width="41.3835" height="41.3835" fill="white" transform="translate(37.4854 99.3052)"/>
</clipPath>
<clipPath id="clip2_439_1796">
<rect width="121.223" height="22" fill="white" transform="translate(83.0332 108.997)"/>
</clipPath>
</defs>
</svg>
