<svg width="125" height="20" viewBox="0 0 125 20" fill="none" xmlns="http://www.w3.org/2000/svg">
<g clip-path="url(#clip0_9248_9911)">
<path d="M32.1489 15.1883L28.9544 11.0759C31.0055 10.5959 32.4393 9.2573 32.4393 7.03799V7.00006C32.4393 5.88696 32.0324 4.89661 31.3448 4.20834C30.4662 3.32972 29.0903 2.8042 27.3738 2.8042H22.3062C21.8082 2.8042 21.3793 3.22903 21.3793 3.75041V15.8394C21.3793 16.3608 21.8082 16.7856 22.3062 16.7856C22.8255 16.7856 23.2517 16.3601 23.2517 15.8394V11.4276H26.882L30.6407 16.3111C30.8469 16.5863 31.1262 16.7856 31.4931 16.7856C31.9675 16.7856 32.4393 16.3566 32.4393 15.858C32.4393 15.6049 32.3317 15.3945 32.1489 15.1883ZM30.5475 7.05799V7.09661C30.5475 8.74282 29.1586 9.70972 27.2379 9.70972H23.2517V4.56075H27.2572C29.322 4.56075 30.5475 5.48627 30.5475 7.05799Z" fill="#8699B6"/>
<path d="M35.1682 15.7428C35.1682 16.2635 35.5971 16.6883 36.095 16.6883H44.6054C45.0882 16.6883 45.4737 16.3021 45.4737 15.8194C45.4737 15.3373 45.0882 14.9511 44.6054 14.9511H37.0406V10.5566H43.6385C44.1213 10.5566 44.5075 10.1711 44.5075 9.68834C44.5075 9.22972 44.1213 8.81937 43.6385 8.81937H37.0406V4.54213H44.5088C44.9909 4.54213 45.3778 4.15592 45.3778 3.67316C45.3778 3.19041 44.9909 2.8042 44.5088 2.8042H36.095C35.5971 2.8042 35.1682 3.22903 35.1682 3.75041V15.7428Z" fill="#8699B6"/>
<path d="M53.3461 16.8439H53.4475C53.9544 16.8349 54.2696 16.5494 54.4703 16.1039L59.7151 3.9887C59.762 3.87215 59.7855 3.75559 59.7855 3.61559C59.7855 3.13904 59.3827 2.70801 58.8586 2.70801C58.4434 2.70801 58.1123 3.0218 57.9503 3.34456C57.9482 3.34801 57.9461 3.35146 57.9448 3.35559L53.4048 14.2308L48.8827 3.39421C48.7213 3.0018 48.3923 2.70801 47.931 2.70801C47.4082 2.70801 46.9841 3.16111 46.9841 3.63421C46.9841 3.79973 47.0089 3.91697 47.0792 4.05766L52.2979 16.0997C52.4792 16.5535 52.8241 16.8439 53.3461 16.8439Z" fill="#8699B6"/>
<path d="M62.2627 3.65421V15.8397C62.2627 16.3611 62.6917 16.7859 63.1896 16.7859C63.7096 16.7859 64.1351 16.3597 64.1351 15.8397V3.65421C64.1351 3.13353 63.7096 2.70801 63.1896 2.70801C62.6917 2.70801 62.2627 3.13284 62.2627 3.65421Z" fill="#8699B6"/>
<path d="M76.9247 2.80489L76.9026 2.8042H68.4882C67.9909 2.8042 67.562 3.22903 67.562 3.75041V15.7428C67.562 16.2635 67.9909 16.6883 68.4882 16.6883H76.9992C77.4806 16.6883 77.8675 16.3021 77.8675 15.8194C77.8675 15.3373 77.4813 14.9511 76.9992 14.9511H69.4344V10.5566H76.0316C76.5151 10.5566 76.9006 10.1711 76.9006 9.68834C76.9006 9.22972 76.5151 8.81937 76.0316 8.81937H69.4344V4.54213H76.9026C77.384 4.54213 77.7716 4.15592 77.7716 3.67316C77.7716 3.19799 77.3964 2.81661 76.9247 2.80489Z" fill="#8699B6"/>
<path d="M93.513 16.8618H93.6716C94.1227 16.8528 94.4475 16.5432 94.6061 16.0887C94.6054 16.0908 98.9385 4.06042 98.9385 4.06042C98.9392 4.05835 98.9399 4.05697 98.9399 4.05559C98.9834 3.92318 99.0454 3.76663 99.0454 3.63421C99.0454 3.15973 98.5972 2.70801 98.0992 2.70801C97.6537 2.70801 97.342 3.00249 97.2006 3.42456C97.2013 3.42318 93.6165 13.7342 93.6165 13.7342L90.2358 3.42525C90.0958 3.00387 89.7854 2.70801 89.3185 2.70801V2.70939L89.2213 2.70801C88.7303 2.70801 88.4434 3.00387 88.3034 3.42525L84.9227 13.7335L81.3572 3.46111C81.2192 3.04663 80.8647 2.70801 80.4013 2.70801C79.882 2.70801 79.4365 3.15766 79.4365 3.65353C79.4365 3.78801 79.4772 3.92249 79.522 4.05628L83.8558 16.0894C84.0151 16.5652 84.3399 16.8535 84.7903 16.8618H84.9489C85.3992 16.8528 85.7247 16.5432 85.8827 16.0887L89.222 6.16594L92.5792 16.0887C92.7378 16.5432 93.0634 16.8528 93.513 16.8618Z" fill="#8699B6"/>
<path d="M108.814 12.9962V13.0348C108.814 14.2844 107.672 15.1644 105.97 15.1644C104.296 15.1644 103.054 14.6575 101.814 13.6065L101.811 13.6031C101.688 13.4837 101.472 13.3844 101.231 13.3844C100.73 13.3844 100.323 13.7872 100.323 14.3113C100.323 14.6217 100.469 14.8837 100.682 15.0306C102.221 16.2513 103.899 16.8824 105.912 16.8824C108.708 16.8824 110.706 15.2948 110.706 12.8803V12.841C110.706 10.6955 109.288 9.52512 106.161 8.84374C106.161 8.84305 106.16 8.84305 106.16 8.84305C103.319 8.23409 102.621 7.59891 102.621 6.38098V6.34236C102.621 5.20512 103.688 4.32926 105.331 4.32926C106.552 4.32926 107.622 4.66857 108.73 5.47616C108.731 5.47616 108.731 5.47685 108.732 5.47685C108.896 5.59547 109.063 5.64443 109.277 5.64443C109.778 5.64443 110.184 5.23891 110.184 4.73685C110.184 4.38305 109.975 4.12236 109.786 3.98029C109.785 3.9796 109.784 3.97891 109.783 3.97822C108.516 3.06788 107.191 2.61133 105.37 2.61133C102.689 2.61133 100.748 4.26098 100.748 6.47822L100.921 6.65064L100.748 6.47891V6.51547L100.921 6.68857L100.748 6.51616C100.748 8.8196 102.205 9.89133 105.43 10.592C105.43 10.592 105.43 10.592 105.431 10.592C108.137 11.1637 108.814 11.7989 108.814 12.9962Z" fill="#8699B6"/>
<path d="M112.837 14.8818H112.821C112.457 14.8818 112.198 15.1418 112.198 15.4936V15.7101C112.198 16.0605 112.458 16.3329 112.821 16.3329C113.172 16.3329 113.433 16.0611 113.433 15.7101C113.433 15.7667 113.387 15.8136 113.33 15.8136C113.33 15.8136 113.433 15.8018 113.433 15.7046V15.4936C113.433 15.1467 113.18 14.8894 112.837 14.8818ZM112.311 15.8115C112.305 15.8129 112.302 15.8136 112.302 15.8136C112.305 15.8136 112.308 15.8129 112.311 15.8129V15.8115Z" fill="#8699B6"/>
<path d="M115.045 10.9508V15.808C115.045 16.1039 115.274 16.3335 115.57 16.3335C115.867 16.3335 116.085 16.1046 116.085 15.808V10.9508C116.085 10.6535 115.855 10.4253 115.559 10.4253C115.276 10.4253 115.045 10.6673 115.045 10.9508ZM114.969 8.97079C114.969 9.28803 115.229 9.51769 115.559 9.51769C115.902 9.51769 116.16 9.28734 116.16 8.97079V8.83079C116.16 8.49976 115.902 8.2832 115.559 8.2832C115.229 8.2832 114.969 8.49907 114.969 8.83079V8.97079Z" fill="#8699B6"/>
<path fill-rule="evenodd" clip-rule="evenodd" d="M123.506 13.3863V13.3628C123.506 11.7263 122.23 10.3594 120.493 10.3594C118.746 10.3594 117.468 11.7483 117.468 13.3842V13.4056C117.468 15.0408 118.734 16.4083 120.471 16.4083C122.219 16.4083 123.506 15.0201 123.506 13.3863ZM122.445 13.4056V13.3842C122.445 12.2414 121.593 11.3014 120.471 11.3014C119.319 11.3014 118.53 12.2408 118.53 13.3628V13.3842C118.53 14.5263 119.372 15.4545 120.493 15.4545C121.645 15.4545 122.445 14.5263 122.445 13.4056Z" fill="#8699B6"/>
<path d="M0.689575 9.78885C0.689575 14.4323 4.4544 18.1971 9.09785 18.1971C13.742 18.1971 17.5068 14.4323 17.5068 9.78885C17.5068 5.14471 13.742 1.37988 9.09785 1.37988C4.4544 1.37988 0.689575 5.14471 0.689575 9.78885ZM6.54199 11.3095C6.63027 11.0302 6.53233 10.7254 6.29716 10.5495C5.67509 10.0847 4.44751 9.16816 3.62337 8.55299C3.50406 8.46402 3.45578 8.30885 3.50268 8.16747C3.54958 8.02678 3.6813 7.93161 3.82958 7.93161H7.02544C7.32268 7.93161 7.58682 7.74126 7.67992 7.4585C7.93164 6.69781 8.43233 5.1854 8.76475 4.18333C8.81095 4.04264 8.94268 3.94747 9.09164 3.94678C9.23992 3.94678 9.37164 4.04195 9.41923 4.18264C9.7544 5.1854 10.2613 6.69988 10.5158 7.46057C10.6096 7.74195 10.873 7.93161 11.1696 7.93161C11.9254 7.93161 13.382 7.93161 14.373 7.93161C14.5213 7.93161 14.653 8.02609 14.6999 8.16678C14.7468 8.30747 14.6992 8.46264 14.5806 8.55161C13.7585 9.17092 12.531 10.0957 11.9096 10.5633C11.6765 10.7392 11.5792 11.0433 11.6675 11.3226C11.9075 12.0813 12.3889 13.602 12.7144 14.6288C12.7599 14.773 12.7068 14.9295 12.5834 15.0157C12.4606 15.102 12.2951 15.0985 12.1758 15.0068C11.3496 14.373 10.1434 13.4468 9.51164 12.962C9.26337 12.7716 8.91785 12.7723 8.67026 12.9633C8.04406 13.4475 6.8544 14.3675 6.03578 15.0006C5.91647 15.093 5.75095 15.0971 5.62751 15.0109C5.50337 14.924 5.45026 14.7675 5.49578 14.624C5.8213 13.5937 6.30199 12.0702 6.54199 11.3095Z" fill="#8699B6"/>
</g>
<defs>
<clipPath id="clip0_9248_9911">
<rect width="124.138" height="20" fill="white"/>
</clipPath>
</defs>
</svg>
