<svg width="240" height="192" viewBox="0 0 240 192" fill="none" xmlns="http://www.w3.org/2000/svg">
<g clip-path="url(#clip0_439_1551)">
<g clip-path="url(#clip1_439_1551)">
<path d="M210.478 62.6875C210.478 78.1515 197.942 90.6875 182.478 90.6875C167.014 90.6875 154.478 78.1515 154.478 62.6875C154.478 47.2235 167.014 34.6875 182.478 34.6875C197.942 34.6875 210.478 47.2235 210.478 62.6875Z" fill="url(#paint0_radial_439_1551)"/>
<path d="M210.478 62.6875C210.478 78.1515 197.942 90.6875 182.478 90.6875C167.014 90.6875 154.478 78.1515 154.478 62.6875C154.478 47.2235 167.014 34.6875 182.478 34.6875C197.942 34.6875 210.478 47.2235 210.478 62.6875Z" fill="url(#paint1_radial_439_1551)"/>
<rect x="168.978" y="49.6875" width="27" height="20" rx="3" fill="#ACB8CC"/>
<path d="M176.078 74.4875C175.418 74.9819 174.478 74.5115 174.478 73.6875V69.6875L182.478 69.6875L176.078 74.4875Z" fill="#ACB8CC"/>
</g>
<g clip-path="url(#clip2_439_1551)">
<path d="M81.5778 166.428C84.2631 181.657 74.0944 196.179 58.8654 198.864C43.6363 201.55 29.1139 191.381 26.4286 176.152C23.7433 160.923 33.912 146.401 49.1411 143.715C64.3701 141.03 78.8925 151.199 81.5778 166.428Z" fill="url(#paint2_radial_439_1551)"/>
<path d="M81.5778 166.428C84.2631 181.657 74.0944 196.179 58.8654 198.864C43.6363 201.55 29.1139 191.381 26.4286 176.152C23.7433 160.923 33.912 146.401 49.1411 143.715C64.3701 141.03 78.8925 151.199 81.5778 166.428Z" fill="url(#paint3_radial_439_1551)"/>
<g clip-path="url(#clip3_439_1551)">
<rect x="37.3774" y="169.145" width="8" height="14" rx="1" transform="rotate(-10 37.3774 169.145)" fill="#ACB8CC"/>
<rect x="60.3188" y="161.039" width="8" height="18" rx="1" transform="rotate(-10 60.3188 161.039)" fill="#ACB8CC"/>
<rect x="48.8481" y="165.094" width="8" height="16" rx="1" transform="rotate(-10 48.8481 165.094)" fill="#ACB8CC"/>
</g>
</g>
<g clip-path="url(#clip4_439_1551)">
<circle cx="101.314" cy="37.2912" r="28" transform="rotate(-15 101.314 37.2912)" fill="url(#paint4_radial_439_1551)"/>
<circle cx="101.314" cy="37.2912" r="28" transform="rotate(-15 101.314 37.2912)" fill="url(#paint5_radial_439_1551)"/>
<path d="M96.4483 21.2003C96.567 20.3407 97.6759 20.0436 98.2085 20.7287L104.513 28.839C104.737 29.1278 105.107 29.2671 105.471 29.1998L115.687 27.3105C116.55 27.1509 117.172 28.0997 116.674 28.8165L110.778 37.3008C110.568 37.603 110.546 37.9947 110.72 38.3155L115.63 47.3236C116.045 48.0846 115.32 48.9681 114.479 48.726L104.531 45.8593C104.177 45.7572 103.794 45.86 103.538 46.1256L96.3559 53.5822C95.7491 54.2121 94.6796 53.8094 94.6583 52.943L94.4061 42.6869C94.3971 42.3217 94.1821 41.9934 93.8492 41.8368L84.501 37.4371C83.7112 37.0654 83.7751 35.933 84.6023 35.6397L94.3945 32.1678C94.7432 32.0441 94.9939 31.7385 95.0439 31.3761L96.4483 21.2003Z" fill="#ACB8CC"/>
</g>
<g clip-path="url(#clip5_439_1551)">
<circle cx="206.532" cy="131.633" r="28" fill="url(#paint6_radial_439_1551)"/>
<circle cx="206.532" cy="131.633" r="28" fill="url(#paint7_radial_439_1551)"/>
<path d="M208.583 148.134L202.281 137.63L206.135 131.49L199.995 135.343L189.491 129.042L218.129 119.496L208.583 148.134Z" fill="#ACB8CC"/>
<path d="M187.718 110.773C190.246 123.032 188.852 136.043 183.566 147.818C180.337 143.244 178.439 137.661 178.438 131.636C178.438 123.357 182.02 115.915 187.718 110.773Z" fill="url(#paint8_linear_439_1551)"/>
</g>
<g clip-path="url(#clip6_439_1551)">
<circle cx="136.409" cy="206.891" r="28" transform="rotate(15 136.409 206.891)" fill="url(#paint9_radial_439_1551)"/>
<circle cx="136.409" cy="206.891" r="28" transform="rotate(15 136.409 206.891)" fill="url(#paint10_radial_439_1551)"/>
<path fill-rule="evenodd" clip-rule="evenodd" d="M138.919 201.634C141.001 198.551 145.011 197.213 148.615 198.634C152.784 200.278 154.831 204.991 153.187 209.16C152.727 210.423 151.984 211.613 151.203 212.698C149.987 214.387 147.949 216.623 144.841 218.19C142.229 219.507 140.211 220.386 139.3 220.77C137.897 221.361 136.481 221.922 135.065 222.483C134.418 222.739 133.771 222.996 133.126 223.255L129.318 218.402C129.011 218.007 127.487 216.024 125.512 213.011C123.605 210.1 122.958 207.145 122.749 205.074C122.642 204.016 122.642 203.107 122.672 202.425C122.674 202.367 122.677 202.307 122.679 202.247C122.695 201.842 122.713 201.42 122.799 201.028C129.007 200.378 129.893 202.075 122.799 201.018C123.46 196.585 127.589 193.528 132.022 194.188C135.854 194.759 138.656 197.923 138.919 201.634Z" fill="#ACB8CC"/>
<path d="M119.573 184.399C126.233 179.42 135.026 177.434 143.681 179.753C146.14 180.412 148.435 181.38 150.536 182.6C140.455 185.894 129.755 186.5 119.573 184.399Z" fill="url(#paint11_linear_439_1551)"/>
</g>
<path d="M118.577 119.002L150.592 142.262C149.34 143.904 147.959 145.488 146.449 146.998C134.349 159.099 117.546 162.891 103.314 158.688C94.1861 155.993 86.7051 148.512 84.0098 139.385C79.8076 125.152 83.6001 108.349 95.7003 96.249C102.316 89.633 110.338 85.5007 118.577 83.8008V119.002Z" fill="#C1F5DC"/>
<path d="M118.578 83.7993C125.408 82.3904 132.386 82.6526 138.837 84.5572C147.964 87.2523 155.445 94.7327 158.141 103.86C159.571 108.705 160.074 113.847 159.64 119.001H118.578V83.7993Z" fill="#8EBF69"/>
<path d="M159.639 119.004C158.956 127.101 155.957 135.225 150.592 142.264L118.578 119.004H159.639Z" fill="#00B16D"/>
<path fill-rule="evenodd" clip-rule="evenodd" d="M92.6009 85.5637C111.528 69.9617 138.386 69.2679 156.988 83.7757C161.985 88.439 165.772 94.3957 167.731 101.029C172.987 118.83 168.171 139.419 153.521 154.069C139.1 168.489 118.925 173.383 101.318 168.518L100.482 168.279C94.1154 166.399 88.3731 162.834 83.7981 158.131C83.9378 158.249 84.0754 158.369 84.2161 158.486C67.7652 138.575 69.367 108.489 88.6419 89.1643C89.918 87.889 91.2405 86.6898 92.6009 85.5637ZM138.836 84.5579C124.604 80.3557 107.801 84.148 95.7005 96.2483C83.6002 108.349 79.8078 125.152 84.01 139.384C86.7052 148.512 94.1862 155.992 103.314 158.688C117.546 162.89 134.349 159.098 146.449 146.997C158.55 134.897 162.343 118.093 158.14 103.861C155.444 94.7333 147.964 87.253 138.836 84.5579Z" fill="#C1F5DC"/>
<g clip-path="url(#clip7_439_1551)">
<path d="M74.1304 160.621C74.3179 160.815 74.506 161.008 74.6967 161.2L74.1242 160.628L74.1304 160.621Z" fill="url(#paint12_linear_439_1551)"/>
<path d="M168.145 82.4985C190.514 105.597 189.707 143.045 166.165 166.588C142.851 189.901 105.903 190.918 82.7552 169.213L82.7324 169.236L74.8762 161.38C96.9359 183.344 132.581 183.715 156.412 162.891C156.475 162.837 156.537 162.783 156.599 162.728C157.602 161.845 158.584 160.925 159.543 159.967C160.518 158.992 161.453 157.991 162.35 156.97C162.389 156.926 162.428 156.881 162.467 156.837C183.319 132.973 182.919 97.2626 160.866 75.2099C160.645 74.9887 160.422 74.77 160.199 74.5532L160.205 74.547L168.151 82.4929L168.145 82.4985Z" fill="url(#paint13_linear_439_1551)"/>
<path d="M154.907 81.1692C156.023 82.2851 157.074 83.4421 158.06 84.6357C138.132 68.1737 108.013 69.7934 88.6917 89.1145C69.3694 108.437 67.7511 138.558 84.2164 158.486C83.0215 157.499 81.8622 156.448 80.7451 155.331C62.2534 136.839 61.5977 107.069 78.4042 86.5415C79.5458 85.1483 80.767 83.7961 82.0702 82.4929C88.5271 76.0361 96.1903 71.5572 104.276 69.0683C121.835 63.6633 141.386 67.6479 154.907 81.1692Z" fill="url(#paint14_linear_439_1551)"/>
<path fill-rule="evenodd" clip-rule="evenodd" d="M160.867 75.2072C183.906 98.2463 183.314 136.193 159.543 159.964C135.773 183.735 97.8255 184.327 74.7864 161.288C51.7474 138.249 52.3403 100.302 76.1108 76.5317C99.8813 52.7613 137.828 52.1683 160.867 75.2072ZM154.908 81.1665C135.16 61.4189 102.549 62.0118 82.0701 82.491C61.5909 102.97 60.998 135.581 80.7457 155.328C100.494 175.076 133.104 174.483 153.583 154.004C174.062 133.525 174.655 100.914 154.908 81.1665Z" fill="url(#paint15_linear_439_1551)"/>
<path d="M95.3211 174.491C87.807 171.689 80.7899 167.292 74.786 161.288C51.7468 138.249 52.3399 100.303 76.1104 76.532C94.3072 58.3354 120.811 53.7206 142.576 62.8926C121.26 54.9523 95.9445 59.8592 78.374 77.4297C54.6037 101.2 54.0105 139.147 77.0496 162.186C82.4465 167.583 88.6619 171.682 95.3211 174.491Z" fill="url(#paint16_linear_439_1551)"/>
<path d="M158.062 84.6367C174.525 104.565 172.906 134.685 153.584 154.006C134.262 173.328 104.143 174.947 84.2152 158.483C67.7524 138.555 69.3712 108.436 88.6926 89.1148C108.014 69.7935 138.133 68.174 158.062 84.6367Z" fill="url(#paint17_linear_439_1551)"/>
<path d="M114.22 92.037C109.602 93.6555 104.904 97.0515 100.973 101.198C97.0261 105.361 94.2317 109.878 93.0947 113.337L84.1978 110.414C85.8845 105.282 89.579 99.6055 94.1774 94.7552C98.791 89.889 104.694 85.4523 111.123 83.1992L114.22 92.037Z" fill="url(#paint18_linear_439_1551)"/>
</g>
<g clip-path="url(#clip8_439_1551)">
<path d="M202.919 220.325L157.946 171.61L157.949 171.608C157.93 171.589 157.909 171.573 157.89 171.554C156.061 169.725 157.543 165.278 161.2 161.621C164.857 157.964 169.304 156.482 171.133 158.311C171.152 158.33 171.169 158.35 171.187 158.369L171.189 158.367L219.891 203.353L202.919 220.325Z" fill="url(#paint19_linear_439_1551)"/>
</g>
<g clip-path="url(#clip9_439_1551)">
<path d="M65.3249 87.5635C69.3262 102.497 60.4641 117.846 45.5308 121.848C30.5974 125.849 15.2478 116.987 11.2464 102.054C7.24505 87.1204 16.1072 71.7708 31.0405 67.7694C45.9739 63.768 61.3235 72.6301 65.3249 87.5635Z" fill="url(#paint20_radial_439_1551)"/>
<path d="M65.3249 87.5635C69.3262 102.497 60.4641 117.846 45.5308 121.848C30.5974 125.849 15.2478 116.987 11.2464 102.054C7.24505 87.1204 16.1072 71.7708 31.0405 67.7694C45.9739 63.768 61.3235 72.6301 65.3249 87.5635Z" fill="url(#paint21_radial_439_1551)"/>
<path d="M33.9786 78.892C36.0087 78.6194 37.9256 79.8964 38.4559 81.8749L39.4096 85.4339C39.8428 87.0501 41.5044 88.0087 43.1206 87.5757L45.0298 87.0641C47.5703 86.3836 49.8111 88.0611 50.4551 90.4643C51.1768 93.1576 51.0435 95.9037 51.0229 98.6621C51.0025 101.408 49.1503 103.803 46.4976 104.514L36.5148 107.189C35.3002 107.515 34.0823 107.398 32.9048 106.998L29.436 94.0521L30.3497 92.4171L32.7852 87.3424C33.6809 85.4765 33.8011 83.332 33.1191 81.3779L32.8779 80.6853C32.5946 79.8737 33.1268 79.0067 33.9786 78.892Z" fill="#69CEA2"/>
<path d="M30.0701 107.749L28.2967 108.224C27.2299 108.51 26.1331 107.877 25.8472 106.81L23.4147 97.732C23.1291 96.6653 23.7623 95.5685 24.8289 95.2825L26.6023 94.8073L30.0701 107.749Z" fill="#69CEA2"/>
</g>
</g>
<defs>
<radialGradient id="paint0_radial_439_1551" cx="0" cy="0" r="1" gradientUnits="userSpaceOnUse" gradientTransform="translate(127.533 32.5794) rotate(39.3517) scale(135.312 117.413)">
<stop stop-color="#ACB8CC"/>
<stop offset="0.482632" stop-color="#E1E8F3"/>
<stop offset="1" stop-color="#7D91AF"/>
</radialGradient>
<radialGradient id="paint1_radial_439_1551" cx="0" cy="0" r="1" gradientUnits="userSpaceOnUse" gradientTransform="translate(169.834 77.2535) rotate(-44.5626) scale(30.0637 85.5256)">
<stop stop-color="#C1F5DC"/>
<stop offset="1" stop-color="#EAFFF7" stop-opacity="0"/>
</radialGradient>
<radialGradient id="paint2_radial_439_1551" cx="0" cy="0" r="1" gradientUnits="userSpaceOnUse" gradientTransform="translate(42.0834 158.139) rotate(64.408) scale(73.4754 61.9424)">
<stop offset="0.117348" stop-color="#E1E8F3"/>
<stop offset="1" stop-color="#ACB8CC"/>
</radialGradient>
<radialGradient id="paint3_radial_439_1551" cx="0" cy="0" r="1" gradientUnits="userSpaceOnUse" gradientTransform="translate(73.9225 154.965) rotate(137.153) scale(31.0637 37.4518)">
<stop stop-color="#C1F5DC"/>
<stop offset="1" stop-color="#EAFFF7" stop-opacity="0"/>
</radialGradient>
<radialGradient id="paint4_radial_439_1551" cx="0" cy="0" r="1" gradientUnits="userSpaceOnUse" gradientTransform="translate(19.3921 50.8428) rotate(-15.4613) scale(176.011 109.386)">
<stop stop-color="#ACB8CC"/>
<stop offset="0.482632" stop-color="#E1E8F3"/>
<stop offset="1" stop-color="#7D91AF"/>
</radialGradient>
<radialGradient id="paint5_radial_439_1551" cx="0" cy="0" r="1" gradientUnits="userSpaceOnUse" gradientTransform="translate(104.202 59.2757) rotate(-98.6294) scale(28.3396 80.6208)">
<stop stop-color="#C1F5DC"/>
<stop offset="1" stop-color="#EAFFF7" stop-opacity="0"/>
</radialGradient>
<radialGradient id="paint6_radial_439_1551" cx="0" cy="0" r="1" gradientUnits="userSpaceOnUse" gradientTransform="translate(180.566 125.583) rotate(18.7552) scale(80.1283 77.5099)">
<stop stop-color="#ACB8CC"/>
<stop offset="0.482632" stop-color="#E1E8F3"/>
<stop offset="1" stop-color="#7D91AF"/>
</radialGradient>
<radialGradient id="paint7_radial_439_1551" cx="0" cy="0" r="1" gradientUnits="userSpaceOnUse" gradientTransform="translate(187.098 129.342) rotate(5.91649) scale(22.2202 63.2122)">
<stop stop-color="#C1F5DC"/>
<stop offset="1" stop-color="#EAFFF7" stop-opacity="0"/>
</radialGradient>
<linearGradient id="paint8_linear_439_1551" x1="189.811" y1="129.296" x2="179.684" y2="127.851" gradientUnits="userSpaceOnUse">
<stop stop-color="#ACB8CC" stop-opacity="0"/>
<stop offset="1" stop-color="#3B4556"/>
</linearGradient>
<radialGradient id="paint9_radial_439_1551" cx="0" cy="0" r="1" gradientUnits="userSpaceOnUse" gradientTransform="translate(94.5111 168.367) rotate(37.7818) scale(114.749 110.999)">
<stop stop-color="#ACB8CC"/>
<stop offset="0.482632" stop-color="#E1E8F3"/>
<stop offset="1" stop-color="#7D91AF"/>
</radialGradient>
<radialGradient id="paint10_radial_439_1551" cx="0" cy="0" r="1" gradientUnits="userSpaceOnUse" gradientTransform="translate(125.216 189.303) rotate(47.259) scale(40.1625 48.4218)">
<stop stop-color="#C1F5DC"/>
<stop offset="1" stop-color="#EAFFF7" stop-opacity="0"/>
</radialGradient>
<linearGradient id="paint11_linear_439_1551" x1="128.449" y1="182.205" x2="150.536" y2="182.205" gradientUnits="userSpaceOnUse">
<stop stop-color="#7D91AF"/>
<stop offset="1" stop-color="#E1E8F3" stop-opacity="0"/>
</linearGradient>
<linearGradient id="paint12_linear_439_1551" x1="164.29" y1="78.6317" x2="86.1315" y2="172.273" gradientUnits="userSpaceOnUse">
<stop stop-color="#53812A"/>
<stop offset="1" stop-color="#005832"/>
</linearGradient>
<linearGradient id="paint13_linear_439_1551" x1="164.29" y1="78.6317" x2="86.1315" y2="172.273" gradientUnits="userSpaceOnUse">
<stop stop-color="#53812A"/>
<stop offset="1" stop-color="#005832"/>
</linearGradient>
<linearGradient id="paint14_linear_439_1551" x1="164.29" y1="78.6317" x2="86.1315" y2="172.273" gradientUnits="userSpaceOnUse">
<stop stop-color="#53812A"/>
<stop offset="1" stop-color="#005832"/>
</linearGradient>
<linearGradient id="paint15_linear_439_1551" x1="62.8472" y1="71.1232" x2="166.815" y2="174.609" gradientUnits="userSpaceOnUse">
<stop stop-color="#C1F5DC"/>
<stop offset="1" stop-color="#69CEA2"/>
</linearGradient>
<linearGradient id="paint16_linear_439_1551" x1="72.9614" y1="78.3383" x2="84.3274" y2="95.6303" gradientUnits="userSpaceOnUse">
<stop stop-color="#EAFFF7"/>
<stop offset="1" stop-color="white" stop-opacity="0"/>
</linearGradient>
<linearGradient id="paint17_linear_439_1551" x1="171.663" y1="168.34" x2="64.7636" y2="91.3641" gradientUnits="userSpaceOnUse">
<stop stop-color="white"/>
<stop offset="0.5" stop-color="white" stop-opacity="0"/>
<stop offset="1" stop-color="white"/>
</linearGradient>
<linearGradient id="paint18_linear_439_1551" x1="112.145" y1="87.6461" x2="89.173" y2="111.847" gradientUnits="userSpaceOnUse">
<stop stop-color="white" stop-opacity="0"/>
<stop offset="0.5" stop-color="white"/>
<stop offset="1" stop-color="white" stop-opacity="0"/>
</linearGradient>
<linearGradient id="paint19_linear_439_1551" x1="175.053" y1="203.213" x2="205.795" y2="180.198" gradientUnits="userSpaceOnUse">
<stop offset="0.200644" stop-color="#69CEA2"/>
<stop offset="1" stop-color="#00B16D"/>
</linearGradient>
<radialGradient id="paint20_radial_439_1551" cx="0" cy="0" r="1" gradientUnits="userSpaceOnUse" gradientTransform="translate(84.2663 58.043) rotate(155.536) scale(161.66 105.126)">
<stop stop-color="#69CEA2"/>
<stop offset="0.414863" stop-color="#C1F5DC"/>
<stop offset="1" stop-color="#00B16D"/>
</radialGradient>
<radialGradient id="paint21_radial_439_1551" cx="0" cy="0" r="1" gradientUnits="userSpaceOnUse" gradientTransform="translate(61.4858 102.609) rotate(-148.456) scale(35.1802 100.081)">
<stop stop-color="#DCFFED"/>
<stop offset="1" stop-color="#EAFFF7" stop-opacity="0"/>
</radialGradient>
<clipPath id="clip0_439_1551">
<rect width="240" height="240" fill="white"/>
</clipPath>
<clipPath id="clip1_439_1551">
<rect width="56" height="56" fill="white" transform="translate(154.478 34.6875)"/>
</clipPath>
<clipPath id="clip2_439_1551">
<rect width="56" height="56.0002" fill="white" transform="translate(21.5664 148.578) rotate(-10)"/>
</clipPath>
<clipPath id="clip3_439_1551">
<rect width="32" height="18" fill="white" transform="translate(36.6831 165.207) rotate(-10)"/>
</clipPath>
<clipPath id="clip4_439_1551">
<rect width="56" height="56" fill="white" transform="translate(67.0215 17.4922) rotate(-15)"/>
</clipPath>
<clipPath id="clip5_439_1551">
<rect width="56.0933" height="56" fill="white" transform="translate(178.438 103.633)"/>
</clipPath>
<clipPath id="clip6_439_1551">
<rect width="56" height="58.7984" fill="white" transform="translate(117.334 169.895) rotate(15)"/>
</clipPath>
<clipPath id="clip7_439_1551">
<rect width="127.355" height="121.737" fill="white" transform="translate(119.151 33.4922) rotate(45)"/>
</clipPath>
<clipPath id="clip8_439_1551">
<rect width="77.0801" height="24.0117" fill="white" transform="translate(169.686 153.137) rotate(45)"/>
</clipPath>
<clipPath id="clip9_439_1551">
<rect width="56" height="56" fill="white" transform="translate(4 75.0156) rotate(-15)"/>
</clipPath>
</defs>
</svg>
