<svg width="251" height="144" viewBox="0 0 251 144" fill="none" xmlns="http://www.w3.org/2000/svg">
<ellipse cx="55.4293" cy="76.1413" rx="37.65" ry="4.18333" fill="url(#paint0_radial_439_1621)"/>
<path d="M130.471 50.0221C144.333 50.0224 155.571 61.26 155.571 75.1221C151.499 75.1221 149.463 75.1221 147.791 75.7046C144.958 76.6918 142.654 78.8882 141.533 81.6708C140.871 83.3125 140.775 85.3231 140.582 89.3443C140.227 96.7646 139.996 103.188 140.141 105.144C140.548 110.635 142.233 119.088 142.233 119.088H119.224C119.224 119.088 120.909 110.635 121.316 105.144C121.458 103.234 121.24 97.0598 120.899 89.8583C120.686 85.3549 120.579 83.1031 119.765 81.2929C118.653 78.8178 116.583 76.8433 114.058 75.8492C112.211 75.1221 109.931 75.1221 105.371 75.1221C105.371 61.2597 116.609 50.0221 130.471 50.0221Z" fill="url(#paint1_radial_439_1621)"/>
<path d="M130.471 50.0221C144.333 50.0224 155.571 61.26 155.571 75.1221C151.499 75.1221 149.463 75.1221 147.791 75.7046C144.958 76.6918 142.654 78.8882 141.533 81.6708C140.871 83.3125 140.775 85.3231 140.582 89.3443C140.227 96.7646 139.996 103.188 140.141 105.144C140.548 110.635 142.233 119.088 142.233 119.088H119.224C119.224 119.088 120.909 110.635 121.316 105.144C121.458 103.234 121.24 97.0598 120.899 89.8583C120.686 85.3549 120.579 83.1031 119.765 81.2929C118.653 78.8178 116.583 76.8433 114.058 75.8492C112.211 75.1221 109.931 75.1221 105.371 75.1221C105.371 61.2597 116.609 50.0221 130.471 50.0221Z" fill="url(#paint2_radial_439_1621)" fill-opacity="0.7" style="mix-blend-mode:multiply"/>
<path opacity="0.7" d="M130.472 55.1345C141.561 55.1347 150.552 64.1248 150.552 75.2146H110.392C110.392 64.1247 119.382 55.1345 130.472 55.1345Z" fill="url(#paint3_radial_439_1621)"/>
<ellipse cx="206.029" cy="52.1116" rx="37.65" ry="4.18333" fill="#515151"/>
<ellipse cx="206.029" cy="52.1116" rx="37.65" ry="4.18333" fill="url(#paint4_radial_439_1621)"/>
<path d="M126.775 58.9928C126.813 58.4498 127.553 58.3194 127.774 58.8166L132.178 68.6895C133.999 72.7739 134.91 74.816 136.374 76.2277C137.666 77.4739 139.258 78.3663 140.995 78.8191C142.963 79.332 145.181 79.044 149.616 78.4678L205.897 71.1562L207.349 79.3957L133.738 95.5613L59.0373 105.547L57.5845 97.3076L112.972 84.9291C117.336 83.9537 119.518 83.466 121.192 82.3109C122.67 81.2912 123.86 79.9082 124.649 78.2952C125.542 76.4679 125.699 74.2374 126.014 69.7763L126.775 58.9928Z" fill="#313B4A"/>
<path d="M199.753 64.6616H212.303V83.9856C212.303 84.9265 211.675 85.7518 210.757 85.9584C209.428 86.2575 207.499 86.6241 206.028 86.6241C204.557 86.6241 202.628 86.2575 201.299 85.9584C200.381 85.7518 199.753 84.9265 199.753 83.9856V64.6616Z" fill="url(#paint5_linear_439_1621)"/>
<path d="M49.1543 90.3253H61.7043V109.649C61.7043 110.59 61.0759 111.415 60.158 111.622C58.8291 111.921 56.9002 112.288 55.4293 112.288C53.9584 112.288 52.0295 111.921 50.7006 111.622C49.7826 111.415 49.1543 110.59 49.1543 109.649V90.3253Z" fill="url(#paint6_linear_439_1621)"/>
<circle cx="194.392" cy="47.9283" r="14.6417" fill="#ACB8CC"/>
<circle cx="194.392" cy="47.9283" r="14.6417" fill="url(#paint7_radial_439_1621)" fill-opacity="0.4"/>
<circle cx="194.392" cy="47.9283" r="14.6417" fill="url(#paint8_radial_439_1621)" fill-opacity="0.8"/>
<circle cx="194.392" cy="47.9283" r="14.6417" fill="url(#paint9_radial_439_1621)" fill-opacity="0.4"/>
<rect x="185.518" y="47.9282" width="12.55" height="12.55" rx="6.275" transform="rotate(-45 185.518 47.9282)" fill="white"/>
<g clip-path="url(#clip0_439_1621)">
<circle cx="53.6439" cy="59.6161" r="29.2833" transform="rotate(15 53.6439 59.6161)" fill="#00B16D"/>
<circle cx="53.6439" cy="59.6161" r="29.2833" transform="rotate(15 53.6439 59.6161)" fill="url(#paint10_radial_439_1621)" fill-opacity="0.8"/>
<circle cx="53.6439" cy="59.6161" r="29.2833" transform="rotate(15 53.6439 59.6161)" fill="url(#paint11_radial_439_1621)" fill-opacity="0.8" style="mix-blend-mode:plus-darker"/>
<circle cx="53.6439" cy="59.6161" r="29.2833" transform="rotate(15 53.6439 59.6161)" fill="url(#paint12_radial_439_1621)" fill-opacity="0.8"/>
<circle cx="53.6439" cy="59.6161" r="29.2833" transform="rotate(15 53.6439 59.6161)" fill="url(#paint13_radial_439_1621)" fill-opacity="0.6"/>
<rect x="36.5" y="55.0227" width="25.1" height="25.1" rx="4.18333" transform="rotate(-30 36.5 55.0227)" fill="white"/>
</g>
<path d="M88.8955 86.5975L88.8965 86.5995C88.8947 88.9097 73.9115 90.7831 55.4297 90.7831C37.2366 90.7831 22.4338 88.9682 21.9736 86.7079L21.9629 86.5995H21.9619L17.9277 76.5106C19.6186 78.6471 35.7621 80.3241 55.4297 80.3241C75.097 80.3241 91.2397 78.6471 92.9307 76.5106L88.8955 86.5975Z" fill="url(#paint14_linear_439_1621)"/>
<g clip-path="url(#clip1_439_1621)">
<circle cx="223.676" cy="47.9283" r="14.6417" fill="#ACB8CC"/>
<circle cx="223.676" cy="47.9283" r="14.6417" fill="url(#paint15_radial_439_1621)" fill-opacity="0.7"/>
<circle cx="223.676" cy="47.9283" r="14.6417" fill="url(#paint16_radial_439_1621)" fill-opacity="0.8"/>
<circle cx="223.676" cy="47.9283" r="14.6417" fill="url(#paint17_radial_439_1621)" fill-opacity="0.6"/>
<path d="M220.586 41.5209C220.761 40.8347 221.615 40.5986 222.117 41.0976L230.331 49.2567C230.829 49.7519 230.607 50.6008 229.93 50.788L218.857 53.8476C218.18 54.0347 217.553 53.4204 217.726 52.7395L220.586 41.5209Z" fill="white"/>
</g>
<path d="M239.496 62.5681V62.5691C239.495 64.8793 224.511 66.7517 206.029 66.7517C187.547 66.7517 172.564 64.8793 172.562 62.5691V62.5662L168.529 52.4812C170.227 54.6169 186.367 56.2937 206.029 56.2937C225.703 56.2937 241.849 54.6157 243.532 52.4783L239.496 62.5681Z" fill="#D9D9D9"/>
<path d="M239.496 62.5681V62.5691C239.495 64.8793 224.511 66.7517 206.029 66.7517C187.547 66.7517 172.564 64.8793 172.562 62.5691V62.5662L168.529 52.4812C170.227 54.6169 186.367 56.2937 206.029 56.2937C225.703 56.2937 241.849 54.6157 243.532 52.4783L239.496 62.5681Z" fill="url(#paint18_linear_439_1621)"/>
<circle cx="130.73" cy="87.7109" r="14.6417" fill="url(#paint19_radial_439_1621)"/>
<circle cx="130.73" cy="87.7109" r="8.36667" fill="url(#paint20_radial_439_1621)"/>
<circle cx="206.028" cy="75.6429" r="3.1375" fill="#313B4A"/>
<circle cx="55.4285" cy="101.307" r="3.1375" fill="#313B4A"/>
<path d="M34.986 124.186C35.3277 120.997 38.0185 118.579 41.2253 118.579H216.106C219.313 118.579 222.004 120.997 222.346 124.186L224.883 147.862H32.4492L34.986 124.186Z" fill="url(#paint21_radial_439_1621)"/>
<defs>
<radialGradient id="paint0_radial_439_1621" cx="0" cy="0" r="1" gradientUnits="userSpaceOnUse" gradientTransform="translate(17.7793 70.9818) rotate(6.54468) scale(65.2974 7.25526)">
<stop stop-color="#7D91AF"/>
<stop offset="1" stop-color="#313B4A"/>
</radialGradient>
<radialGradient id="paint1_radial_439_1621" cx="0" cy="0" r="1" gradientTransform="matrix(50.0121 82.636 -105.07 -20.2805 88.1739 34.3873)" gradientUnits="userSpaceOnUse">
<stop offset="0.166216" stop-color="#F0F5FD"/>
<stop offset="0.876689" stop-color="#7D91AF"/>
</radialGradient>
<radialGradient id="paint2_radial_439_1621" cx="0" cy="0" r="1" gradientUnits="userSpaceOnUse" gradientTransform="translate(130.471 99.3657) rotate(-102.964) scale(38.02 54.1399)">
<stop stop-color="#272E3A"/>
<stop offset="0.60962" stop-color="white" stop-opacity="0"/>
</radialGradient>
<radialGradient id="paint3_radial_439_1621" cx="0" cy="0" r="1" gradientTransform="matrix(2.58976 18.9515 -128.085 17.504 127.882 56.2631)" gradientUnits="userSpaceOnUse">
<stop stop-color="#3B4556"/>
<stop offset="1" stop-color="#7D91AF" stop-opacity="0"/>
</radialGradient>
<radialGradient id="paint4_radial_439_1621" cx="0" cy="0" r="1" gradientUnits="userSpaceOnUse" gradientTransform="translate(168.379 46.952) rotate(6.54468) scale(65.2974 7.25526)">
<stop stop-color="#7D91AF"/>
<stop offset="1" stop-color="#313B4A"/>
</radialGradient>
<linearGradient id="paint5_linear_439_1621" x1="201.846" y1="60.0204" x2="206.028" y2="88.6534" gradientUnits="userSpaceOnUse">
<stop stop-color="#3B4556"/>
<stop offset="0.622053" stop-color="#ACB8CC"/>
</linearGradient>
<linearGradient id="paint6_linear_439_1621" x1="51.2477" y1="85.6841" x2="55.4293" y2="114.317" gradientUnits="userSpaceOnUse">
<stop stop-color="#3B4556"/>
<stop offset="0.622053" stop-color="#ACB8CC"/>
</linearGradient>
<radialGradient id="paint7_radial_439_1621" cx="0" cy="0" r="1" gradientUnits="userSpaceOnUse" gradientTransform="translate(182.812 35.3663) rotate(48.0315) scale(32.2403)">
<stop offset="0.555579" stop-color="#7D91AF"/>
<stop offset="1" stop-color="#3B4556"/>
</radialGradient>
<radialGradient id="paint8_radial_439_1621" cx="0" cy="0" r="1" gradientUnits="userSpaceOnUse" gradientTransform="translate(182.902 37.6845) rotate(38.0746) scale(28.0122 22.3427)">
<stop stop-color="#F0F5FD"/>
<stop offset="1" stop-color="#ACB8CC" stop-opacity="0"/>
</radialGradient>
<radialGradient id="paint9_radial_439_1621" cx="0" cy="0" r="1" gradientUnits="userSpaceOnUse" gradientTransform="translate(199.128 55.9162) rotate(167.53) scale(30.8138 4.35685)">
<stop stop-color="#313B4A"/>
<stop offset="1" stop-color="#7D91AF" stop-opacity="0"/>
</radialGradient>
<radialGradient id="paint10_radial_439_1621" cx="0" cy="0" r="1" gradientUnits="userSpaceOnUse" gradientTransform="translate(30.6656 39.1285) rotate(39.8718) scale(45.2954 36.1279)">
<stop stop-color="#C1F5DC"/>
<stop offset="1" stop-color="#C1F5DC" stop-opacity="0"/>
</radialGradient>
<radialGradient id="paint11_radial_439_1621" cx="0" cy="0" r="1" gradientUnits="userSpaceOnUse" gradientTransform="translate(30.6656 39.1285) rotate(43.64) scale(60.8614 48.5434)">
<stop offset="0.725052" stop-color="#00B16D" stop-opacity="0"/>
<stop offset="1" stop-color="#00B16D"/>
</radialGradient>
<radialGradient id="paint12_radial_439_1621" cx="0" cy="0" r="1" gradientUnits="userSpaceOnUse" gradientTransform="translate(55.5341 60.8463) rotate(42.7766) scale(29.4591 23.4846)">
<stop stop-color="#C1F5DC"/>
<stop offset="1" stop-color="#C1F5DC" stop-opacity="0"/>
</radialGradient>
<radialGradient id="paint13_radial_439_1621" cx="0" cy="0" r="1" gradientUnits="userSpaceOnUse" gradientTransform="translate(68.2467 78.1417) rotate(157.419) scale(45.5733 8.49401)">
<stop stop-color="#005832"/>
<stop offset="1" stop-color="#69CEA2" stop-opacity="0"/>
</radialGradient>
<linearGradient id="paint14_linear_439_1621" x1="17.9277" y1="83.6469" x2="97.3463" y2="93.8016" gradientUnits="userSpaceOnUse">
<stop stop-color="#F0F5FD"/>
<stop offset="1" stop-color="#ACB8CC"/>
</linearGradient>
<radialGradient id="paint15_radial_439_1621" cx="0" cy="0" r="1" gradientUnits="userSpaceOnUse" gradientTransform="translate(216.855 38.7705) rotate(50.7542) scale(26.5572)">
<stop offset="0.555579" stop-color="#7D91AF"/>
<stop offset="1" stop-color="#3B4556"/>
</radialGradient>
<radialGradient id="paint16_radial_439_1621" cx="0" cy="0" r="1" gradientUnits="userSpaceOnUse" gradientTransform="translate(212.187 37.6845) rotate(39.8718) scale(22.6477 18.064)">
<stop stop-color="#F0F5FD"/>
<stop offset="1" stop-color="#ACB8CC" stop-opacity="0"/>
</radialGradient>
<radialGradient id="paint17_radial_439_1621" cx="0" cy="0" r="1" gradientUnits="userSpaceOnUse" gradientTransform="translate(228.438 54.698) rotate(165.349) scale(31.124 4.40071)">
<stop stop-color="#313B4A"/>
<stop offset="1" stop-color="#7D91AF" stop-opacity="0"/>
</radialGradient>
<linearGradient id="paint18_linear_439_1621" x1="168.529" y1="59.615" x2="247.948" y2="69.7691" gradientUnits="userSpaceOnUse">
<stop stop-color="#F0F5FD"/>
<stop offset="1" stop-color="#ACB8CC"/>
</linearGradient>
<radialGradient id="paint19_radial_439_1621" cx="0" cy="0" r="1" gradientUnits="userSpaceOnUse" gradientTransform="translate(141.519 94.5029) rotate(-142.809) scale(25.3243)">
<stop stop-color="#202225"/>
<stop offset="1" stop-color="#313B4A"/>
</radialGradient>
<radialGradient id="paint20_radial_439_1621" cx="0" cy="0" r="1" gradientUnits="userSpaceOnUse" gradientTransform="translate(121.406 75.9499) rotate(49.1223) scale(23.2667)">
<stop offset="0.170965" stop-color="#F8FCFF"/>
<stop offset="1" stop-color="#7D91AF"/>
</radialGradient>
<radialGradient id="paint21_radial_439_1621" cx="0" cy="0" r="1" gradientUnits="userSpaceOnUse" gradientTransform="translate(243.821 147.862) rotate(-167.299) scale(183.514 191.345)">
<stop stop-color="#ACB8CC"/>
<stop offset="0.579098" stop-color="white"/>
</radialGradient>
<clipPath id="clip0_439_1621">
<rect width="58.5667" height="58.5667" fill="white" transform="translate(32.9375 23.7515) rotate(15)"/>
</clipPath>
<clipPath id="clip1_439_1621">
<rect width="29.2833" height="29.2833" fill="white" transform="translate(209.034 33.2866)"/>
</clipPath>
</defs>
</svg>
