<svg width="208" height="78" viewBox="0 0 208 78" fill="none" xmlns="http://www.w3.org/2000/svg">
<g clip-path="url(#clip0_439_1659)">
<path d="M138.79 9.02222C138.828 9.02199 138.867 9.02124 138.905 9.02124C150.159 9.02146 159.282 18.7664 159.282 30.7869C159.282 42.8076 150.159 52.5523 138.905 52.5525C138.867 52.5525 138.828 52.5508 138.79 52.5505V52.5535L106.122 52.5535V9.02124L138.79 9.02124V9.02222Z" fill="url(#paint0_linear_439_1659)"/>
<path fill-rule="evenodd" clip-rule="evenodd" d="M115.125 0.00561523C115.323 0.00290502 115.521 0.00286641 115.718 0.00561523L115.844 0.0065918V0.00854492C120.188 0.0943389 124.459 1.49179 128.058 4.10034C132.026 6.97577 134.948 12.3712 140.79 23.1619C148.28 36.9968 152.025 43.9149 151.929 49.5642C151.8 57.2072 147.628 64.209 140.968 67.9617C136.414 70.5281 129.339 70.7169 115.844 70.7312V70.7341L113.556 70.7341C113.191 70.7342 112.822 70.7351 112.448 70.7351C112.057 70.7351 111.668 70.7341 111.284 70.7341H87.7281L87.7271 70.3914C80.1076 69.9736 75.2437 69.0474 72.2213 66.9832C64.7867 61.9049 61.2957 52.7369 63.4693 43.9998C64.97 37.9689 72.6135 30.8535 87.7066 17.3884L87.7008 0.00170898L115.125 0.00561523Z" fill="url(#paint1_linear_439_1659)"/>
<path d="M63.1641 14.4414C72.3267 6.27953 76.908 2.19858 81.6167 0.843181C87.9862 -0.990295 94.8452 0.211391 100.212 4.10107C104.179 6.97651 107.101 12.3719 112.943 23.1626C120.433 36.9975 124.178 43.915 124.082 49.5642C123.953 57.2074 119.782 64.2091 113.122 67.9618C108.2 70.7356 100.334 70.7356 84.6011 70.7356C61.446 70.7356 49.8684 70.7356 44.3745 66.983C36.9399 61.9047 33.449 52.7375 35.6227 44.0004C37.2289 37.544 45.874 29.8432 63.1641 14.4414Z" fill="url(#paint2_linear_439_1659)"/>
<path d="M81.7334 1.24976C87.9777 -0.547664 94.7026 0.630911 99.9639 4.44409C101.885 5.83639 103.573 7.85342 105.518 10.8923C107.464 13.9333 109.646 17.9633 112.57 23.364C116.319 30.2875 119.118 35.4595 120.971 39.6062C122.824 43.7543 123.705 46.8272 123.659 49.5574C123.532 57.0501 119.443 63.9137 112.914 67.5925C110.535 68.9331 107.413 69.6212 102.883 69.9666C98.3545 70.3117 92.4742 70.3123 84.6016 70.3123C73.0172 70.3123 64.352 70.3122 57.8955 69.8445C51.4237 69.3757 47.2584 68.4403 44.6133 66.6335C37.3249 61.6552 33.9023 52.6676 36.0332 44.1023C36.8066 40.9939 39.295 37.5254 43.8154 32.8708C48.3254 28.2271 54.7953 22.4629 63.4453 14.7576C68.0314 10.6724 71.4543 7.62379 74.3184 5.42554C77.1804 3.22881 79.4535 1.90607 81.7334 1.24976Z" stroke="url(#paint3_linear_439_1659)" stroke-width="0.847046"/>
<path d="M43.106 6.68091C46.1285 6.68091 49.0564 7.11488 51.8394 7.9231L51.8403 7.92017L82.3013 16.3206V16.3215C93.1644 19.1848 101.22 29.6621 101.22 42.1497C101.22 54.6369 93.1641 65.1124 82.3013 67.9758V67.9788L51.8394 76.385V76.3782C49.0564 77.1864 46.1286 77.6204 43.106 77.6204C24.7662 77.6202 9.89893 61.74 9.89893 42.1506C9.89905 22.5614 24.7663 6.68111 43.106 6.68091Z" fill="url(#paint4_linear_439_1659)"/>
<ellipse cx="33.2073" cy="42.1494" rx="33.2073" ry="35.4699" fill="url(#paint5_linear_439_1659)"/>
<ellipse cx="33.2072" cy="42.1468" rx="27.1696" ry="29.0208" fill="#00B16D"/>
<path d="M56.335 57.3784C55.5899 58.6663 54.7535 59.8871 53.835 61.0308C51.3733 62.5423 48.5153 63.4097 45.46 63.4097V62.1392C49.6831 62.1392 53.5274 60.3262 56.335 57.3784Z" fill="url(#paint6_linear_439_1659)"/>
<g opacity="0.5" style="mix-blend-mode:plus-lighter">
<path d="M39.5332 37.7375C47.618 37.7376 54.9097 41.1301 60.0645 46.5686C58.0707 60.4975 46.8068 71.1672 33.209 71.1672C24.5539 71.1672 16.8446 66.8442 11.8691 60.1096C14.5878 47.3268 25.9398 37.7375 39.5332 37.7375Z" fill="url(#paint7_radial_439_1659)"/>
</g>
<path d="M33.2075 13.1223C34.8823 13.1223 36.5217 13.2841 38.1128 13.594C25.4488 16.0604 15.8482 27.9039 15.8481 42.1428C15.8481 56.3817 25.4489 68.2242 38.1128 70.6907C36.5217 71.0006 34.8824 71.1633 33.2075 71.1633C18.2022 71.1633 6.0376 58.1706 6.0376 42.1428C6.03764 26.1151 18.2022 13.1223 33.2075 13.1223Z" fill="url(#paint8_linear_439_1659)"/>
<path d="M33.207 77.6187H33.1523L33.1543 77.6177C33.1719 77.6177 33.1894 77.6187 33.207 77.6187ZM43.1055 6.6792C61.4452 6.6792 76.3133 22.5596 76.3135 42.1489C76.3135 61.6553 61.5714 77.4807 43.3389 77.6147L43.3428 77.6187H33.207C51.5469 77.6187 66.415 61.7374 66.415 42.1479C66.4148 22.8648 52.0081 7.17553 34.0645 6.68994L42.3203 6.68994C42.5812 6.68347 42.8431 6.6792 43.1055 6.6792Z" fill="url(#paint9_linear_439_1659)"/>
<path d="M32.4053 29.3079C29.1563 32.4318 27.0782 36.9833 27.0781 42.1458H21.5723C21.5723 35.584 24.225 29.5918 28.5088 25.4114L32.4053 29.3079ZM43.0156 24.9338C40.568 24.9339 38.2276 25.5401 36.1299 26.6282L32.0898 22.5881C35.273 20.5861 38.9998 19.4281 43.0156 19.428V24.9338Z" fill="url(#paint10_linear_439_1659)"/>
<g opacity="0.35" style="mix-blend-mode:plus-lighter">
<path d="M42.916 17.2791C44.7124 17.2791 46.4617 17.4969 48.1426 17.908C55.5116 23.0984 60.3749 32.0175 60.375 42.1511C60.375 53.1382 54.6586 62.6986 46.2295 67.6257C45.1469 67.7903 44.0408 67.8777 42.916 67.8777C29.9391 67.8777 19.4191 56.551 19.4189 42.5789C19.4189 28.6066 29.939 17.2791 42.916 17.2791Z" fill="url(#paint11_radial_439_1659)"/>
</g>
<path d="M219.508 9.02368C219.546 9.02345 219.585 9.02271 219.623 9.02271C230.877 9.02271 240 18.7677 240 30.7883C240 42.8092 230.877 52.5539 219.623 52.554C219.585 52.554 219.546 52.5522 219.508 52.552V52.5549L186.84 52.5549V9.02271L219.508 9.02271V9.02368Z" fill="url(#paint12_linear_439_1659)"/>
<path fill-rule="evenodd" clip-rule="evenodd" d="M196.488 0.00708008L196.562 0.00805664V0.0090332C200.906 0.0946786 205.177 1.49206 208.777 4.10083C212.744 6.97623 215.666 12.3719 221.508 23.1624C228.998 36.9973 232.743 43.9154 232.647 49.5647C232.518 57.2077 228.347 64.2095 221.687 67.9622C217.133 70.5287 210.057 70.7174 196.562 70.7317V70.7346L194.275 70.7346C193.91 70.7347 193.541 70.7356 193.167 70.7356C192.776 70.7356 192.387 70.7346 192.003 70.7346H168.447L168.446 70.3918C160.826 69.9741 155.962 69.0481 152.939 66.9836C145.505 61.9054 142.015 52.7373 144.188 44.0002C145.689 37.9693 153.332 30.854 168.425 17.3889L168.42 0.00317383L195.744 0.00708008C195.992 0.00253658 196.24 0.00304833 196.488 0.00708008Z" fill="url(#paint13_linear_439_1659)"/>
<path d="M143.883 14.4409C153.045 6.27904 157.627 2.19809 162.335 0.842693C168.705 -0.990784 175.564 0.210903 180.931 4.10058C184.898 6.97602 187.819 12.3714 193.661 23.1621C201.152 36.997 204.897 43.9145 204.801 49.5638C204.672 57.2069 200.501 64.2086 193.841 67.9613C188.919 70.7351 181.052 70.7351 165.32 70.7351C142.165 70.7351 130.587 70.7351 125.093 66.9825C117.659 61.9042 114.168 52.737 116.341 43.9999C117.948 37.5436 126.593 29.8427 143.883 14.4409Z" fill="url(#paint14_linear_439_1659)"/>
<path d="M162.452 1.24927C168.696 -0.548152 175.421 0.630423 180.683 4.4436C182.604 5.8359 184.292 7.85293 186.236 10.8918C188.182 13.9328 190.365 17.9628 193.289 23.3635C197.037 30.287 199.837 35.4591 201.689 39.6057C203.543 43.7538 204.424 46.8267 204.378 49.5569C204.251 57.0496 200.161 63.9132 193.633 67.592C191.254 68.9326 188.132 69.6207 183.602 69.9661C179.073 70.3112 173.193 70.3118 165.32 70.3118C153.736 70.3118 145.071 70.3117 138.614 69.844C132.142 69.3752 127.977 68.4398 125.332 66.6331C118.044 61.6547 114.621 52.6671 116.752 44.1018C117.525 40.9934 120.014 37.5249 124.534 32.8704C129.044 28.2266 135.514 22.4624 144.164 14.7571C148.75 10.6719 152.173 7.6233 155.037 5.42505C157.899 3.22832 160.172 1.90558 162.452 1.24927Z" stroke="url(#paint15_linear_439_1659)" stroke-width="0.847046"/>
<path d="M139.223 6.68262C142.245 6.68262 145.173 7.1166 147.956 7.9248V7.92188L178.417 16.3223V16.3232C189.28 19.1863 197.336 29.6636 197.336 42.1514C197.336 54.6389 189.28 65.1144 178.417 67.9775V67.9805L147.956 76.3867V76.3799C145.173 77.1881 142.245 77.6221 139.223 77.6221C120.883 77.6218 106.016 61.7417 106.016 42.1523C106.016 22.5631 120.883 6.68285 139.223 6.68262Z" fill="url(#paint16_linear_439_1659)"/>
<ellipse cx="129.323" cy="42.1511" rx="33.2073" ry="35.4699" fill="url(#paint17_linear_439_1659)"/>
<ellipse cx="129.323" cy="42.1485" rx="27.1696" ry="29.0208" fill="#00B16D"/>
<path d="M152.449 57.3867C151.705 58.6734 150.869 59.8934 149.951 61.0361C147.49 62.5468 144.634 63.414 141.579 63.4141V62.1436C145.8 62.1435 149.642 60.332 152.449 57.3867Z" fill="url(#paint18_linear_439_1659)"/>
<g opacity="0.5" style="mix-blend-mode:plus-lighter">
<path d="M135.649 37.74C143.734 37.74 151.027 41.1331 156.182 46.572C154.188 60.5008 142.924 71.1705 129.326 71.1707C120.671 71.1707 112.961 66.8471 107.985 60.1121C110.704 47.3296 122.056 37.74 135.649 37.74Z" fill="url(#paint19_radial_439_1659)"/>
</g>
<path d="M129.323 13.1296C130.998 13.1296 132.637 13.2924 134.229 13.6023C121.565 16.0692 111.965 27.9117 111.965 42.1501C111.965 56.3885 121.565 68.23 134.229 70.697C132.637 71.007 130.998 71.1706 129.323 71.1707C114.318 71.1707 102.153 58.1778 102.153 42.1501C102.153 26.1224 114.318 13.1296 129.323 13.1296Z" fill="url(#paint20_linear_439_1659)"/>
<path d="M129.322 77.6204H129.269L129.271 77.6194C129.288 77.6194 129.305 77.6204 129.322 77.6204ZM139.223 6.68091C157.562 6.68091 172.43 22.5613 172.431 42.1506C172.431 61.6578 157.688 77.4837 139.454 77.6165L139.458 77.6204H129.322C147.662 77.6204 162.529 61.7392 162.529 42.1497C162.529 22.8665 148.123 7.17733 130.18 6.69165L138.438 6.69165C138.698 6.68518 138.96 6.68092 139.223 6.68091Z" fill="url(#paint21_linear_439_1659)"/>
<path d="M128.521 29.3113C125.272 32.4353 123.194 36.9866 123.194 42.1492H117.688C117.688 35.5873 120.341 29.5953 124.625 25.4148L128.521 29.3113ZM139.132 24.9373C136.684 24.9373 134.343 25.5425 132.245 26.6306L128.205 22.5916C131.388 20.5892 135.116 19.4315 139.132 19.4314V24.9373Z" fill="url(#paint22_linear_439_1659)"/>
<g opacity="0.35" style="mix-blend-mode:plus-lighter">
<path d="M139.032 17.2808C140.829 17.2808 142.578 17.4986 144.259 17.9097C151.628 23.1001 156.491 32.0193 156.491 42.1528C156.491 53.1399 150.775 62.7003 142.346 67.6274C141.263 67.792 140.157 67.8794 139.032 67.8794C126.055 67.8793 115.535 56.5526 115.535 42.5806C115.535 28.6084 126.055 17.2808 139.032 17.2808Z" fill="url(#paint23_radial_439_1659)"/>
</g>
</g>
<defs>
<linearGradient id="paint0_linear_439_1659" x1="133.142" y1="9.02124" x2="167.067" y2="33.5496" gradientUnits="userSpaceOnUse">
<stop stop-color="#005832"/>
<stop offset="1" stop-color="#142521"/>
</linearGradient>
<linearGradient id="paint1_linear_439_1659" x1="86.1713" y1="-8.55055" x2="123.778" y2="43.0963" gradientUnits="userSpaceOnUse">
<stop stop-color="#69CEA2"/>
<stop offset="1" stop-color="#005832"/>
</linearGradient>
<linearGradient id="paint2_linear_439_1659" x1="74.2371" y1="4.97924" x2="116.119" y2="70.7356" gradientUnits="userSpaceOnUse">
<stop stop-color="#69CEA2"/>
<stop offset="1" stop-color="#005832"/>
</linearGradient>
<linearGradient id="paint3_linear_439_1659" x1="102.734" y1="5.3265" x2="94.8985" y2="13.5723" gradientUnits="userSpaceOnUse">
<stop stop-color="white"/>
<stop offset="1" stop-color="white" stop-opacity="0"/>
</linearGradient>
<linearGradient id="paint4_linear_439_1659" x1="55.5596" y1="73.3481" x2="35.0092" y2="46.7356" gradientUnits="userSpaceOnUse">
<stop stop-color="#005832"/>
<stop offset="1" stop-color="#00B16D"/>
</linearGradient>
<linearGradient id="paint5_linear_439_1659" x1="15.0863" y1="13.1374" x2="63.9837" y2="66.7261" gradientUnits="userSpaceOnUse">
<stop stop-color="#C1F5DC"/>
<stop offset="1" stop-color="#69CEA2"/>
</linearGradient>
<linearGradient id="paint6_linear_439_1659" x1="76.5285" y1="55.1135" x2="48.4208" y2="46.7632" gradientUnits="userSpaceOnUse">
<stop stop-color="white"/>
<stop offset="1" stop-color="white" stop-opacity="0"/>
</linearGradient>
<radialGradient id="paint7_radial_439_1659" cx="0" cy="0" r="1" gradientTransform="matrix(-8.41184 -34.6967 42.3762 -10.2724 39.1862 75.7393)" gradientUnits="userSpaceOnUse">
<stop stop-color="white"/>
<stop offset="1" stop-color="white" stop-opacity="0"/>
</radialGradient>
<linearGradient id="paint8_linear_439_1659" x1="6.0376" y1="36.5322" x2="36.2283" y2="42.143" gradientUnits="userSpaceOnUse">
<stop stop-color="#005832"/>
<stop offset="1" stop-color="#00B16D"/>
</linearGradient>
<linearGradient id="paint9_linear_439_1659" x1="93.9552" y1="44.6301" x2="61.7245" y2="10.7953" gradientUnits="userSpaceOnUse">
<stop stop-color="#005832"/>
<stop offset="1" stop-color="#00B16D"/>
</linearGradient>
<linearGradient id="paint10_linear_439_1659" x1="21.5349" y1="19.88" x2="36.657" y2="35.2683" gradientUnits="userSpaceOnUse">
<stop stop-color="white"/>
<stop offset="1" stop-color="white" stop-opacity="0"/>
</linearGradient>
<radialGradient id="paint11_radial_439_1659" cx="0" cy="0" r="1" gradientTransform="matrix(11.8099 27.325 -25.2113 14.3462 25.7826 20.6701)" gradientUnits="userSpaceOnUse">
<stop stop-color="white"/>
<stop offset="1" stop-color="white" stop-opacity="0"/>
</radialGradient>
<linearGradient id="paint12_linear_439_1659" x1="204.441" y1="-3.26283" x2="241.806" y2="39.9915" gradientUnits="userSpaceOnUse">
<stop stop-color="#00B16D"/>
<stop offset="1" stop-color="#003A21"/>
</linearGradient>
<linearGradient id="paint13_linear_439_1659" x1="166.89" y1="-8.54897" x2="204.496" y2="43.0973" gradientUnits="userSpaceOnUse">
<stop stop-color="#69CEA2"/>
<stop offset="1" stop-color="#005832"/>
</linearGradient>
<linearGradient id="paint14_linear_439_1659" x1="154.956" y1="4.97876" x2="196.837" y2="70.7351" gradientUnits="userSpaceOnUse">
<stop stop-color="#69CEA2"/>
<stop offset="1" stop-color="#005832"/>
</linearGradient>
<linearGradient id="paint15_linear_439_1659" x1="202.461" y1="17.5272" x2="186.817" y2="29.4849" gradientUnits="userSpaceOnUse">
<stop stop-color="white"/>
<stop offset="1" stop-color="white" stop-opacity="0"/>
</linearGradient>
<linearGradient id="paint16_linear_439_1659" x1="151.676" y1="73.3498" x2="131.125" y2="46.7375" gradientUnits="userSpaceOnUse">
<stop stop-color="#005832"/>
<stop offset="1" stop-color="#00B16D"/>
</linearGradient>
<linearGradient id="paint17_linear_439_1659" x1="111.203" y1="13.1391" x2="160.1" y2="66.7278" gradientUnits="userSpaceOnUse">
<stop stop-color="#C1F5DC"/>
<stop offset="1" stop-color="#69CEA2"/>
</linearGradient>
<linearGradient id="paint18_linear_439_1659" x1="172.634" y1="55.1232" x2="144.54" y2="46.7754" gradientUnits="userSpaceOnUse">
<stop stop-color="white"/>
<stop offset="1" stop-color="white" stop-opacity="0"/>
</linearGradient>
<radialGradient id="paint19_radial_439_1659" cx="0" cy="0" r="1" gradientTransform="matrix(-8.41202 -34.6977 42.377 -10.2727 135.303 75.7429)" gradientUnits="userSpaceOnUse">
<stop stop-color="white"/>
<stop offset="1" stop-color="white" stop-opacity="0"/>
</radialGradient>
<linearGradient id="paint20_linear_439_1659" x1="102.153" y1="36.5396" x2="132.344" y2="42.1503" gradientUnits="userSpaceOnUse">
<stop stop-color="#005832"/>
<stop offset="1" stop-color="#00B16D"/>
</linearGradient>
<linearGradient id="paint21_linear_439_1659" x1="190.073" y1="44.6318" x2="157.842" y2="10.7962" gradientUnits="userSpaceOnUse">
<stop stop-color="#005832"/>
<stop offset="1" stop-color="#00B16D"/>
</linearGradient>
<linearGradient id="paint22_linear_439_1659" x1="117.651" y1="19.8835" x2="132.773" y2="35.2717" gradientUnits="userSpaceOnUse">
<stop stop-color="white"/>
<stop offset="1" stop-color="white" stop-opacity="0"/>
</linearGradient>
<radialGradient id="paint23_radial_439_1659" cx="0" cy="0" r="1" gradientTransform="matrix(11.8099 27.325 -25.2113 14.3462 121.899 20.6718)" gradientUnits="userSpaceOnUse">
<stop stop-color="white"/>
<stop offset="1" stop-color="white" stop-opacity="0"/>
</radialGradient>
<clipPath id="clip0_439_1659">
<rect width="240" height="77.623" fill="white"/>
</clipPath>
</defs>
</svg>
