<svg width="134" height="133" viewBox="0 0 134 133" fill="none" xmlns="http://www.w3.org/2000/svg">
<path d="M66.633 0.00652859V132.628C66.6222 132.632 66.6116 132.636 66.6009 132.64C26.5567 117.553 0 79.2231 0 36.3719L0 15.3361C0 13.4508 1.34868 11.8354 3.2037 11.4989L66.5949 0L66.633 0.00652859Z" fill="url(#paint0_linear_439_1751)"/>
<path d="M66.633 0.00652859V132.628C66.6222 132.632 66.6116 132.636 66.6009 132.64C26.5567 117.553 0 79.2231 0 36.3719L0 15.3361C0 13.4508 1.34868 11.8354 3.2037 11.4989L66.5949 0L66.633 0.00652859Z" fill="url(#paint1_radial_439_1751)" style="mix-blend-mode:lighten"/>
<path d="M129.986 11.498C131.841 11.8345 133.19 13.4498 133.19 15.3351V36.3808C133.19 79.2148 106.653 117.531 66.6328 132.627V0.00561523L129.986 11.498Z" fill="url(#paint2_linear_439_1751)"/>
<path d="M133.19 23.0601V36.3833C133.19 79.2172 106.653 117.533 66.6328 132.628V13.2563L67.0635 13.1978L133.19 23.0601Z" fill="url(#paint3_radial_439_1751)"/>
<path d="M66.6328 39.0774C67.0222 39.0773 67.4121 39.2901 67.5889 39.7151L74.0527 55.2571C74.2017 55.6153 74.539 55.8608 74.9258 55.8918L91.7051 57.2366C92.6224 57.3101 92.9947 58.4552 92.2959 59.054L79.5117 70.0051C79.2171 70.2575 79.0878 70.6532 79.1777 71.0305L83.084 87.4045C83.2975 88.2997 82.3235 89.0073 81.5381 88.5276L67.1729 79.7532C67.0072 79.652 66.8198 79.6018 66.6328 79.6018V39.0774Z" fill="url(#paint4_linear_439_1751)"/>
<path d="M66.6328 132.632C66.6224 132.636 66.612 132.64 66.6016 132.644C26.5575 117.557 0 79.2268 0 36.3757L0 22.3621L66.6328 13.2566V132.632Z" fill="url(#paint5_linear_439_1751)"/>
<path fill-rule="evenodd" clip-rule="evenodd" d="M66.6337 79.6018C66.4472 79.602 66.2608 79.6523 66.0956 79.7532L51.7294 88.5276C50.944 89.0073 49.9699 88.2997 50.1835 87.4045L54.0897 71.0305C54.1796 70.6533 54.0511 70.2575 53.7567 70.0051L40.9725 59.054C40.2736 58.4553 40.6451 57.3102 41.5624 57.2366L58.3417 55.8918C58.7284 55.8608 59.0657 55.6153 59.2147 55.2571L65.6796 39.7151C65.8561 39.2905 66.2447 39.0787 66.6337 39.0784V79.6018Z" fill="url(#paint6_linear_439_1751)"/>
<path d="M66.633 0.00652859V14.1518L66.5949 14.1453L13.9277 23.6993L13.9277 36.3626C13.9277 71.6309 34.7344 103.357 66.5998 117.578C66.6109 117.573 66.6219 117.568 66.633 117.563V132.628C66.6222 132.632 66.6116 132.636 66.6009 132.64C26.5567 117.553 0 79.2231 0 36.3719L0 14.8709C0 13.255 1.15601 11.8704 2.74603 11.582L66.5949 0L66.633 0.00652859Z" fill="url(#paint7_linear_439_1751)"/>
<path d="M130.444 11.581C132.034 11.8695 133.19 13.254 133.19 14.87V36.3808C133.19 79.2148 106.653 117.531 66.6328 132.627V117.562C98.474 103.334 119.263 71.6226 119.263 36.3715V23.6984L66.6328 14.1509V0.00561523L130.444 11.581Z" fill="url(#paint8_linear_439_1751)"/>
<path d="M66.6328 14.1506V16.8958L16.7119 25.5071V37.9319C16.7119 70.9573 36.2669 100.817 66.6328 115.603L66.6338 132.627C66.6231 132.631 66.6123 132.636 66.6016 132.64L66.6006 132.639C66.6113 132.635 66.6221 132.631 66.6328 132.627V117.563C66.6218 117.568 66.6107 117.572 66.5996 117.577C34.7342 103.356 13.9277 71.6298 13.9277 36.3616V23.6985L66.5947 14.1448L66.6328 14.1506Z" fill="url(#paint9_radial_439_1751)"/>
<path d="M66.6338 14.1506V16.8958L116.554 25.5071V37.9319C116.554 70.9568 96.999 100.816 66.6338 115.602L66.6328 132.627C66.6435 132.631 66.6544 132.636 66.665 132.64L66.666 132.639C66.6554 132.635 66.6444 132.631 66.6338 132.627V117.563C66.6448 117.568 66.656 117.572 66.667 117.577C98.5323 103.356 119.339 71.6297 119.339 36.3616V23.6985L66.6719 14.1448L66.6338 14.1506Z" fill="url(#paint10_radial_439_1751)"/>
<path d="M66.6338 14.1506V16.8958L116.554 25.5071V37.9319C116.554 70.9568 96.999 100.816 66.6338 115.602L66.6328 132.627C66.6435 132.631 66.6544 132.636 66.665 132.64L66.666 132.639C66.6554 132.635 66.6444 132.631 66.6338 132.627V117.563C66.6448 117.568 66.656 117.572 66.667 117.577C98.5323 103.356 119.339 71.6297 119.339 36.3616V23.6985L66.6719 14.1448L66.6338 14.1506Z" fill="url(#paint11_radial_439_1751)"/>
<defs>
<linearGradient id="paint0_linear_439_1751" x1="38.7751" y1="-5.53253" x2="66.633" y2="50.8916" gradientUnits="userSpaceOnUse">
<stop stop-color="#C1F5DC"/>
<stop offset="1" stop-color="#69CEA2"/>
</linearGradient>
<radialGradient id="paint1_radial_439_1751" cx="0" cy="0" r="1" gradientTransform="matrix(34.3266 37.1411 -98.0545 109.721 8.95269 -14.0756)" gradientUnits="userSpaceOnUse">
<stop stop-color="white"/>
<stop offset="1" stop-color="#C1F5DC" stop-opacity="0"/>
</radialGradient>
<linearGradient id="paint2_linear_439_1751" x1="130.635" y1="6.33216" x2="129.01" y2="36.6615" gradientUnits="userSpaceOnUse">
<stop stop-color="#005832"/>
<stop offset="1" stop-color="#003A21"/>
</linearGradient>
<radialGradient id="paint3_radial_439_1751" cx="0" cy="0" r="1" gradientTransform="matrix(70.13 82.5366 -106.454 90.7121 66.6328 17.7066)" gradientUnits="userSpaceOnUse">
<stop stop-color="#C1F5DC"/>
<stop offset="1" stop-color="#00B16D"/>
</radialGradient>
<linearGradient id="paint4_linear_439_1751" x1="58.9807" y1="39.0774" x2="110.135" y2="120.006" gradientUnits="userSpaceOnUse">
<stop stop-color="#00B16D"/>
<stop offset="1" stop-color="#005832"/>
</linearGradient>
<linearGradient id="paint5_linear_439_1751" x1="42.2807" y1="69.8726" x2="66.6482" y2="132.624" gradientUnits="userSpaceOnUse">
<stop stop-color="white"/>
<stop offset="1" stop-color="#C1F5DC"/>
</linearGradient>
<linearGradient id="paint6_linear_439_1751" x1="53.6215" y1="39.0784" x2="76.2351" y2="110.668" gradientUnits="userSpaceOnUse">
<stop stop-color="#C1F5DC"/>
<stop offset="1" stop-color="#69CEA2"/>
</linearGradient>
<linearGradient id="paint7_linear_439_1751" x1="33.3165" y1="-6.07949" x2="74.0154" y2="92.6663" gradientUnits="userSpaceOnUse">
<stop stop-color="#DCFFED"/>
<stop offset="1" stop-color="#69CEA2"/>
</linearGradient>
<linearGradient id="paint8_linear_439_1751" x1="148.232" y1="28.0094" x2="59.6603" y2="142.065" gradientUnits="userSpaceOnUse">
<stop stop-color="#00B16D"/>
<stop offset="1" stop-color="#005832"/>
</linearGradient>
<radialGradient id="paint9_radial_439_1751" cx="0" cy="0" r="1" gradientTransform="matrix(55.8171 53.1846 -120.856 126.84 8.14235 30.0036)" gradientUnits="userSpaceOnUse">
<stop stop-color="#005832"/>
<stop offset="1" stop-color="#C1F5DC" stop-opacity="0"/>
</radialGradient>
<radialGradient id="paint10_radial_439_1751" cx="0" cy="0" r="1" gradientTransform="matrix(-51.7446 44.3524 100.786 117.585 121.052 38.8358)" gradientUnits="userSpaceOnUse">
<stop stop-color="#003A21"/>
<stop offset="1" stop-color="#005832" stop-opacity="0"/>
</radialGradient>
<radialGradient id="paint11_radial_439_1751" cx="0" cy="0" r="1" gradientTransform="matrix(-29.635 20.4519 46.4746 67.343 100.548 99.5499)" gradientUnits="userSpaceOnUse">
<stop stop-color="#DCFFED"/>
<stop offset="1" stop-color="#C1F5DC" stop-opacity="0"/>
</radialGradient>
</defs>
</svg>
