<svg width="104" height="135" viewBox="0 0 104 135" fill="none" xmlns="http://www.w3.org/2000/svg">
<path d="M76.4241 35.8673C125.367 89.4852 100.922 134.486 50.3101 134.803C-0.30172 135.119 -14.4335 92.788 15.7244 51.8842C15.7244 59.7702 21.2266 71.5483 26.9674 71.5483C23.8 59.7272 18.682 30.8893 50.3902 0C50.3902 24.4817 69.4853 36.1227 69.4853 57.2284C75.9721 52.456 76.4241 46.55 76.4241 35.8673Z" fill="url(#paint0_radial_10978_12849)"/>
<path d="M73.9803 69.5472C73.8852 74.7763 78.0652 81.19 79.5164 84.0893C94.3935 113.81 80.2832 129.648 64.4145 133.47C58.8709 134.806 52.3329 135.217 45.0001 134.686C9.27958 132.1 16.2489 98.2104 22.0538 80.332C25.0413 84.0709 26.6844 89.0027 35.648 92.1399C31.7641 80.4837 41.9291 58.4958 47.4569 52.6676C52.6031 65.594 63.4091 72.7236 65.9936 85.2496C67.6118 83.1964 69.9872 74.6812 73.9803 69.5472Z" fill="url(#paint1_linear_10978_12849)"/>
<path d="M41.7302 104.53C42.9474 105.821 44.067 108.318 44.4573 111.541C47.8433 105.108 44.8859 95.146 45.1981 92.7572C59.7351 105.147 83.5643 134.251 53.2969 134.879C28.9055 135.386 36.8269 120.213 41.7302 104.53Z" fill="url(#paint2_linear_10978_12849)"/>
<defs>
<radialGradient id="paint0_radial_10978_12849" cx="0" cy="0" r="1" gradientUnits="userSpaceOnUse" gradientTransform="translate(49.8503 122.188) rotate(-91.136) scale(112.525 85.9919)">
<stop stop-color="#FF1F69"/>
<stop offset="1" stop-color="#F59B2E"/>
</radialGradient>
<linearGradient id="paint1_linear_10978_12849" x1="58.8915" y1="55.7081" x2="48.0366" y2="135.042" gradientUnits="userSpaceOnUse">
<stop stop-color="#FFD37A"/>
<stop offset="1" stop-color="#FFB114"/>
</linearGradient>
<linearGradient id="paint2_linear_10978_12849" x1="52.2195" y1="92.483" x2="52.2195" y2="134.993" gradientUnits="userSpaceOnUse">
<stop stop-color="#FFF5E0"/>
<stop offset="1" stop-color="#FFE4AD"/>
</linearGradient>
</defs>
</svg>
