<svg width="112" height="75" viewBox="0 0 112 75" fill="none" xmlns="http://www.w3.org/2000/svg">
<path d="M0 49.625C0 49.9581 0.023114 50.2916 0.0124087 50.6245C0.00415799 50.8811 0 51.1387 0 51.3973C0 64.1013 10.0339 74.4375 22.3664 74.4375C34.6988 74.4375 44.7327 64.1013 44.7327 51.3973C44.7327 38.6933 34.6988 28.3571 22.3664 28.3571C18.7046 28.3571 14.9018 24.192 17.2875 21.4225C24.8573 12.6352 35.8984 7.08929 48.1737 7.08929C50.0766 7.08929 51.6147 5.50483 51.6147 3.54464C51.6147 1.58446 50.0766 0 48.1737 0C21.6093 0 0 22.2604 0 49.625Z" fill="white" style="mix-blend-mode:soft-light"/>
<path d="M60.0416 49.625C60.0416 49.9581 60.0647 50.2916 60.054 50.6245C60.0457 50.8811 60.0416 51.1387 60.0416 51.3973C60.0416 64.1013 70.0755 74.4375 82.4079 74.4375C94.7404 74.4375 104.774 64.1013 104.774 51.3973C104.774 38.6933 94.7404 28.3571 82.4079 28.3571C78.7461 28.3571 74.9433 24.192 77.329 21.4225C84.8989 12.6352 95.94 7.08929 108.215 7.08929C110.118 7.08929 111.656 5.50483 111.656 3.54464C111.656 1.58446 110.118 0 108.215 0C81.6509 0 60.0416 22.2604 60.0416 49.625Z" fill="white" style="mix-blend-mode:soft-light"/>
</svg>
