<svg width="240" height="240" viewBox="0 0 240 240" fill="none" xmlns="http://www.w3.org/2000/svg">
<path d="M22.0062 222.852C22.8093 232.199 30.4961 239.371 39.7112 239.371L108.084 239.369L96.7434 107.371L12.0845 107.374L22.0062 222.852Z" fill="#DEFCFD"/>
<path d="M55.7745 161.515L227.916 161.52L219.408 66.8221C217.511 45.7167 199.364 29.5233 177.608 29.5228L43.9155 29.5195L55.7745 161.515Z" fill="url(#paint0_radial_4268_12182)"/>
<path d="M94.0503 48.6328C119.955 45.7593 152.433 47.1324 176.597 47.1328C182.12 47.1329 186.597 51.6101 186.597 57.1328C186.597 62.6556 182.12 67.1328 176.597 67.1328C151 67.1324 120.694 65.7998 96.2554 68.5107C84.0201 69.868 74.5051 72.1392 68.3149 75.4023C62.5503 78.4413 61.0298 81.4558 61.0298 84.8838C61.0299 85.763 61.3015 86.959 63.1089 88.7803C65.0868 90.7732 68.4172 92.9717 73.396 95.2891C83.4198 99.9547 97.0926 103.781 112.139 108.076C126.652 112.219 142.419 116.798 154.796 122.935C166.679 128.826 179.103 137.944 180.672 152.919C181.966 165.27 178.178 175.668 170.04 183.58C162.381 191.025 151.546 195.621 139.692 198.651C115.999 204.708 83.3956 205.632 49.2729 205.632C43.7503 205.632 39.273 201.155 39.2729 195.632C39.273 190.109 43.7504 185.632 49.2729 185.632C83.7672 185.632 113.869 184.609 134.739 179.274C145.166 176.609 152.077 173.149 156.098 169.239C159.64 165.796 161.466 161.541 160.781 155.003C160.371 151.089 156.843 146.273 145.913 140.854C135.476 135.679 121.565 131.566 106.649 127.308C92.2664 123.202 76.7563 118.915 64.9556 113.422C59.0227 110.66 53.2795 107.268 48.9126 102.868C44.3756 98.2964 41.0299 92.2953 41.0298 84.8838C41.0298 71.7299 48.9854 62.9834 58.9888 57.71C68.567 52.6608 81.1143 50.0678 94.0503 48.6328Z" fill="url(#paint1_radial_4268_12182)"/>
<path d="M94.0503 48.6328C119.955 45.7593 152.433 47.1324 176.597 47.1328C182.12 47.1329 186.597 51.6101 186.597 57.1328C186.597 62.6556 182.12 67.1328 176.597 67.1328C151 67.1324 120.694 65.7998 96.2554 68.5107C84.0201 69.868 74.5051 72.1392 68.3149 75.4023C62.5503 78.4413 61.0298 81.4558 61.0298 84.8838C61.0299 85.763 61.3015 86.959 63.1089 88.7803C65.0868 90.7732 68.4172 92.9717 73.396 95.2891C83.4198 99.9547 97.0926 103.781 112.139 108.076C126.652 112.219 142.419 116.798 154.796 122.935C166.679 128.826 179.103 137.944 180.672 152.919C181.966 165.27 178.178 175.668 170.04 183.58C162.381 191.025 151.546 195.621 139.692 198.651C115.999 204.708 83.3956 205.632 49.2729 205.632C43.7503 205.632 39.273 201.155 39.2729 195.632C39.273 190.109 43.7504 185.632 49.2729 185.632C83.7672 185.632 113.869 184.609 134.739 179.274C145.166 176.609 152.077 173.149 156.098 169.239C159.64 165.796 161.466 161.541 160.781 155.003C160.371 151.089 156.843 146.273 145.913 140.854C135.476 135.679 121.565 131.566 106.649 127.308C92.2664 123.202 76.7563 118.915 64.9556 113.422C59.0227 110.66 53.2795 107.268 48.9126 102.868C44.3756 98.2964 41.0299 92.2953 41.0298 84.8838C41.0298 71.7299 48.9854 62.9834 58.9888 57.71C68.567 52.6608 81.1143 50.0678 94.0503 48.6328Z" fill="url(#paint2_radial_4268_12182)"/>
<path d="M94.0503 48.6328C119.955 45.7593 152.433 47.1324 176.597 47.1328C182.12 47.1329 186.597 51.6101 186.597 57.1328C186.597 62.6556 182.12 67.1328 176.597 67.1328C151 67.1324 120.694 65.7998 96.2554 68.5107C84.0201 69.868 74.5051 72.1392 68.3149 75.4023C62.5503 78.4413 61.0298 81.4558 61.0298 84.8838C61.0299 85.763 61.3015 86.959 63.1089 88.7803C65.0868 90.7732 68.4172 92.9717 73.396 95.2891C83.4198 99.9547 97.0926 103.781 112.139 108.076C126.652 112.219 142.419 116.798 154.796 122.935C166.679 128.826 179.103 137.944 180.672 152.919C181.966 165.27 178.178 175.668 170.04 183.58C162.381 191.025 151.546 195.621 139.692 198.651C115.999 204.708 83.3956 205.632 49.2729 205.632C43.7503 205.632 39.273 201.155 39.2729 195.632C39.273 190.109 43.7504 185.632 49.2729 185.632C83.7672 185.632 113.869 184.609 134.739 179.274C145.166 176.609 152.077 173.149 156.098 169.239C159.64 165.796 161.466 161.541 160.781 155.003C160.371 151.089 156.843 146.273 145.913 140.854C135.476 135.679 121.565 131.566 106.649 127.308C92.2664 123.202 76.7563 118.915 64.9556 113.422C59.0227 110.66 53.2795 107.268 48.9126 102.868C44.3756 98.2964 41.0299 92.2953 41.0298 84.8838C41.0298 71.7299 48.9854 62.9834 58.9888 57.71C68.567 52.6608 81.1143 50.0678 94.0503 48.6328Z" fill="url(#paint3_radial_4268_12182)"/>
<path d="M82.9341 69.5996C92.2508 69.5996 100.327 73.2034 104.304 78.4688H106.934V85.8896L106.926 86.3096C106.598 95.1121 95.982 102.18 82.9341 102.18C69.8861 102.18 59.2701 95.1121 58.9419 86.3096L58.9341 85.8896V78.4688H61.564C65.5409 73.2034 73.6173 69.5996 82.9341 69.5996Z" fill="url(#paint4_linear_4268_12182)"/>
<ellipse cx="82.9341" cy="78.4695" rx="24" ry="16.2898" fill="#E1E8F3"/>
<ellipse cx="82.9341" cy="78.4695" rx="24" ry="16.2898" fill="url(#paint5_radial_4268_12182)" fill-opacity="0.8"/>
<path d="M138.414 144.256C147.73 144.256 155.807 147.86 159.784 153.125H162.414V160.546L162.406 160.966C162.078 169.768 151.462 176.836 138.414 176.836C125.366 176.836 114.75 169.768 114.421 160.966L114.414 160.546V153.125H117.043C121.02 147.86 129.097 144.256 138.414 144.256Z" fill="url(#paint6_linear_4268_12182)"/>
<ellipse cx="138.414" cy="153.126" rx="24" ry="16.2898" fill="#E1E8F3"/>
<ellipse cx="138.414" cy="153.126" rx="24" ry="16.2898" fill="url(#paint7_radial_4268_12182)" fill-opacity="0.8"/>
<path d="M182.862 44.1895C192.179 44.1895 200.255 47.7932 204.232 53.0586H206.862V60.4795L206.854 60.8994C206.526 69.7019 195.91 76.7695 182.862 76.7695C169.814 76.7695 159.198 69.7019 158.87 60.8994L158.862 60.4795V53.0586H161.492C165.469 47.7932 173.545 44.1895 182.862 44.1895Z" fill="url(#paint8_linear_4268_12182)"/>
<ellipse cx="182.862" cy="53.0593" rx="24" ry="16.2898" fill="#E1E8F3"/>
<ellipse cx="182.862" cy="53.0593" rx="24" ry="16.2898" fill="url(#paint9_radial_4268_12182)" fill-opacity="0.8"/>
<path d="M138.414 108.016C151.668 108.016 162.414 118.695 162.414 131.869V134.519H162.265C160.939 146.445 150.767 155.723 138.414 155.723C126.06 155.723 115.888 146.445 114.562 134.519H114.414V131.408H114.418C114.665 118.447 125.314 108.016 138.414 108.016Z" fill="url(#paint10_radial_4268_12182)"/>
<path d="M138.414 108.016C151.668 108.016 162.414 118.695 162.414 131.869V134.519H162.265C160.939 146.445 150.767 155.723 138.414 155.723C126.06 155.723 115.888 146.445 114.562 134.519H114.414V131.408H114.418C114.665 118.447 125.314 108.016 138.414 108.016Z" fill="url(#paint11_radial_4268_12182)" fill-opacity="0.2"/>
<ellipse cx="138.414" cy="134.518" rx="24" ry="23.8534" fill="url(#paint12_radial_4268_12182)"/>
<ellipse cx="138.414" cy="134.518" rx="18.6667" ry="18.5527" fill="url(#paint13_radial_4268_12182)"/>
<path d="M157.08 134.518C157.08 138.187 155.985 141.774 153.934 144.825C151.883 147.876 148.968 150.254 145.557 151.658C142.146 153.062 138.393 153.43 134.772 152.714C131.151 151.998 127.825 150.231 125.214 147.636C122.604 145.042 120.826 141.736 120.106 138.137C119.385 134.538 119.755 130.808 121.168 127.418C122.581 124.028 124.973 121.13 128.043 119.092C131.113 117.053 134.722 115.965 138.414 115.965V134.518H157.08Z" fill="url(#paint14_radial_4268_12182)"/>
<path d="M157.066 133.855C157.074 134.075 157.08 134.296 157.08 134.518C157.08 144.764 148.723 153.07 138.414 153.07C128.105 153.07 119.747 144.764 119.747 134.518C119.747 134.296 119.752 134.075 119.76 133.855C120.11 143.795 128.328 151.746 138.414 151.746C148.5 151.746 156.715 143.795 157.066 133.855Z" fill="url(#paint15_radial_4268_12182)"/>
<path d="M138.413 94.3711C142.463 94.3711 145.747 97.3377 145.747 100.997C145.747 104.656 142.463 107.623 138.413 107.623C134.363 107.623 131.08 104.656 131.08 100.997C131.08 97.3378 134.363 94.3713 138.413 94.3711ZM138.413 96.7803C135.836 96.7804 133.747 98.6676 133.747 100.996C133.747 103.325 135.836 105.213 138.413 105.213C140.991 105.213 143.08 103.325 143.08 100.996C143.08 98.6675 140.99 96.7803 138.413 96.7803Z" fill="url(#paint16_radial_4268_12182)"/>
<path d="M138.414 102.699C139.886 102.699 141.079 103.352 141.08 104.156V108.53C141.08 109.335 139.887 109.987 138.414 109.987C136.941 109.987 135.747 109.335 135.747 108.53V104.156C135.747 103.352 136.941 102.699 138.414 102.699Z" fill="url(#paint17_linear_4268_12182)"/>
<ellipse cx="138.414" cy="103.695" rx="2.33333" ry="0.993893" fill="url(#paint18_radial_4268_12182)"/>
<path d="M82.9341 32.4297C96.1889 32.4297 106.934 43.1093 106.934 56.2832V58.9326H106.786C105.459 70.8594 95.2877 80.1367 82.9341 80.1367C70.5805 80.1367 60.4089 70.8594 59.0825 58.9326H58.9341V55.8223H58.939C59.1859 42.8609 69.8341 32.4297 82.9341 32.4297Z" fill="url(#paint19_radial_4268_12182)"/>
<path d="M82.9341 32.4297C96.1889 32.4297 106.934 43.1093 106.934 56.2832V58.9326H106.786C105.459 70.8594 95.2877 80.1367 82.9341 80.1367C70.5805 80.1367 60.4089 70.8594 59.0825 58.9326H58.9341V55.8223H58.939C59.1859 42.8609 69.8341 32.4297 82.9341 32.4297Z" fill="url(#paint20_radial_4268_12182)" fill-opacity="0.2"/>
<ellipse cx="82.9341" cy="58.9316" rx="24" ry="23.8534" fill="url(#paint21_radial_4268_12182)"/>
<ellipse cx="82.9341" cy="58.9316" rx="18.6667" ry="18.5527" fill="url(#paint22_radial_4268_12182)"/>
<path d="M101.601 58.9316C101.601 62.601 100.506 66.1879 98.4548 69.2389C96.4037 72.2899 93.4884 74.6678 90.0775 76.072C86.6666 77.4762 82.9134 77.8436 79.2924 77.1278C75.6714 76.4119 72.3453 74.6449 69.7347 72.0503C67.1242 69.4557 65.3463 66.1499 64.6261 62.551C63.9058 58.9522 64.2755 55.2218 65.6883 51.8318C67.1011 48.4417 69.4937 45.5442 72.5634 43.5056C75.6331 41.467 79.2421 40.3789 82.9341 40.3789V58.9316H101.601Z" fill="url(#paint23_radial_4268_12182)"/>
<path d="M101.587 58.2695C101.594 58.4893 101.6 58.71 101.6 58.9316C101.6 69.1779 93.2435 77.4842 82.9344 77.4844C72.6251 77.4844 64.2674 69.178 64.2674 58.9316C64.2674 58.71 64.2723 58.4893 64.2801 58.2695C64.6309 68.2092 72.8481 76.1602 82.9344 76.1602C93.0205 76.16 101.236 68.2091 101.587 58.2695Z" fill="url(#paint24_radial_4268_12182)"/>
<path d="M82.9338 18.7852C86.9839 18.7852 90.2678 21.7517 90.2678 25.4111C90.2677 29.0705 86.9839 32.0371 82.9338 32.0371C78.8838 32.037 75.6008 29.0704 75.6008 25.4111C75.6008 21.7518 78.8838 18.7853 82.9338 18.7852ZM82.9338 21.1943C80.3567 21.1945 78.268 23.0817 78.2678 25.4102C78.2678 27.7388 80.3566 29.6268 82.9338 29.627C85.5111 29.627 87.6008 27.7389 87.6008 25.4102C87.6005 23.0816 85.511 21.1943 82.9338 21.1943Z" fill="url(#paint25_radial_4268_12182)"/>
<path d="M82.9344 27.1133C84.4067 27.1134 85.5998 27.7658 85.6004 28.5703V32.9443C85.6004 33.7491 84.407 34.4013 82.9344 34.4014C81.4616 34.4014 80.2674 33.7492 80.2674 32.9443V28.5703C80.268 27.7657 81.462 27.1133 82.9344 27.1133Z" fill="url(#paint26_linear_4268_12182)"/>
<ellipse cx="82.9341" cy="28.1091" rx="2.33333" ry="0.993893" fill="url(#paint27_radial_4268_12182)"/>
<g clip-path="url(#clip0_4268_12182)">
<path d="M183.101 0.628906C194.043 0.629168 202.931 9.41709 203.096 20.3203H203.098L203.097 20.4023C203.098 20.4778 203.101 20.5533 203.101 20.6289C203.101 20.7127 203.098 20.7963 203.097 20.8799L203.096 23.0508H202.955C201.759 32.9541 193.327 40.6287 183.101 40.6289C172.875 40.6289 164.442 32.9543 163.247 23.0508H163.105L163.103 20.833C163.102 20.765 163.101 20.697 163.101 20.6289C163.101 20.5686 163.102 20.5084 163.103 20.4482V20.3223L163.104 20.3213C163.268 9.41745 172.158 0.628906 183.101 0.628906Z" fill="url(#paint28_radial_4268_12182)"/>
<path d="M174.603 38.6289H183.101V50.6289L174.603 54.6289V38.6289Z" fill="#6A3800"/>
<path d="M191.598 38.6289H183.101V50.6289L191.598 54.6289V38.6289Z" fill="#482500"/>
<g style="mix-blend-mode:multiply">
<path d="M191.599 38.6289V42.7363C189.019 43.949 186.14 44.6289 183.101 44.6289C180.062 44.6289 177.182 43.949 174.603 42.7363V38.6289H191.599Z" fill="url(#paint29_radial_4268_12182)"/>
</g>
<circle cx="183.101" cy="22.6289" r="20" fill="url(#paint30_radial_4268_12182)"/>
<circle cx="183.101" cy="22.6289" r="20" fill="url(#paint31_radial_4268_12182)" style="mix-blend-mode:multiply"/>
<circle cx="183.101" cy="22.6289" r="16" fill="url(#paint32_linear_4268_12182)"/>
<path d="M182.361 12.4166C182.593 11.8559 182.709 11.5756 182.873 11.4918C183.016 11.4191 183.185 11.4191 183.328 11.4918C183.492 11.5756 183.608 11.8559 183.84 12.4166L186.112 17.9104C186.18 18.0747 186.214 18.1569 186.269 18.2193C186.317 18.2745 186.377 18.3183 186.445 18.3476C186.521 18.3807 186.61 18.3878 186.787 18.4021L192.692 18.8783C193.292 18.9266 193.591 18.9508 193.721 19.0808C193.834 19.1937 193.886 19.3537 193.862 19.5114C193.833 19.6931 193.606 19.8893 193.15 20.2818L188.644 24.1639C188.51 24.2792 188.443 24.3369 188.401 24.4081C188.364 24.4712 188.341 24.5416 188.334 24.6144C188.327 24.6967 188.347 24.7826 188.388 24.9546L189.763 30.7541C189.903 31.3423 189.973 31.6365 189.889 31.8005C189.816 31.9428 189.679 32.0417 189.521 32.0665C189.339 32.095 189.081 31.9368 188.566 31.6203L183.519 28.52C183.367 28.4266 183.291 28.3799 183.21 28.3617C183.138 28.3456 183.063 28.3456 182.991 28.3617C182.91 28.3799 182.834 28.4266 182.682 28.52L177.635 31.6203C177.12 31.9368 176.862 32.095 176.68 32.0665C176.522 32.0417 176.386 31.9428 176.313 31.8005C176.229 31.6365 176.298 31.3423 176.438 30.7541L177.813 24.9546C177.854 24.7826 177.875 24.6967 177.867 24.6144C177.86 24.5416 177.837 24.4712 177.8 24.4081C177.758 24.3369 177.691 24.2792 177.557 24.1639L173.051 20.2818C172.596 19.8893 172.368 19.6931 172.339 19.5114C172.315 19.3537 172.367 19.1937 172.48 19.0808C172.61 18.9508 172.91 18.9266 173.509 18.8783L179.414 18.4021C179.592 18.3878 179.68 18.3807 179.756 18.3476C179.824 18.3183 179.884 18.2745 179.933 18.2193C179.987 18.1569 180.021 18.0747 180.089 17.9104L182.361 12.4166Z" fill="#FFF3CB"/>
<g style="mix-blend-mode:multiply">
<path d="M199.068 21.6289C199.089 21.9597 199.101 22.293 199.101 22.6289C199.101 31.4655 191.937 38.6289 183.101 38.6289C174.264 38.6289 167.101 31.4655 167.101 22.6289C167.101 22.293 167.111 21.9596 167.132 21.6289C167.649 29.9992 174.6 36.6279 183.101 36.6279C191.601 36.6279 198.552 29.9991 199.068 21.6289Z" fill="url(#paint33_radial_4268_12182)"/>
</g>
</g>
<path d="M37.9155 181.369C47.2323 181.369 55.3087 184.973 59.2856 190.238H61.9155V197.659L61.9077 198.079C61.5795 206.882 50.9635 213.949 37.9155 213.949C24.8676 213.949 14.2515 206.882 13.9233 198.079L13.9155 197.659V190.238H16.5454C20.5223 184.973 28.5988 181.369 37.9155 181.369Z" fill="url(#paint34_linear_4268_12182)"/>
<ellipse cx="37.9155" cy="190.239" rx="24" ry="16.2898" fill="#E1E8F3"/>
<ellipse cx="37.9155" cy="190.239" rx="24" ry="16.2898" fill="url(#paint35_radial_4268_12182)" fill-opacity="0.8"/>
<path d="M37.9155 145.512C51.1704 145.512 61.9155 156.191 61.9155 169.365V172.015H61.7671C60.4407 183.941 50.2691 193.219 37.9155 193.219C25.5619 193.219 15.3903 183.941 14.064 172.015H13.9155V168.904H13.9204C14.1674 155.943 24.8155 145.512 37.9155 145.512Z" fill="url(#paint36_radial_4268_12182)"/>
<path d="M37.9155 145.512C51.1704 145.512 61.9155 156.191 61.9155 169.365V172.015H61.7671C60.4407 183.941 50.2691 193.219 37.9155 193.219C25.5619 193.219 15.3903 183.941 14.064 172.015H13.9155V168.904H13.9204C14.1674 155.943 24.8155 145.512 37.9155 145.512Z" fill="url(#paint37_radial_4268_12182)" fill-opacity="0.2"/>
<ellipse cx="37.9155" cy="172.014" rx="24" ry="23.8534" fill="url(#paint38_radial_4268_12182)"/>
<ellipse cx="37.9155" cy="172.014" rx="18.6667" ry="18.5527" fill="url(#paint39_radial_4268_12182)"/>
<path d="M56.5822 172.014C56.5822 175.683 55.4874 179.27 53.4363 182.321C51.3852 185.372 48.4698 187.75 45.0589 189.154C41.648 190.558 37.8948 190.926 34.2738 190.21C30.6528 189.494 27.3268 187.727 24.7162 185.132C22.1056 182.538 20.3278 179.232 19.6075 175.633C18.8873 172.034 19.2569 168.304 20.6698 164.914C22.0826 161.524 24.4751 158.626 27.5449 156.588C30.6146 154.549 34.2236 153.461 37.9155 153.461V172.014H56.5822Z" fill="url(#paint40_radial_4268_12182)"/>
<path d="M56.5682 171.352C56.5759 171.571 56.5818 171.792 56.5818 172.014C56.5818 182.26 48.225 190.566 37.9158 190.566C27.6065 190.566 19.2489 182.26 19.2488 172.014C19.2488 171.792 19.2538 171.571 19.2615 171.352C19.6124 181.291 27.8295 189.242 37.9158 189.242C48.002 189.242 56.2173 181.291 56.5682 171.352Z" fill="url(#paint41_radial_4268_12182)"/>
<path d="M37.9152 131.867C41.9653 131.867 45.2492 134.834 45.2492 138.493C45.2492 142.153 41.9653 145.119 37.9152 145.119C33.8653 145.119 30.5822 142.152 30.5822 138.493C30.5822 134.834 33.8653 131.867 37.9152 131.867ZM37.9152 134.276C35.3382 134.277 33.2494 136.164 33.2492 138.492C33.2492 140.821 35.338 142.709 37.9152 142.709C40.4926 142.709 42.5822 140.821 42.5822 138.492C42.582 136.164 40.4924 134.276 37.9152 134.276Z" fill="url(#paint42_radial_4268_12182)"/>
<path d="M37.9158 140.195C39.3881 140.195 40.5813 140.848 40.5818 141.652V146.026C40.5818 146.831 39.3885 147.483 37.9158 147.483C36.4431 147.483 35.2488 146.831 35.2488 146.026V141.652C35.2494 140.848 36.4434 140.195 37.9158 140.195Z" fill="url(#paint43_linear_4268_12182)"/>
<ellipse cx="37.9155" cy="141.191" rx="2.33333" ry="0.993893" fill="url(#paint44_radial_4268_12182)"/>
<defs>
<radialGradient id="paint0_radial_4268_12182" cx="0" cy="0" r="1" gradientTransform="matrix(251.285 -132 -265.518 -478.797 53.279 161.52)" gradientUnits="userSpaceOnUse">
<stop stop-color="#C4F2F3"/>
<stop offset="1" stop-color="#005355"/>
</radialGradient>
<radialGradient id="paint1_radial_4268_12182" cx="0" cy="0" r="1" gradientTransform="matrix(55.7128 -9.8667 34.4127 191.368 9.26124 81.358)" gradientUnits="userSpaceOnUse">
<stop offset="0.0218031" stop-color="#00A8AC"/>
<stop offset="0.720742" stop-color="#DEFCFD"/>
</radialGradient>
<radialGradient id="paint2_radial_4268_12182" cx="0" cy="0" r="1" gradientTransform="matrix(30.1759 -97.4376 331.667 102.204 112.935 214.332)" gradientUnits="userSpaceOnUse">
<stop offset="0.0218031" stop-color="#00A8AC"/>
<stop offset="1" stop-color="#C4F2F3" stop-opacity="0"/>
</radialGradient>
<radialGradient id="paint3_radial_4268_12182" cx="0" cy="0" r="1" gradientTransform="matrix(-82.7901 48.9489 -166.941 -281.452 166.855 39.3939)" gradientUnits="userSpaceOnUse">
<stop offset="0.0218031" stop-color="#6FC9CA"/>
<stop offset="1" stop-color="#C4F2F3" stop-opacity="0"/>
</radialGradient>
<linearGradient id="paint4_linear_4268_12182" x1="61.0477" y1="73.8407" x2="97.2574" y2="81.1434" gradientUnits="userSpaceOnUse">
<stop stop-color="#ACB8CC"/>
<stop offset="1" stop-color="#3B4556"/>
</linearGradient>
<radialGradient id="paint5_radial_4268_12182" cx="0" cy="0" r="1" gradientUnits="userSpaceOnUse" gradientTransform="translate(83.7503 82.2364) rotate(90) scale(14.688 38.9857)">
<stop stop-color="#7D91AF"/>
<stop offset="0.668831" stop-color="#E1E8F3" stop-opacity="0"/>
</radialGradient>
<linearGradient id="paint6_linear_4268_12182" x1="116.527" y1="148.497" x2="152.737" y2="155.8" gradientUnits="userSpaceOnUse">
<stop stop-color="#ACB8CC"/>
<stop offset="1" stop-color="#3B4556"/>
</linearGradient>
<radialGradient id="paint7_radial_4268_12182" cx="0" cy="0" r="1" gradientUnits="userSpaceOnUse" gradientTransform="translate(138.414 158.27) rotate(90) scale(12.8769 44.9695)">
<stop stop-color="#7D91AF"/>
<stop offset="0.668831" stop-color="#E1E8F3" stop-opacity="0"/>
</radialGradient>
<linearGradient id="paint8_linear_4268_12182" x1="160.975" y1="48.4306" x2="197.185" y2="55.7332" gradientUnits="userSpaceOnUse">
<stop stop-color="#ACB8CC"/>
<stop offset="1" stop-color="#3B4556"/>
</linearGradient>
<radialGradient id="paint9_radial_4268_12182" cx="0" cy="0" r="1" gradientUnits="userSpaceOnUse" gradientTransform="translate(182.862 52.3198) rotate(90) scale(18.7605 28.8669)">
<stop stop-color="#7D91AF"/>
<stop offset="0.668831" stop-color="#E1E8F3" stop-opacity="0"/>
</radialGradient>
<radialGradient id="paint10_radial_4268_12182" cx="0" cy="0" r="1" gradientTransform="matrix(-36.0878 -23.8534 24.7181 -30.7723 162.414 131.869)" gradientUnits="userSpaceOnUse">
<stop stop-color="#313B4A"/>
<stop offset="1" stop-color="#E1E8F3"/>
</radialGradient>
<radialGradient id="paint11_radial_4268_12182" cx="0" cy="0" r="1" gradientTransform="matrix(3.86216 5.42695 -8.46106 5.94811 123.7 113.94)" gradientUnits="userSpaceOnUse">
<stop stop-color="white"/>
<stop offset="1" stop-color="white" stop-opacity="0"/>
</radialGradient>
<radialGradient id="paint12_radial_4268_12182" cx="0" cy="0" r="1" gradientTransform="matrix(37.839 35.1135 -72.1905 76.8468 121.854 120.709)" gradientUnits="userSpaceOnUse">
<stop stop-color="#F8FCFF"/>
<stop offset="0.919058" stop-color="#7D91AF"/>
</radialGradient>
<radialGradient id="paint13_radial_4268_12182" cx="0" cy="0" r="1" gradientTransform="matrix(-29.5324 -58.8242 80.1539 -87.2951 134.661 170.681)" gradientUnits="userSpaceOnUse">
<stop stop-color="#003739"/>
<stop offset="0.313329" stop-color="#005355"/>
<stop offset="0.869232" stop-color="#DEFCFD"/>
</radialGradient>
<radialGradient id="paint14_radial_4268_12182" cx="0" cy="0" r="1" gradientTransform="matrix(-27.2589 -28.8986 29.8873 -27.8482 150.7 146.62)" gradientUnits="userSpaceOnUse">
<stop offset="0.151156" stop-color="#F0F5FD"/>
<stop offset="1" stop-color="#ACB8CC"/>
</radialGradient>
<radialGradient id="paint15_radial_4268_12182" cx="0" cy="0" r="1" gradientTransform="matrix(-27.6775 -27.084 11.1623 -11.2678 151.225 153.07)" gradientUnits="userSpaceOnUse">
<stop stop-color="white"/>
<stop offset="1" stop-color="#3B4556"/>
</radialGradient>
<radialGradient id="paint16_radial_4268_12182" cx="0" cy="0" r="1" gradientTransform="matrix(-14.5087 -10.4961 12.0647 -11.4372 143.669 107.227)" gradientUnits="userSpaceOnUse">
<stop stop-color="#7D91AF"/>
<stop offset="1" stop-color="#F8FCFF"/>
</radialGradient>
<linearGradient id="paint17_linear_4268_12182" x1="141.624" y1="111.518" x2="131.932" y2="103.902" gradientUnits="userSpaceOnUse">
<stop stop-color="#ACB8CC"/>
<stop offset="0.806818" stop-color="#F8FCFF"/>
</linearGradient>
<radialGradient id="paint18_radial_4268_12182" cx="0" cy="0" r="1" gradientTransform="matrix(-4.82096 -0.993893 4.37206 -2.37423 140.901 103.695)" gradientUnits="userSpaceOnUse">
<stop stop-color="#ACB8CC"/>
<stop offset="1" stop-color="#F0F5FD"/>
</radialGradient>
<radialGradient id="paint19_radial_4268_12182" cx="0" cy="0" r="1" gradientTransform="matrix(-36.0878 -23.8534 24.7181 -30.7723 106.934 56.2831)" gradientUnits="userSpaceOnUse">
<stop stop-color="#313B4A"/>
<stop offset="1" stop-color="#E1E8F3"/>
</radialGradient>
<radialGradient id="paint20_radial_4268_12182" cx="0" cy="0" r="1" gradientTransform="matrix(3.86216 5.42695 -8.46106 5.94811 68.2206 38.3538)" gradientUnits="userSpaceOnUse">
<stop stop-color="white"/>
<stop offset="1" stop-color="white" stop-opacity="0"/>
</radialGradient>
<radialGradient id="paint21_radial_4268_12182" cx="0" cy="0" r="1" gradientTransform="matrix(37.839 35.1135 -72.1905 76.8468 66.3746 45.1235)" gradientUnits="userSpaceOnUse">
<stop stop-color="#F8FCFF"/>
<stop offset="0.919058" stop-color="#7D91AF"/>
</radialGradient>
<radialGradient id="paint22_radial_4268_12182" cx="0" cy="0" r="1" gradientTransform="matrix(-29.5324 -58.8242 80.1539 -87.2951 79.1817 95.0949)" gradientUnits="userSpaceOnUse">
<stop stop-color="#003739"/>
<stop offset="0.313329" stop-color="#005355"/>
<stop offset="0.869232" stop-color="#DEFCFD"/>
</radialGradient>
<radialGradient id="paint23_radial_4268_12182" cx="0" cy="0" r="1" gradientTransform="matrix(-27.2589 -28.8986 29.8873 -27.8482 95.2204 71.0344)" gradientUnits="userSpaceOnUse">
<stop offset="0.151156" stop-color="#F0F5FD"/>
<stop offset="1" stop-color="#ACB8CC"/>
</radialGradient>
<radialGradient id="paint24_radial_4268_12182" cx="0" cy="0" r="1" gradientTransform="matrix(-27.6775 -27.084 11.1623 -11.2678 95.7452 77.4844)" gradientUnits="userSpaceOnUse">
<stop stop-color="white"/>
<stop offset="1" stop-color="#3B4556"/>
</radialGradient>
<radialGradient id="paint25_radial_4268_12182" cx="0" cy="0" r="1" gradientTransform="matrix(-14.5087 -10.4961 12.0647 -11.4372 88.1896 31.6407)" gradientUnits="userSpaceOnUse">
<stop stop-color="#7D91AF"/>
<stop offset="1" stop-color="#F8FCFF"/>
</radialGradient>
<linearGradient id="paint26_linear_4268_12182" x1="86.1449" y1="35.9325" x2="76.4525" y2="28.3162" gradientUnits="userSpaceOnUse">
<stop stop-color="#ACB8CC"/>
<stop offset="0.806818" stop-color="#F8FCFF"/>
</linearGradient>
<radialGradient id="paint27_radial_4268_12182" cx="0" cy="0" r="1" gradientTransform="matrix(-4.82096 -0.993893 4.37206 -2.37423 85.4217 28.1091)" gradientUnits="userSpaceOnUse">
<stop stop-color="#ACB8CC"/>
<stop offset="1" stop-color="#F0F5FD"/>
</radialGradient>
<radialGradient id="paint28_radial_4268_12182" cx="0" cy="0" r="1" gradientTransform="matrix(-30.0739 -20 20.5989 -25.8011 203.101 20.6289)" gradientUnits="userSpaceOnUse">
<stop stop-color="#6A3800"/>
<stop offset="1" stop-color="#FFD100"/>
</radialGradient>
<radialGradient id="paint29_radial_4268_12182" cx="0" cy="0" r="1" gradientUnits="userSpaceOnUse" gradientTransform="translate(191.889 39.9662) rotate(177.487) scale(21.1981 5.29952)">
<stop stop-color="#BDB6B1"/>
<stop offset="1" stop-color="#F8F4F3"/>
</radialGradient>
<radialGradient id="paint30_radial_4268_12182" cx="0" cy="0" r="1" gradientUnits="userSpaceOnUse" gradientTransform="translate(205.892 41.4566) rotate(-142.624) scale(52.3767)">
<stop stop-color="#FFD100"/>
<stop offset="1" stop-color="#FFF3CB"/>
</radialGradient>
<radialGradient id="paint31_radial_4268_12182" cx="0" cy="0" r="1" gradientUnits="userSpaceOnUse" gradientTransform="translate(201.059 41.4424) rotate(-140.945) scale(52.0966)">
<stop stop-color="#FFA900"/>
<stop offset="1" stop-color="#FFE4A7" stop-opacity="0"/>
</radialGradient>
<linearGradient id="paint32_linear_4268_12182" x1="168.613" y1="9.51329" x2="196.965" y2="33.0965" gradientUnits="userSpaceOnUse">
<stop stop-color="#FFA900"/>
<stop offset="1" stop-color="#FFE4A7"/>
</linearGradient>
<radialGradient id="paint33_radial_4268_12182" cx="0" cy="0" r="1" gradientUnits="userSpaceOnUse" gradientTransform="translate(176.359 36.6786) rotate(-79.3478) scale(15.2076 51.8165)">
<stop stop-color="#6A3800"/>
<stop offset="0.755172" stop-color="#FFE4A7" stop-opacity="0"/>
</radialGradient>
<linearGradient id="paint34_linear_4268_12182" x1="16.0292" y1="185.61" x2="52.2388" y2="192.913" gradientUnits="userSpaceOnUse">
<stop stop-color="#ACB8CC"/>
<stop offset="1" stop-color="#3B4556"/>
</linearGradient>
<radialGradient id="paint35_radial_4268_12182" cx="0" cy="0" r="1" gradientUnits="userSpaceOnUse" gradientTransform="translate(37.9155 195.383) rotate(90) scale(12.8769 44.9695)">
<stop stop-color="#7D91AF"/>
<stop offset="0.668831" stop-color="#E1E8F3" stop-opacity="0"/>
</radialGradient>
<radialGradient id="paint36_radial_4268_12182" cx="0" cy="0" r="1" gradientTransform="matrix(-36.0878 -23.8534 24.7181 -30.7723 61.9155 169.365)" gradientUnits="userSpaceOnUse">
<stop stop-color="#313B4A"/>
<stop offset="1" stop-color="#E1E8F3"/>
</radialGradient>
<radialGradient id="paint37_radial_4268_12182" cx="0" cy="0" r="1" gradientTransform="matrix(3.86216 5.42695 -8.46106 5.94811 23.2021 151.436)" gradientUnits="userSpaceOnUse">
<stop stop-color="white"/>
<stop offset="1" stop-color="white" stop-opacity="0"/>
</radialGradient>
<radialGradient id="paint38_radial_4268_12182" cx="0" cy="0" r="1" gradientTransform="matrix(37.839 35.1135 -72.1905 76.8468 21.3561 158.205)" gradientUnits="userSpaceOnUse">
<stop stop-color="#F8FCFF"/>
<stop offset="0.919058" stop-color="#7D91AF"/>
</radialGradient>
<radialGradient id="paint39_radial_4268_12182" cx="0" cy="0" r="1" gradientTransform="matrix(-29.5324 -58.8242 80.1539 -87.2951 34.1632 208.177)" gradientUnits="userSpaceOnUse">
<stop stop-color="#003739"/>
<stop offset="0.313329" stop-color="#005355"/>
<stop offset="0.869232" stop-color="#DEFCFD"/>
</radialGradient>
<radialGradient id="paint40_radial_4268_12182" cx="0" cy="0" r="1" gradientTransform="matrix(-27.2589 -28.8986 29.8873 -27.8482 50.2018 184.116)" gradientUnits="userSpaceOnUse">
<stop offset="0.151156" stop-color="#F0F5FD"/>
<stop offset="1" stop-color="#ACB8CC"/>
</radialGradient>
<radialGradient id="paint41_radial_4268_12182" cx="0" cy="0" r="1" gradientTransform="matrix(-27.6775 -27.084 11.1623 -11.2678 50.7267 190.566)" gradientUnits="userSpaceOnUse">
<stop stop-color="white"/>
<stop offset="1" stop-color="#3B4556"/>
</radialGradient>
<radialGradient id="paint42_radial_4268_12182" cx="0" cy="0" r="1" gradientTransform="matrix(-14.5087 -10.4961 12.0647 -11.4372 43.171 144.723)" gradientUnits="userSpaceOnUse">
<stop stop-color="#7D91AF"/>
<stop offset="1" stop-color="#F8FCFF"/>
</radialGradient>
<linearGradient id="paint43_linear_4268_12182" x1="41.1263" y1="149.014" x2="31.434" y2="141.398" gradientUnits="userSpaceOnUse">
<stop stop-color="#ACB8CC"/>
<stop offset="0.806818" stop-color="#F8FCFF"/>
</linearGradient>
<radialGradient id="paint44_radial_4268_12182" cx="0" cy="0" r="1" gradientTransform="matrix(-4.82096 -0.993893 4.37206 -2.37423 40.4032 141.191)" gradientUnits="userSpaceOnUse">
<stop stop-color="#ACB8CC"/>
<stop offset="1" stop-color="#F0F5FD"/>
</radialGradient>
<clipPath id="clip0_4268_12182">
<rect width="40.687" height="54" fill="white" transform="translate(162.414 0.628906)"/>
</clipPath>
</defs>
</svg>
