<svg width="240" height="240" viewBox="0 0 240 240" fill="none" xmlns="http://www.w3.org/2000/svg">
<path d="M13.3773 21.3066C14.1804 11.9588 21.8672 4.78677 31.0823 4.78711L99.4556 4.7896L88.1145 136.787L3.45557 136.784L13.3773 21.3066Z" fill="#80B3FF"/>
<path d="M64.4034 77.3772L236.544 77.373L228.037 172.07C226.14 193.176 207.993 209.369 186.237 209.37L52.5444 209.373L64.4034 77.3772Z" fill="url(#paint0_radial_4268_12099)"/>
<path d="M170.25 212.804C180.462 200.428 176.425 180.281 161.232 167.804C146.039 155.328 125.444 155.247 115.232 167.624C105.019 180 109.057 200.147 124.25 212.624C139.443 225.1 160.037 225.181 170.25 212.804Z" fill="url(#paint1_linear_4268_12099)"/>
<path d="M114.331 168.783C105.279 181.228 109.525 200.527 124.25 212.619C139.42 225.076 159.973 225.175 170.202 212.856C168.986 214.402 167.628 215.978 166.658 217.156C156.449 229.536 135.856 229.453 120.66 216.973C105.464 204.493 101.422 184.349 111.639 171.969C112.408 171.037 113.358 169.898 114.331 168.783ZM172.298 209.91C172.209 210.06 172.113 210.214 172.011 210.371C172.124 210.194 172.233 210.015 172.34 209.835C172.326 209.86 172.313 209.885 172.298 209.91Z" fill="url(#paint2_radial_4268_12099)"/>
<path d="M114.331 168.783C105.279 181.228 109.525 200.527 124.25 212.619C139.42 225.076 159.973 225.175 170.202 212.856C168.986 214.402 167.628 215.978 166.658 217.156C156.449 229.536 135.856 229.453 120.66 216.973C105.464 204.493 101.422 184.349 111.639 171.969C112.408 171.037 113.358 169.898 114.331 168.783ZM172.298 209.91C172.209 210.06 172.113 210.214 172.011 210.371C172.124 210.194 172.233 210.015 172.34 209.835C172.326 209.86 172.313 209.885 172.298 209.91Z" fill="url(#paint3_linear_4268_12099)" fill-opacity="0.7"/>
<path d="M115.232 167.619C120.758 160.923 129.323 157.874 138.427 158.462C129.909 158.3 121.997 161.371 116.787 167.685C106.575 180.061 110.612 200.208 125.805 212.685C132.777 218.41 140.887 221.522 148.609 222.021C140.43 221.865 131.691 218.73 124.25 212.619C109.057 200.143 105.02 179.996 115.232 167.619Z" fill="url(#paint4_radial_4268_12099)"/>
<path d="M166.069 208.645C174.407 198.54 170.881 181.901 158.193 171.482C145.505 161.062 128.46 160.808 120.121 170.913C111.783 181.019 115.309 197.658 127.997 208.077C140.685 218.496 157.73 218.751 166.069 208.645Z" fill="url(#paint5_linear_4268_12099)"/>
<path d="M120.121 170.912C128.46 160.807 145.505 161.061 158.193 171.48C164.146 176.369 168.082 182.627 169.722 188.937C167.842 183.256 164.111 177.721 158.733 173.304C146.045 162.884 128.999 162.63 120.66 172.735C116.232 178.102 115.15 185.312 117.01 192.454C114.451 184.731 115.315 176.736 120.121 170.912Z" fill="url(#paint6_linear_4268_12099)"/>
<g clip-path="url(#clip0_4268_12099)">
<rect x="26.6221" y="50.6953" width="172" height="97.5238" rx="9.21429" transform="rotate(-5 26.6221 50.6953)" fill="url(#paint7_linear_4268_12099)"/>
<rect x="40.6331" y="65.1367" width="12.2857" height="12.2857" rx="6.14286" transform="rotate(-5 40.6331 65.1367)" fill="#7D91AF"/>
<rect x="62.3191" y="66.3242" width="27.6429" height="6.14286" rx="3.07143" transform="rotate(-5 62.3191 66.3242)" fill="#7D91AF"/>
<rect x="44.8721" y="113.592" width="36.8571" height="4.60714" rx="2.30357" transform="rotate(-5 44.8721 113.592)" fill="#E1E8F3"/>
<rect x="90.7681" y="109.576" width="55.2857" height="4.60714" rx="2.30357" transform="rotate(-5 90.7681 109.576)" fill="#E1E8F3"/>
<rect x="155.023" y="103.955" width="36.8571" height="4.60714" rx="2.30357" transform="rotate(-5 155.023 103.955)" fill="#E1E8F3"/>
<rect x="45.8091" y="124.301" width="73.7143" height="4.60714" rx="2.30357" transform="rotate(-5 45.8091 124.301)" fill="#E1E8F3"/>
<rect x="128.422" y="117.072" width="24.5714" height="4.60714" rx="2.30357" transform="rotate(-5 128.422 117.072)" fill="#E1E8F3"/>
<path d="M48.1801 87.4292C48.3202 86.9873 48.3902 86.7664 48.5102 86.6915C48.6143 86.6265 48.7432 86.6152 48.8571 86.6611C48.9882 86.714 49.0956 86.9195 49.3102 87.3303L50.4117 89.4387C50.4748 89.5595 50.5063 89.6199 50.5525 89.6638C50.5934 89.7027 50.6422 89.7321 50.6957 89.7499C50.7562 89.77 50.8243 89.7695 50.9606 89.7686L53.3394 89.7513C53.8029 89.7479 54.0346 89.7462 54.1429 89.8372C54.2369 89.9161 54.2875 90.0353 54.279 90.1577C54.2692 90.2988 54.107 90.4644 53.7826 90.7955L52.1177 92.4946C52.0223 92.5919 51.9747 92.6406 51.9472 92.6981C51.9228 92.7489 51.91 92.8045 51.9096 92.8609C51.9091 92.9246 51.9306 92.9892 51.9737 93.1186L52.7252 95.3755C52.8716 95.8153 52.9448 96.0352 52.8918 96.1663C52.8457 96.2801 52.7481 96.365 52.629 96.3948C52.4918 96.4291 52.2842 96.326 51.8691 96.1197L49.7387 95.0614C49.6166 95.0008 49.5556 94.9705 49.4924 94.9621C49.4365 94.9547 49.3797 94.9596 49.326 94.9766C49.2652 94.9959 49.2104 95.0363 49.1007 95.1172L47.1864 96.5294C46.8134 96.8046 46.6269 96.9422 46.4858 96.9322C46.3634 96.9236 46.2524 96.8569 46.1873 96.7529C46.1123 96.633 46.1462 96.4037 46.2141 95.9452L46.5622 93.592C46.5822 93.4572 46.5922 93.3898 46.5806 93.3271C46.5704 93.2717 46.5481 93.2191 46.5154 93.1733C46.4783 93.1215 46.4229 93.0818 46.312 93.0025L44.3774 91.6183C44.0004 91.3486 43.812 91.2137 43.7778 91.0764C43.7482 90.9573 43.7773 90.8312 43.8561 90.7372C43.947 90.6288 44.1755 90.5902 44.6326 90.513L46.9782 90.117C47.1126 90.0943 47.1798 90.0829 47.2358 90.0526C47.2854 90.0258 47.3284 89.9883 47.3619 89.943C47.3998 89.8917 47.4203 89.8268 47.4615 89.6968L48.1801 87.4292Z" fill="#FFD100"/>
<path d="M63.479 86.0913C63.619 85.6494 63.689 85.4285 63.809 85.3536C63.9131 85.2886 64.0421 85.2773 64.1559 85.3232C64.2871 85.3761 64.3944 85.5816 64.609 85.9924L65.7105 88.1008C65.7736 88.2216 65.8052 88.282 65.8513 88.326C65.8922 88.3648 65.9411 88.3942 65.9945 88.412C66.055 88.4322 66.1232 88.4317 66.2594 88.4307L68.6382 88.4134C69.1017 88.41 69.3335 88.4083 69.4418 88.4993C69.5357 88.5783 69.5863 88.6974 69.5778 88.8198C69.568 88.9609 69.4058 89.1265 69.0814 89.4576L67.4166 91.1567C67.3212 91.254 67.2735 91.3027 67.246 91.3602C67.2217 91.411 67.2088 91.4666 67.2084 91.523C67.2079 91.5867 67.2294 91.6514 67.2725 91.7807L68.024 94.0376C68.1705 94.4774 68.2437 94.6973 68.1906 94.8284C68.1446 94.9422 68.0469 95.0271 67.9278 95.0569C67.7906 95.0912 67.583 94.9881 67.1679 94.7818L65.0375 93.7235C64.9154 93.6629 64.8544 93.6326 64.7912 93.6242C64.7353 93.6168 64.6785 93.6217 64.6248 93.6388C64.564 93.658 64.5092 93.6984 64.3995 93.7794L62.4852 95.1915C62.1122 95.4667 61.9257 95.6043 61.7846 95.5943C61.6622 95.5857 61.5513 95.5191 61.4862 95.415C61.4111 95.2951 61.4451 95.0658 61.5129 94.6073L61.8611 92.2541C61.881 92.1193 61.891 92.0519 61.8795 91.9892C61.8692 91.9338 61.847 91.8813 61.8142 91.8354C61.7771 91.7836 61.7217 91.7439 61.6109 91.6646L59.6762 90.2804C59.2993 90.0107 59.1108 89.8758 59.0766 89.7386C59.047 89.6194 59.0761 89.4934 59.155 89.3993C59.2458 89.2909 59.4744 89.2523 59.9314 89.1751L62.277 88.7791C62.4114 88.7564 62.4786 88.745 62.5347 88.7147C62.5842 88.6879 62.6273 88.6504 62.6607 88.6051C62.6986 88.5538 62.7192 88.4889 62.7603 88.3589L63.479 86.0913Z" fill="#7D91AF"/>
<path d="M78.7778 84.7534C78.9178 84.3115 78.9878 84.0906 79.1078 84.0157C79.212 83.9507 79.3409 83.9394 79.4547 83.9853C79.5859 84.0383 79.6932 84.2437 79.9078 84.6545L81.0093 86.7629C81.0724 86.8837 81.104 86.9441 81.1502 86.9881C81.191 87.0269 81.2399 87.0563 81.2934 87.0741C81.3538 87.0943 81.422 87.0938 81.5583 87.0928L83.937 87.0755C84.4005 87.0721 84.6323 87.0704 84.7406 87.1614C84.8346 87.2404 84.8851 87.3595 84.8766 87.4819C84.8669 87.623 84.7046 87.7886 84.3802 88.1197L82.7154 89.8188C82.62 89.9161 82.5723 89.9648 82.5448 90.0223C82.5205 90.0731 82.5077 90.1287 82.5072 90.1851C82.5067 90.2488 82.5283 90.3135 82.5713 90.4428L83.3228 92.6997C83.4693 93.1395 83.5425 93.3594 83.4894 93.4905C83.4434 93.6043 83.3457 93.6892 83.2266 93.719C83.0894 93.7533 82.8819 93.6502 82.4667 93.444L80.3363 92.3856C80.2143 92.325 80.1532 92.2947 80.09 92.2863C80.0342 92.2789 79.9774 92.2839 79.9236 92.3009C79.8629 92.3201 79.808 92.3606 79.6983 92.4415L77.7841 93.8536C77.4111 94.1288 77.2245 94.2664 77.0835 94.2564C76.961 94.2478 76.8501 94.1812 76.785 94.0771C76.71 93.9572 76.7439 93.7279 76.8117 93.2694L77.1599 90.9162C77.1799 90.7814 77.1898 90.714 77.1783 90.6513C77.1681 90.5959 77.1458 90.5434 77.113 90.4975C77.0759 90.4457 77.0205 90.406 76.9097 90.3267L74.9751 88.9425C74.5981 88.6728 74.4096 88.5379 74.3755 88.4007C74.3459 88.2816 74.375 88.1555 74.4538 88.0614C74.5447 87.953 74.7732 87.9144 75.2303 87.8372L77.5759 87.4412C77.7102 87.4185 77.7774 87.4072 77.8335 87.3768C77.883 87.35 77.9261 87.3126 77.9596 87.2672C77.9974 87.2159 78.018 87.151 78.0592 87.021L78.7778 84.7534Z" fill="#7D91AF"/>
<path d="M94.0764 83.4155C94.2164 82.9736 94.2864 82.7527 94.4064 82.6778C94.5106 82.6128 94.6395 82.6015 94.7533 82.6475C94.8845 82.7004 94.9918 82.9058 95.2064 83.3166L96.3079 85.4251C96.371 85.5459 96.4026 85.6062 96.4488 85.6502C96.4896 85.689 96.5385 85.7184 96.592 85.7362C96.6524 85.7564 96.7206 85.7559 96.8568 85.7549L99.2356 85.7376C99.6991 85.7342 99.9309 85.7325 100.039 85.8235C100.133 85.9025 100.184 86.0216 100.175 86.144C100.165 86.2852 100.003 86.4507 99.6788 86.7818L98.014 88.4809C97.9186 88.5782 97.8709 88.6269 97.8434 88.6844C97.8191 88.7353 97.8062 88.7908 97.8058 88.8472C97.8053 88.9109 97.8269 88.9756 97.8699 89.1049L98.6214 91.3619C98.7679 91.8016 98.8411 92.0215 98.788 92.1527C98.742 92.2664 98.6443 92.3513 98.5252 92.3811C98.388 92.4154 98.1804 92.3123 97.7653 92.1061L95.6349 91.0478C95.5128 90.9871 95.4518 90.9568 95.3886 90.9484C95.3328 90.941 95.2759 90.946 95.2222 90.963C95.1614 90.9822 95.1066 91.0227 94.9969 91.1036L93.0827 92.5157C92.7096 92.7909 92.5231 92.9285 92.382 92.9186C92.2596 92.9099 92.1487 92.8433 92.0836 92.7392C92.0085 92.6193 92.0425 92.39 92.1103 91.9315L92.4585 89.5783C92.4784 89.4435 92.4884 89.3761 92.4769 89.3134C92.4667 89.258 92.4444 89.2055 92.4116 89.1596C92.3745 89.1078 92.3191 89.0681 92.2083 88.9888L90.2737 87.6046C89.8967 87.3349 89.7082 87.2 89.6741 87.0628C89.6444 86.9437 89.6735 86.8176 89.7524 86.7235C89.8432 86.6151 90.0718 86.5765 90.5288 86.4993L92.8744 86.1033C93.0088 86.0806 93.076 86.0693 93.1321 86.0389C93.1816 86.0121 93.2247 85.9747 93.2581 85.9293C93.296 85.878 93.3166 85.8131 93.3578 85.6832L94.0764 83.4155Z" fill="#7D91AF"/>
<path d="M109.375 82.0757C109.515 81.6338 109.585 81.4128 109.705 81.338C109.809 81.273 109.938 81.2617 110.052 81.3076C110.183 81.3605 110.291 81.5659 110.505 81.9768L111.607 84.0852C111.67 84.206 111.701 84.2664 111.748 84.3103C111.788 84.3492 111.837 84.3786 111.891 84.3964C111.951 84.4165 112.019 84.416 112.156 84.415L114.534 84.3978C114.998 84.3944 115.23 84.3927 115.338 84.4837C115.432 84.5626 115.483 84.6818 115.474 84.8042C115.464 84.9453 115.302 85.1109 114.978 85.4419L113.313 87.1411C113.217 87.2384 113.17 87.2871 113.142 87.3446C113.118 87.3954 113.105 87.451 113.105 87.5073C113.104 87.5711 113.126 87.6357 113.169 87.765L113.92 90.022C114.067 90.4618 114.14 90.6817 114.087 90.8128C114.041 90.9266 113.943 91.0115 113.824 91.0413C113.687 91.0756 113.479 90.9724 113.064 90.7662L110.934 89.7079C110.812 89.6473 110.751 89.617 110.687 89.6086C110.632 89.6011 110.575 89.6061 110.521 89.6231C110.46 89.6424 110.405 89.6828 110.296 89.7637L108.381 91.1759C108.008 91.4511 107.822 91.5887 107.681 91.5787C107.558 91.5701 107.447 91.5034 107.382 91.3994C107.307 91.2795 107.341 91.0502 107.409 90.5917L107.757 88.2385C107.777 88.1037 107.787 88.0362 107.776 87.9736C107.765 87.9181 107.743 87.8656 107.71 87.8198C107.673 87.7679 107.618 87.7283 107.507 87.649L105.572 86.2648C105.196 85.9951 105.007 85.8602 104.973 85.7229C104.943 85.6038 104.972 85.4777 105.051 85.3837C105.142 85.2752 105.371 85.2367 105.828 85.1595L108.173 84.7635C108.308 84.7408 108.375 84.7294 108.431 84.6991C108.48 84.6722 108.524 84.6348 108.557 84.5895C108.595 84.5382 108.615 84.4732 108.657 84.3433L109.375 82.0757Z" fill="#7D91AF"/>
<g filter="url(#filter0_i_4268_12099)">
<path d="M157.519 78.3328L151.876 64.6672L164.96 44.0056L166.455 61.1005L181.776 75.1909L175.661 85.4134L183.994 100.547L170.251 104.489L159.47 117.352L172.095 125.562L168.097 136.213L162.625 136.691L164.435 126.232L149.248 123.313L143.36 111.606L151.433 107.805L153.453 99.6232L147.323 92.4463L157.519 78.3328Z" fill="url(#paint8_radial_4268_12099)"/>
</g>
</g>
<g clip-path="url(#clip1_4268_12099)">
<ellipse cx="162.053" cy="119.47" rx="32" ry="6.19354" transform="rotate(75 162.053 119.47)" fill="url(#paint9_linear_4268_12099)"/>
<path d="M153.771 88.5615C150.467 89.4468 151.496 104.003 156.07 121.074C160.638 138.122 167.013 151.23 170.321 150.384L159.118 153.386C155.814 154.271 149.427 141.15 144.853 124.079C140.279 107.008 139.249 92.4516 142.553 91.5663L153.771 88.5605L153.771 88.5615Z" fill="url(#paint10_radial_4268_12099)"/>
<path d="M153.771 88.5615C150.467 89.4468 151.496 104.003 156.07 121.074C160.638 138.122 167.013 151.23 170.321 150.384L159.118 153.386C155.814 154.271 149.427 141.15 144.853 124.079C140.279 107.008 139.249 92.4516 142.553 91.5663L153.771 88.5605L153.771 88.5615Z" fill="url(#paint11_linear_4268_12099)" fill-opacity="0.7"/>
<ellipse cx="162.427" cy="119.371" rx="27.4286" ry="4.25806" transform="rotate(75 162.427 119.371)" fill="url(#paint12_linear_4268_12099)"/>
<ellipse cx="162.427" cy="119.371" rx="27.4286" ry="4.25806" transform="rotate(75 162.427 119.371)" fill="url(#paint13_linear_4268_12099)"/>
<path d="M164.296 118.865C167.545 130.992 169.02 141.554 168.137 145.163C165.568 142.48 161.563 132.595 158.313 120.468C155.064 108.341 153.59 97.7782 154.474 94.1704C157.043 96.8538 161.047 106.739 164.296 118.865Z" fill="url(#paint14_linear_4268_12099)"/>
<path d="M164.296 118.865C167.545 130.992 169.02 141.554 168.137 145.163C165.568 142.48 161.563 132.595 158.313 120.468C155.064 108.341 153.59 97.7782 154.474 94.1704C157.043 96.8538 161.047 106.739 164.296 118.865Z" fill="url(#paint15_radial_4268_12099)" fill-opacity="0.65" style="mix-blend-mode:multiply"/>
</g>
<path d="M192.204 98.4055C197.824 96.6387 203.636 100.529 204.146 106.399L205.643 123.644C206.083 128.711 202.334 133.176 197.267 133.62L167.863 136.192L172.05 126.07L159.413 117.893L170.191 105.009L184.004 100.983L192.204 98.4055Z" fill="url(#paint16_linear_4268_12099)"/>
<path d="M192.204 98.4055C197.824 96.6387 203.636 100.529 204.146 106.399L205.643 123.644C206.083 128.711 202.334 133.176 197.267 133.62L167.863 136.192L172.05 126.07L159.413 117.893L170.191 105.009L184.004 100.983L192.204 98.4055Z" fill="url(#paint17_radial_4268_12099)" fill-opacity="0.4"/>
<defs>
<filter id="filter0_i_4268_12099" x="143.36" y="44.0059" width="40.6343" height="95.757" filterUnits="userSpaceOnUse" color-interpolation-filters="sRGB">
<feFlood flood-opacity="0" result="BackgroundImageFix"/>
<feBlend mode="normal" in="SourceGraphic" in2="BackgroundImageFix" result="shape"/>
<feColorMatrix in="SourceAlpha" type="matrix" values="0 0 0 0 0 0 0 0 0 0 0 0 0 0 0 0 0 0 127 0" result="hardAlpha"/>
<feOffset dy="3.07143"/>
<feGaussianBlur stdDeviation="1.53571"/>
<feComposite in2="hardAlpha" operator="arithmetic" k2="-1" k3="1"/>
<feColorMatrix type="matrix" values="0 0 0 0 0 0 0 0 0 0 0 0 0 0 0 0 0 0 0.25 0"/>
<feBlend mode="normal" in2="shape" result="effect1_innerShadow_4268_12099"/>
</filter>
<radialGradient id="paint0_radial_4268_12099" cx="0" cy="0" r="1" gradientUnits="userSpaceOnUse" gradientTransform="translate(82.0052 195.966) rotate(-93.4728) scale(112.463 217.622)">
<stop stop-color="#007CCC"/>
<stop offset="1" stop-color="#0A2C90"/>
</radialGradient>
<linearGradient id="paint1_linear_4268_12099" x1="169.799" y1="215.782" x2="123.887" y2="160.381" gradientUnits="userSpaceOnUse">
<stop stop-color="#FFD100"/>
<stop offset="1" stop-color="#FFE4A7"/>
</linearGradient>
<radialGradient id="paint2_radial_4268_12099" cx="0" cy="0" r="1" gradientTransform="matrix(60.2356 37.3558 -32.5914 52.3041 105.997 189.031)" gradientUnits="userSpaceOnUse">
<stop stop-color="#FFA900"/>
<stop offset="1" stop-color="#482500"/>
</radialGradient>
<linearGradient id="paint3_linear_4268_12099" x1="108.113" y1="194.46" x2="120.962" y2="202.804" gradientUnits="userSpaceOnUse">
<stop stop-color="#FFFADC" stop-opacity="0"/>
<stop offset="0.490385" stop-color="#FFE4A7"/>
<stop offset="1" stop-color="#FFFADC" stop-opacity="0"/>
</linearGradient>
<radialGradient id="paint4_radial_4268_12099" cx="0" cy="0" r="1" gradientTransform="matrix(25.3997 -10.7056 8.35908 19.7557 109.591 179.671)" gradientUnits="userSpaceOnUse">
<stop stop-color="#FFF3CB"/>
<stop offset="1" stop-color="#FFF3CB" stop-opacity="0"/>
</radialGradient>
<linearGradient id="paint5_linear_4268_12099" x1="163.343" y1="210.245" x2="126.669" y2="166.131" gradientUnits="userSpaceOnUse">
<stop stop-color="#FFE4A7"/>
<stop offset="1" stop-color="#FFA900"/>
</linearGradient>
<linearGradient id="paint6_linear_4268_12099" x1="142.659" y1="177.975" x2="128.741" y2="151.61" gradientUnits="userSpaceOnUse">
<stop stop-color="#B84E00"/>
<stop offset="1" stop-color="#6A3800"/>
</linearGradient>
<linearGradient id="paint7_linear_4268_12099" x1="205.176" y1="45.252" x2="106.8" y2="218.35" gradientUnits="userSpaceOnUse">
<stop stop-color="#E1E8F3"/>
<stop offset="0.264423" stop-color="white"/>
<stop offset="0.724224" stop-color="white"/>
<stop offset="1" stop-color="#E1E8F3"/>
</linearGradient>
<radialGradient id="paint8_radial_4268_12099" cx="0" cy="0" r="1" gradientUnits="userSpaceOnUse" gradientTransform="translate(169.879 94.2725) rotate(97.9074) scale(45.0196 28.2662)">
<stop stop-color="#7D91AF"/>
<stop offset="1" stop-color="#3B4556"/>
</radialGradient>
<linearGradient id="paint9_linear_4268_12099" x1="188.288" y1="121.105" x2="163.203" y2="135.105" gradientUnits="userSpaceOnUse">
<stop stop-color="#FFA900"/>
<stop offset="1" stop-color="#FFD100"/>
</linearGradient>
<radialGradient id="paint10_radial_4268_12099" cx="0" cy="0" r="1" gradientUnits="userSpaceOnUse" gradientTransform="translate(136.571 107.399) rotate(51.7076) scale(60.6351 93.5323)">
<stop stop-color="#FFA900"/>
<stop offset="1" stop-color="#482500"/>
</radialGradient>
<linearGradient id="paint11_linear_4268_12099" x1="146.498" y1="97.9866" x2="150.21" y2="116.463" gradientUnits="userSpaceOnUse">
<stop stop-color="#FFD100" stop-opacity="0"/>
<stop offset="0.490385" stop-color="#FFE4A7"/>
<stop offset="1" stop-color="#FFD100" stop-opacity="0"/>
</linearGradient>
<linearGradient id="paint12_linear_4268_12099" x1="113.18" y1="119.371" x2="189.855" y2="119.371" gradientUnits="userSpaceOnUse">
<stop stop-color="#4A443F"/>
<stop offset="1" stop-color="#BDB6B1"/>
</linearGradient>
<linearGradient id="paint13_linear_4268_12099" x1="162.427" y1="119.371" x2="160.943" y2="109.684" gradientUnits="userSpaceOnUse">
<stop stop-color="#B84E00"/>
<stop offset="1" stop-color="#6A3800"/>
</linearGradient>
<linearGradient id="paint14_linear_4268_12099" x1="154.473" y1="94.1706" x2="168.136" y2="145.163" gradientUnits="userSpaceOnUse">
<stop stop-color="#FFA900"/>
<stop offset="1" stop-color="#FFD100"/>
</linearGradient>
<radialGradient id="paint15_radial_4268_12099" cx="0" cy="0" r="1" gradientUnits="userSpaceOnUse" gradientTransform="translate(165.684 124.626) rotate(77.5989) scale(36.3216 10.7248)">
<stop stop-color="#6A3800"/>
<stop offset="1" stop-color="#FFD100" stop-opacity="0"/>
</radialGradient>
<linearGradient id="paint16_linear_4268_12099" x1="192.132" y1="112.619" x2="168.087" y2="116.999" gradientUnits="userSpaceOnUse">
<stop stop-color="white" stop-opacity="0"/>
<stop offset="1" stop-color="#F8FCFF"/>
</linearGradient>
<radialGradient id="paint17_radial_4268_12099" cx="0" cy="0" r="1" gradientTransform="matrix(42.6389 2.13018 32.1702 34.3027 156.803 119.695)" gradientUnits="userSpaceOnUse">
<stop stop-color="#7D91AF"/>
<stop offset="1" stop-color="white" stop-opacity="0"/>
</radialGradient>
<clipPath id="clip0_4268_12099">
<rect x="26.6221" y="50.6953" width="172" height="97.5238" rx="9.21429" transform="rotate(-5 26.6221 50.6953)" fill="white"/>
</clipPath>
<clipPath id="clip1_4268_12099">
<rect width="64" height="24" fill="white" transform="translate(159.753 86.959) rotate(75)"/>
</clipPath>
</defs>
</svg>
