<svg width="240" height="240" viewBox="0 0 240 240" fill="none" xmlns="http://www.w3.org/2000/svg">
<g clip-path="url(#clip0_4272_222127)">
<path d="M71.6012 108.004L240 108L231.677 202.697C229.822 223.803 212.069 239.996 190.786 239.997L60 240L71.6012 108.004Z" fill="#00BDFF"/>
<path d="M9.92171 16.5175C10.7249 7.16974 18.4116 -0.00228931 27.6267 -0.00195311L96 0.000541338L84.6589 131.998L0 131.995L9.92171 16.5175Z" fill="url(#paint0_linear_4272_222127)"/>
<rect x="200" y="37.3887" width="4.69135" height="6.36475" fill="#00CDFF"/>
<path d="M200 41.8894C200 39.4037 202.016 37.3887 204.501 37.3887C206.987 37.3887 209.002 39.4037 209.002 41.8894V55.3887H200V41.8894Z" fill="#202225"/>
<rect x="20" y="54.6113" width="200" height="148" rx="6" fill="url(#paint1_radial_4272_222127)"/>
<mask id="mask0_4272_222127" style="mask-type:alpha" maskUnits="userSpaceOnUse" x="30" y="76" width="180" height="65">
<path d="M208 76.6113C209.105 76.6113 210 77.5068 210 78.6113V138.611C210 139.716 209.105 140.611 208 140.611H87V123.611C87 122.507 86.1046 121.611 85 121.611H43C41.8954 121.611 41 122.507 41 123.611V140.611H32C30.8954 140.611 30 139.716 30 138.611V78.6113C30 77.5068 30.8954 76.6113 32 76.6113H208Z" fill="#F3F3F3"/>
</mask>
<g mask="url(#mask0_4272_222127)">
<path d="M30 21.6113V127.315H210C210 92.0805 210 56.8459 210 21.6113C210 21.6113 90 21.6113 30 21.6113Z" fill="url(#paint2_linear_4272_222127)"/>
<path d="M60.5625 21.6113L30 35.9892V102.42L120.269 123.055L71.696 21.6113H60.5625Z" fill="url(#paint3_linear_4272_222127)"/>
<path d="M52.9764 84.9499C45.5717 80.7963 34.5735 78.0717 30 77.2285V167.623H210V77.2285C205.463 79.8023 194.842 86.228 188.657 91.3401C180.926 97.7302 160.345 111.842 147.931 115.836C135.517 119.83 124.628 108.913 115.699 106.384C106.77 103.854 101.869 107.182 91.5245 105.718C81.1797 104.254 62.2323 90.1419 52.9764 84.9499Z" fill="url(#paint4_linear_4272_222127)"/>
<path d="M60.6719 104.918C80.6467 105.805 128.87 119.935 161.965 169.352C117.322 173.213 70.7138 157.903 60.6719 104.918Z" fill="url(#paint5_linear_4272_222127)"/>
<path d="M63.0466 104.752C48.2084 103.388 34.8538 109.623 30 113.317V201.611H210V145.058C167.866 170.375 143.7 174.531 122.53 160.928C101.36 147.325 94.8537 107.677 63.0466 104.752Z" fill="url(#paint6_linear_4272_222127)"/>
</g>
<path d="M174 43.3887C174 40.075 176.686 37.3887 180 37.3887H200L200 73.3887L187 68.1457L174 73.3887L174 43.3887Z" fill="#00CDFF"/>
<path d="M188 53.6113H193V55.6113H188V60.6113H186V55.6113H181V53.6113H186V48.6113H188V53.6113Z" fill="white"/>
<rect x="46.0005" y="126.611" width="36" height="36" fill="url(#paint7_radial_4272_222127)"/>
<rect x="54.8169" y="144.611" width="14" height="14" rx="2" transform="rotate(-45 54.8169 144.611)" fill="white"/>
<path d="M126.094 44.2227C126.094 43.1181 126.99 42.2227 128.094 42.2227H150.094C151.199 42.2227 152.094 43.1181 152.094 44.2227L152.094 70.2227L139.094 63.8273L126.094 70.2227L126.094 44.2227Z" fill="#32CCFE"/>
<circle cx="141.457" cy="58.9444" r="1.68655" fill="black"/>
<path d="M139.782 47.1445C141.39 47.1445 142.903 47.7775 144.043 48.9208C145.18 50.0533 145.817 51.5939 145.813 53.2015C145.795 54.8054 145.184 56.342 144.044 57.4814C142.934 58.5954 141.41 59.2674 139.777 59.2674V59.2589H137.869C136.765 59.2589 136.006 59.114 135.039 58.6136C134.473 58.3209 133.959 57.9369 133.514 57.4873C132.989 56.9533 132.679 56.4462 132.527 56.0863L132.393 55.6789C132.323 55.4662 132.47 55.2436 132.693 55.2246L132.975 55.2009C133.158 55.1571 133.328 55.058 133.46 54.9189C133.634 54.7296 133.734 54.4739 133.734 54.2118V53.2062C133.734 51.8663 134.18 50.5545 135.002 49.4983C136.17 48.037 137.897 47.1446 139.782 47.1445Z" fill="white"/>
<circle cx="136.738" cy="58.9444" r="1.68655" fill="black"/>
<path d="M78 44.1992C78 43.0946 78.8954 42.1992 80 42.1992H102C103.105 42.1992 104 43.0946 104 44.1992L104 70.1992L91 63.8039L78 70.1992L78 44.1992Z" fill="#1877F2"/>
<path d="M94.1061 54.3709L94.4766 51.8027H92.1588V50.1368C92.1588 49.4342 92.4827 48.7486 93.5208 48.7486H94.5746V46.5622C94.5746 46.5622 93.6182 46.3887 92.7039 46.3887C90.7949 46.3887 89.5472 47.6186 89.5472 49.8453V51.8027H87.4253V54.3709H89.5472V60.5793C90.4125 60.7232 91.2936 60.7232 92.1588 60.5793V54.3709H94.1061Z" fill="white"/>
<path d="M30 44.1992C30 43.0946 30.8954 42.1992 32 42.1992H54C55.1046 42.1992 56 43.0946 56 44.1992L56 70.1992L43 63.8039L30 70.1992L30 44.1992Z" fill="#82AEF7"/>
<path d="M48.9772 53.1145C48.9585 52.8628 48.9275 52.633 48.8834 52.3395H43.1243C43.1243 53.1459 43.1243 54.0259 43.1211 54.8327H46.4575C46.3866 55.2087 46.2422 55.567 46.0326 55.8869C45.823 56.2069 45.5523 56.4823 45.2361 56.6972C45.2361 56.6972 45.2361 56.6833 45.2337 56.6829C44.8254 56.9513 44.3654 57.1311 43.8833 57.2105C43.4001 57.299 42.9046 57.2969 42.4221 57.2042C41.9322 57.1027 41.4684 56.9014 41.0594 56.6129C40.4557 56.1843 39.9901 55.5887 39.7197 54.8991C39.6991 54.8454 39.68 54.7913 39.6605 54.7365V54.7305L39.6657 54.7265C39.4032 53.9552 39.4025 53.1188 39.6637 52.3471C39.8477 51.8057 40.1505 51.3125 40.5498 50.9037C41.4866 49.9335 42.8864 49.5686 44.1768 49.9581C44.6717 50.11 45.1238 50.3765 45.4967 50.7359L46.6223 49.609C46.8209 49.4082 47.027 49.2137 47.218 49.0062C46.6473 48.4732 45.9774 48.0578 45.2465 47.7838C43.9162 47.3009 42.461 47.2882 41.1225 47.7476C41.076 47.7635 41.0296 47.7801 40.9835 47.7973C39.5395 48.3408 38.3516 49.4067 37.6544 50.7844C37.4082 51.272 37.2289 51.7907 37.1214 52.3264C36.4838 55.4984 38.4171 58.6207 41.5384 59.4599C42.5587 59.7335 43.6434 59.7268 44.6717 59.4929C45.606 59.2818 46.4699 58.8323 47.1795 58.1883C47.9199 57.5064 48.4505 56.5978 48.7285 55.6327C48.961 54.8149 49.0452 53.962 48.9772 53.1145Z" fill="white"/>
<rect x="30.0005" y="172.623" width="180" height="6" rx="3" fill="#E1E8F3"/>
<rect x="130" y="186.623" width="80" height="6" rx="3" fill="#E1E8F3"/>
<rect x="30.0005" y="186.623" width="80" height="6" rx="3" fill="#E1E8F3"/>
</g>
<defs>
<linearGradient id="paint0_linear_4272_222127" x1="48" y1="-0.00195417" x2="96" y2="136.021" gradientUnits="userSpaceOnUse">
<stop stop-color="#35FAFF"/>
<stop offset="1" stop-color="#00CDFF"/>
</linearGradient>
<radialGradient id="paint1_radial_4272_222127" cx="0" cy="0" r="1" gradientUnits="userSpaceOnUse" gradientTransform="translate(120 217.854) rotate(-119.985) scale(188.468 188.468)">
<stop stop-color="#F0F5FD"/>
<stop offset="1" stop-color="white"/>
</radialGradient>
<linearGradient id="paint2_linear_4272_222127" x1="30" y1="73.3571" x2="195.852" y2="26.0101" gradientUnits="userSpaceOnUse">
<stop offset="0.135" stop-color="#005778"/>
<stop offset="0.32" stop-color="#ABE2D5"/>
<stop offset="0.542695" stop-color="#417FA9"/>
<stop offset="0.83" stop-color="#1C4371"/>
<stop offset="1" stop-color="#173D66"/>
</linearGradient>
<linearGradient id="paint3_linear_4272_222127" x1="39.8237" y1="98.0269" x2="67.4322" y2="16.7422" gradientUnits="userSpaceOnUse">
<stop stop-color="#C3E3DE"/>
<stop offset="0.457305" stop-color="#9DC5BF"/>
<stop offset="1" stop-color="#628AA3"/>
</linearGradient>
<linearGradient id="paint4_linear_4272_222127" x1="30" y1="122.426" x2="210" y2="122.426" gradientUnits="userSpaceOnUse">
<stop stop-color="#4CB39C"/>
<stop offset="0.31" stop-color="#93B5CD"/>
<stop offset="0.745" stop-color="#337DB1"/>
<stop offset="1" stop-color="#1F366C"/>
</linearGradient>
<linearGradient id="paint5_linear_4272_222127" x1="93.1991" y1="107.314" x2="138.749" y2="174.252" gradientUnits="userSpaceOnUse">
<stop stop-color="#7097B4"/>
<stop offset="1" stop-color="#294387"/>
</linearGradient>
<linearGradient id="paint6_linear_4272_222127" x1="57.3774" y1="244.122" x2="187.311" y2="127.24" gradientUnits="userSpaceOnUse">
<stop stop-color="#02A6BB"/>
<stop offset="0.604658" stop-color="#19CFDE"/>
<stop offset="0.665" stop-color="#12265C"/>
</linearGradient>
<radialGradient id="paint7_radial_4272_222127" cx="0" cy="0" r="1" gradientUnits="userSpaceOnUse" gradientTransform="translate(64.0005 144.611) rotate(44.0125) scale(16.8595 21.9086)">
<stop stop-color="#80B3FF"/>
<stop offset="1" stop-color="#3478FF"/>
</radialGradient>
<clipPath id="clip0_4272_222127">
<rect width="240" height="240" fill="white"/>
</clipPath>
</defs>
</svg>
