<svg width="161" height="26" viewBox="0 0 161 26" fill="none" xmlns="http://www.w3.org/2000/svg">
<path fill-rule="evenodd" clip-rule="evenodd" d="M2.0633 11.2615L7.40463 5.15907C7.47645 5.07724 7.62451 4.99702 7.7313 4.98095C7.7313 4.98095 12.2222 4.26221 12.878 5.01088C13.5335 5.75942 13.546 6.59494 13.3297 7.08477C13.1389 7.51694 11.4785 11.1529 11.07 12.0635C12.1385 12.8265 13.1111 14.081 13.3297 15.4339C13.7826 18.2329 12.5427 21.9691 6.47315 21.5821C4.28892 21.5821 0.476455 20.8018 0.0500249 17.4573C-0.375776 14.1129 2.0633 11.2615 2.0633 11.2615ZM9.83546 20.3999C10.8886 20.3999 12.8252 18.94 12.7565 16.1434C12.6876 13.3477 10.2184 12.2073 10.2184 12.2073L12.788 6.56287C12.8322 6.46456 12.8556 6.27542 12.8369 6.17012C12.7999 5.96516 12.6701 5.61776 12.559 5.46184C12.4091 5.251 12.0961 5.18125 11.9211 5.45252C11.9211 5.45252 7.03331 12.7792 7.03331 16.2475C7.03343 19.7159 8.7824 20.3999 9.83546 20.3999ZM8.52015 6.62693H7.56276C7.45746 6.62693 7.4236 6.56316 7.48652 6.48449L7.91819 5.9448C7.95945 5.89321 8.05006 5.84482 8.11954 5.83799C8.11954 5.83799 8.47313 5.80187 8.95202 5.76541C9.43091 5.72895 10.1239 5.75757 10.1239 5.75757C10.2637 5.76157 10.3172 5.8555 10.2437 5.96664L9.8503 6.56183C9.81383 6.617 9.72745 6.65981 9.65765 6.657C9.65765 6.657 8.68483 6.62693 8.52015 6.62693Z" fill="#0062FF"/>
<path fill-rule="evenodd" clip-rule="evenodd" d="M2.0633 11.2615L7.40463 5.15907C7.47645 5.07724 7.62451 4.99702 7.7313 4.98095C7.7313 4.98095 12.2222 4.26221 12.878 5.01088C13.5335 5.75942 13.546 6.59494 13.3297 7.08477C13.1389 7.51694 11.4785 11.1529 11.07 12.0635C12.1385 12.8265 13.1111 14.081 13.3297 15.4339C13.7826 18.2329 12.5427 21.9691 6.47315 21.5821C4.28892 21.5821 0.476455 20.8018 0.0500249 17.4573C-0.375776 14.1129 2.0633 11.2615 2.0633 11.2615ZM9.83546 20.3999C10.8886 20.3999 12.8252 18.94 12.7565 16.1434C12.6876 13.3477 10.2184 12.2073 10.2184 12.2073L12.788 6.56287C12.8322 6.46456 12.8556 6.27542 12.8369 6.17012C12.7999 5.96516 12.6701 5.61776 12.559 5.46184C12.4091 5.251 12.0961 5.18125 11.9211 5.45252C11.9211 5.45252 7.03331 12.7792 7.03331 16.2475C7.03343 19.7159 8.7824 20.3999 9.83546 20.3999ZM8.52015 6.62693H7.56276C7.45746 6.62693 7.4236 6.56316 7.48652 6.48449L7.91819 5.9448C7.95945 5.89321 8.05006 5.84482 8.11954 5.83799C8.11954 5.83799 8.47313 5.80187 8.95202 5.76541C9.43091 5.72895 10.1239 5.75757 10.1239 5.75757C10.2637 5.76157 10.3172 5.8555 10.2437 5.96664L9.8503 6.56183C9.81383 6.617 9.72745 6.65981 9.65765 6.657C9.65765 6.657 8.68483 6.62693 8.52015 6.62693Z" fill="url(#paint0_radial_17_167)"/>
<path fill-rule="evenodd" clip-rule="evenodd" d="M2.0633 11.2615L7.40463 5.15907C7.47645 5.07724 7.62451 4.99702 7.7313 4.98095C7.7313 4.98095 12.2222 4.26221 12.878 5.01088C13.5335 5.75942 13.546 6.59494 13.3297 7.08477C13.1389 7.51694 11.4785 11.1529 11.07 12.0635C12.1385 12.8265 13.1111 14.081 13.3297 15.4339C13.7826 18.2329 12.5427 21.9691 6.47315 21.5821C4.28892 21.5821 0.476455 20.8018 0.0500249 17.4573C-0.375776 14.1129 2.0633 11.2615 2.0633 11.2615ZM9.83546 20.3999C10.8886 20.3999 12.8252 18.94 12.7565 16.1434C12.6876 13.3477 10.2184 12.2073 10.2184 12.2073L12.788 6.56287C12.8322 6.46456 12.8556 6.27542 12.8369 6.17012C12.7999 5.96516 12.6701 5.61776 12.559 5.46184C12.4091 5.251 12.0961 5.18125 11.9211 5.45252C11.9211 5.45252 7.03331 12.7792 7.03331 16.2475C7.03343 19.7159 8.7824 20.3999 9.83546 20.3999ZM8.52015 6.62693H7.56276C7.45746 6.62693 7.4236 6.56316 7.48652 6.48449L7.91819 5.9448C7.95945 5.89321 8.05006 5.84482 8.11954 5.83799C8.11954 5.83799 8.47313 5.80187 8.95202 5.76541C9.43091 5.72895 10.1239 5.75757 10.1239 5.75757C10.2637 5.76157 10.3172 5.8555 10.2437 5.96664L9.8503 6.56183C9.81383 6.617 9.72745 6.65981 9.65765 6.657C9.65765 6.657 8.68483 6.62693 8.52015 6.62693Z" fill="url(#paint1_radial_17_167)"/>
<path fill-rule="evenodd" clip-rule="evenodd" d="M2.0633 11.2615L7.40463 5.15907C7.47645 5.07724 7.62451 4.99702 7.7313 4.98095C7.7313 4.98095 12.2222 4.26221 12.878 5.01088C13.5335 5.75942 13.546 6.59494 13.3297 7.08477C13.1389 7.51694 11.4785 11.1529 11.07 12.0635C12.1385 12.8265 13.1111 14.081 13.3297 15.4339C13.7826 18.2329 12.5427 21.9691 6.47315 21.5821C4.28892 21.5821 0.476455 20.8018 0.0500249 17.4573C-0.375776 14.1129 2.0633 11.2615 2.0633 11.2615ZM9.83546 20.3999C10.8886 20.3999 12.8252 18.94 12.7565 16.1434C12.6876 13.3477 10.2184 12.2073 10.2184 12.2073L12.788 6.56287C12.8322 6.46456 12.8556 6.27542 12.8369 6.17012C12.7999 5.96516 12.6701 5.61776 12.559 5.46184C12.4091 5.251 12.0961 5.18125 11.9211 5.45252C11.9211 5.45252 7.03331 12.7792 7.03331 16.2475C7.03343 19.7159 8.7824 20.3999 9.83546 20.3999ZM8.52015 6.62693H7.56276C7.45746 6.62693 7.4236 6.56316 7.48652 6.48449L7.91819 5.9448C7.95945 5.89321 8.05006 5.84482 8.11954 5.83799C8.11954 5.83799 8.47313 5.80187 8.95202 5.76541C9.43091 5.72895 10.1239 5.75757 10.1239 5.75757C10.2637 5.76157 10.3172 5.8555 10.2437 5.96664L9.8503 6.56183C9.81383 6.617 9.72745 6.65981 9.65765 6.657C9.65765 6.657 8.68483 6.62693 8.52015 6.62693Z" fill="url(#paint2_radial_17_167)"/>
<path fill-rule="evenodd" clip-rule="evenodd" d="M2.0633 11.2615L7.40463 5.15907C7.47645 5.07724 7.62451 4.99702 7.7313 4.98095C7.7313 4.98095 12.2222 4.26221 12.878 5.01088C13.5335 5.75942 13.546 6.59494 13.3297 7.08477C13.1389 7.51694 11.4785 11.1529 11.07 12.0635C12.1385 12.8265 13.1111 14.081 13.3297 15.4339C13.7826 18.2329 12.5427 21.9691 6.47315 21.5821C4.28892 21.5821 0.476455 20.8018 0.0500249 17.4573C-0.375776 14.1129 2.0633 11.2615 2.0633 11.2615ZM9.83546 20.3999C10.8886 20.3999 12.8252 18.94 12.7565 16.1434C12.6876 13.3477 10.2184 12.2073 10.2184 12.2073L12.788 6.56287C12.8322 6.46456 12.8556 6.27542 12.8369 6.17012C12.7999 5.96516 12.6701 5.61776 12.559 5.46184C12.4091 5.251 12.0961 5.18125 11.9211 5.45252C11.9211 5.45252 7.03331 12.7792 7.03331 16.2475C7.03343 19.7159 8.7824 20.3999 9.83546 20.3999ZM8.52015 6.62693H7.56276C7.45746 6.62693 7.4236 6.56316 7.48652 6.48449L7.91819 5.9448C7.95945 5.89321 8.05006 5.84482 8.11954 5.83799C8.11954 5.83799 8.47313 5.80187 8.95202 5.76541C9.43091 5.72895 10.1239 5.75757 10.1239 5.75757C10.2637 5.76157 10.3172 5.8555 10.2437 5.96664L9.8503 6.56183C9.81383 6.617 9.72745 6.65981 9.65765 6.657C9.65765 6.657 8.68483 6.62693 8.52015 6.62693Z" fill="url(#paint3_radial_17_167)" fill-opacity="0.8"/>
<path fill-rule="evenodd" clip-rule="evenodd" d="M2.0633 11.2615L7.40463 5.15907C7.47645 5.07724 7.62451 4.99702 7.7313 4.98095C7.7313 4.98095 12.2222 4.26221 12.878 5.01088C13.5335 5.75942 13.546 6.59494 13.3297 7.08477C13.1389 7.51694 11.4785 11.1529 11.07 12.0635C12.1385 12.8265 13.1111 14.081 13.3297 15.4339C13.7826 18.2329 12.5427 21.9691 6.47315 21.5821C4.28892 21.5821 0.476455 20.8018 0.0500249 17.4573C-0.375776 14.1129 2.0633 11.2615 2.0633 11.2615ZM9.83546 20.3999C10.8886 20.3999 12.8252 18.94 12.7565 16.1434C12.6876 13.3477 10.2184 12.2073 10.2184 12.2073L12.788 6.56287C12.8322 6.46456 12.8556 6.27542 12.8369 6.17012C12.7999 5.96516 12.6701 5.61776 12.559 5.46184C12.4091 5.251 12.0961 5.18125 11.9211 5.45252C11.9211 5.45252 7.03331 12.7792 7.03331 16.2475C7.03343 19.7159 8.7824 20.3999 9.83546 20.3999ZM8.52015 6.62693H7.56276C7.45746 6.62693 7.4236 6.56316 7.48652 6.48449L7.91819 5.9448C7.95945 5.89321 8.05006 5.84482 8.11954 5.83799C8.11954 5.83799 8.47313 5.80187 8.95202 5.76541C9.43091 5.72895 10.1239 5.75757 10.1239 5.75757C10.2637 5.76157 10.3172 5.8555 10.2437 5.96664L9.8503 6.56183C9.81383 6.617 9.72745 6.65981 9.65765 6.657C9.65765 6.657 8.68483 6.62693 8.52015 6.62693Z" fill="url(#paint4_radial_17_167)" fill-opacity="0.8"/>
<path d="M21.0958 19.6506V6.494H26.2456C27.1729 6.494 27.9435 6.6381 28.5574 6.92629C29.1839 7.21448 29.6538 7.61545 29.9671 8.12918C30.2803 8.63038 30.4369 9.21303 30.4369 9.87712C30.4369 10.5412 30.2928 11.0988 30.0046 11.5499C29.7165 12.001 29.3343 12.3456 28.8581 12.5836C28.3945 12.8217 27.8871 12.9658 27.3357 13.0159L27.6177 12.8092C28.2066 12.8217 28.7328 12.9783 29.1965 13.279C29.6726 13.5798 30.0485 13.9745 30.3242 14.4631C30.5998 14.9393 30.7377 15.4718 30.7377 16.0607C30.7377 16.7499 30.5685 17.3701 30.2302 17.9214C29.9044 18.4602 29.422 18.8862 28.783 19.1995C28.1439 19.5002 27.3608 19.6506 26.4336 19.6506H21.0958ZM23.3512 17.8087H26.0953C26.8345 17.8087 27.4109 17.6332 27.8244 17.2824C28.2379 16.9316 28.4447 16.4429 28.4447 15.8164C28.4447 15.1899 28.2316 14.6949 27.8056 14.3316C27.3796 13.9557 26.7969 13.7677 26.0577 13.7677H23.3512V17.8087ZM23.3512 12.0574H25.9261C26.6529 12.0574 27.2042 11.8945 27.5801 11.5687C27.956 11.2304 28.1439 10.7668 28.1439 10.1778C28.1439 9.60146 27.956 9.15038 27.5801 8.8246C27.2042 8.48629 26.6466 8.31713 25.9073 8.31713H23.3512V12.0574Z" fill="#2A3546"/>
<path d="M36.9951 19.8761C36.0554 19.8761 35.2284 19.6756 34.5142 19.2747C33.7999 18.8612 33.2424 18.2848 32.8414 17.5455C32.4404 16.8063 32.2399 15.9542 32.2399 14.9894C32.2399 13.987 32.4342 13.1099 32.8226 12.3581C33.2236 11.6063 33.7811 11.0174 34.4954 10.5913C35.2221 10.1653 36.0616 9.95231 37.0139 9.95231C37.9411 9.95231 38.7493 10.1591 39.4385 10.5725C40.1276 10.986 40.6602 11.5436 41.0361 12.2453C41.412 12.9345 41.5999 13.7113 41.5999 14.5759C41.5999 14.7012 41.5999 14.839 41.5999 14.9894C41.5999 15.1398 41.5874 15.2964 41.5623 15.4593H33.8563V14.012H39.3257C39.3006 13.3229 39.0688 12.7841 38.6303 12.3957C38.1917 11.9947 37.6467 11.7942 36.9951 11.7942C36.5315 11.7942 36.1055 11.9007 35.717 12.1137C35.3286 12.3268 35.0216 12.6463 34.7961 13.0723C34.5705 13.4858 34.4578 14.0121 34.4578 14.6511V15.1961C34.4578 15.7851 34.5643 16.2925 34.7773 16.7185C35.0028 17.1446 35.3035 17.4704 35.6794 17.6959C36.0679 17.9089 36.5002 18.0154 36.9763 18.0154C37.5026 18.0154 37.9349 17.9026 38.2732 17.6771C38.624 17.4516 38.8809 17.1508 39.0438 16.7749H41.3368C41.1614 17.3638 40.8732 17.8964 40.4722 18.3725C40.0712 18.8361 39.5763 19.2058 38.9874 19.4814C38.3985 19.7446 37.7344 19.8761 36.9951 19.8761Z" fill="#2A3546"/>
<path d="M44.1248 23.7855L46.4366 18.5981H45.8727L42.0949 10.1778H44.5571L47.3763 16.6058L50.0452 10.1778H52.4322L46.5117 23.7855H44.1248Z" fill="#2A3546"/>
<path d="M57.4674 19.8761C56.5652 19.8761 55.7508 19.6694 55.024 19.2559C54.3098 18.8299 53.746 18.2472 53.3325 17.5079C52.9315 16.7561 52.731 15.8978 52.731 14.933C52.731 13.9431 52.9378 13.0786 53.3513 12.3393C53.7648 11.5875 54.3286 11.0048 55.0428 10.5913C55.7696 10.1653 56.584 9.95231 57.4862 9.95231C58.3883 9.95231 59.1965 10.1653 59.9108 10.5913C60.6375 11.0048 61.2014 11.5812 61.6023 12.3205C62.0158 13.0598 62.2225 13.9243 62.2225 14.9142C62.2225 15.9041 62.0158 16.7687 61.6023 17.5079C61.1888 18.2472 60.6187 18.8299 59.892 19.2559C59.1777 19.6694 58.3696 19.8761 57.4674 19.8761ZM57.4674 17.9402C57.9185 17.9402 58.3257 17.8275 58.6891 17.6019C59.065 17.3764 59.3657 17.0381 59.5912 16.587C59.8168 16.1359 59.9295 15.5783 59.9295 14.9142C59.9295 14.2501 59.8168 13.6988 59.5912 13.2602C59.3782 12.8092 59.0838 12.4709 58.7079 12.2453C58.3445 12.0198 57.9373 11.907 57.4862 11.907C57.0476 11.907 56.6404 12.0198 56.2645 12.2453C55.8886 12.4709 55.5879 12.8092 55.3623 13.2602C55.1368 13.6988 55.024 14.2501 55.024 14.9142C55.024 15.5783 55.1368 16.1359 55.3623 16.587C55.5879 17.0381 55.8823 17.3764 56.2457 17.6019C56.6216 17.8275 57.0288 17.9402 57.4674 17.9402Z" fill="#2A3546"/>
<path d="M64.0921 19.6506V10.1778H66.0844L66.2535 11.7566C66.5417 11.2053 66.9552 10.7668 67.494 10.441C68.0328 10.1152 68.6718 9.95231 69.4111 9.95231C70.1754 9.95231 70.827 10.1152 71.3658 10.441C71.9046 10.7542 72.3181 11.2178 72.6063 11.8318C72.907 12.4458 73.0573 13.2101 73.0573 14.1248V19.6506H70.8019V14.3316C70.8019 13.5422 70.6265 12.9345 70.2757 12.5084C69.9248 12.0824 69.4048 11.8694 68.7157 11.8694C68.2646 11.8694 67.8574 11.9759 67.494 12.1889C67.1431 12.4019 66.8612 12.7152 66.6482 13.1287C66.4477 13.5296 66.3475 14.0183 66.3475 14.5947V19.6506H64.0921Z" fill="#2A3546"/>
<path d="M79.5701 19.8761C78.693 19.8761 77.9099 19.6631 77.2208 19.2371C76.5316 18.8111 75.9928 18.2222 75.6044 17.4704C75.2285 16.7185 75.0405 15.8665 75.0405 14.9142C75.0405 13.9619 75.2347 13.1161 75.6232 12.3769C76.0116 11.6251 76.5504 11.0362 77.2396 10.6101C77.9412 10.1716 78.7306 9.95231 79.6077 9.95231C80.322 9.95231 80.9422 10.0901 81.4685 10.3658C82.0072 10.6289 82.4333 11.0048 82.7465 11.4935V6.1181H85.0019V19.6506H82.9721L82.7465 18.2785C82.546 18.5542 82.3017 18.8173 82.0135 19.0679C81.7253 19.306 81.3807 19.5002 80.9798 19.6506C80.5788 19.8009 80.1089 19.8761 79.5701 19.8761ZM80.04 17.9214C80.5788 17.9214 81.055 17.7961 81.4685 17.5455C81.8819 17.2824 82.2015 16.9253 82.427 16.4742C82.6525 16.0231 82.7653 15.5031 82.7653 14.9142C82.7653 14.3253 82.6525 13.8053 82.427 13.3542C82.2015 12.9031 81.8819 12.5523 81.4685 12.3017C81.055 12.0511 80.5788 11.9258 80.04 11.9258C79.5263 11.9258 79.0627 12.0511 78.6492 12.3017C78.2357 12.5523 77.9099 12.9031 77.6718 13.3542C77.4463 13.8053 77.3335 14.3253 77.3335 14.9142C77.3335 15.5031 77.4463 16.0231 77.6718 16.4742C77.9099 16.9253 78.2357 17.2824 78.6492 17.5455C79.0627 17.7961 79.5263 17.9214 80.04 17.9214Z" fill="#2A3546"/>
<path d="M92.0028 19.8761C91.0505 19.8761 90.2048 19.707 89.4655 19.3687C88.7262 19.0303 88.1498 18.5479 87.7363 17.9214C87.3228 17.2949 87.1098 16.5494 87.0973 15.6848H89.4843C89.4843 16.1234 89.5845 16.5181 89.785 16.8689C89.998 17.2072 90.2862 17.4766 90.6496 17.6771C91.0255 17.8776 91.4766 17.9778 92.0028 17.9778C92.4539 17.9778 92.8423 17.9089 93.1681 17.7711C93.5064 17.6207 93.7633 17.414 93.9387 17.1508C94.1267 16.8752 94.2206 16.5557 94.2206 16.1923C94.2206 15.7788 94.1204 15.4405 93.9199 15.1773C93.732 14.9017 93.4688 14.6699 93.1305 14.4819C92.7922 14.294 92.4038 14.1311 91.9652 13.9933C91.5267 13.8429 91.0631 13.6863 90.5744 13.5234C89.5344 13.1725 88.7513 12.7277 88.225 12.1889C87.6987 11.6376 87.4356 10.9046 87.4356 9.9899C87.4356 9.22556 87.6173 8.56773 87.9807 8.01641C88.344 7.46509 88.8515 7.03906 89.5031 6.73834C90.1672 6.42509 90.9315 6.26846 91.7961 6.26846C92.6732 6.26846 93.4375 6.42509 94.0891 6.73834C94.7532 7.05159 95.2732 7.49015 95.6491 8.054C96.0375 8.60532 96.238 9.26942 96.2505 10.0463H93.8447C93.8322 9.7205 93.7445 9.41978 93.5816 9.14412C93.4187 8.85592 93.1806 8.62412 92.8674 8.4487C92.5667 8.26075 92.197 8.16677 91.7585 8.16677C91.3826 8.15424 91.0443 8.21689 90.7435 8.35472C90.4554 8.48002 90.2235 8.66797 90.0481 8.91857C89.8852 9.15665 89.8038 9.45737 89.8038 9.82074C89.8038 10.1716 89.879 10.466 90.0293 10.7041C90.1922 10.9297 90.424 11.1239 90.7248 11.2868C91.0255 11.4371 91.3763 11.5812 91.7773 11.719C92.1782 11.8569 92.6168 12.0072 93.0929 12.1701C93.7445 12.3831 94.3334 12.6463 94.8597 12.9595C95.3985 13.2602 95.8245 13.6549 96.1377 14.1436C96.451 14.6323 96.6076 15.2651 96.6076 16.0419C96.6076 16.7185 96.4322 17.3513 96.0814 17.9402C95.7305 18.5166 95.2168 18.9865 94.5402 19.3499C93.8635 19.7007 93.0178 19.8761 92.0028 19.8761Z" fill="#2A3546"/>
<path d="M98.6127 19.6506V6.494H107.108V8.31713H100.868V12.0949H106.544V13.8805H100.868V17.8275H107.108V19.6506H98.6127Z" fill="#2A3546"/>
<path d="M115.098 19.8761C113.833 19.8761 112.711 19.5942 111.734 19.0303C110.769 18.454 110.011 17.6583 109.46 16.6434C108.908 15.6159 108.633 14.4255 108.633 13.0723C108.633 11.7316 108.908 10.5537 109.46 9.53881C110.011 8.51135 110.769 7.70942 111.734 7.13304C112.711 6.55666 113.833 6.26846 115.098 6.26846C116.389 6.26846 117.523 6.55666 118.5 7.13304C119.478 7.70942 120.236 8.51135 120.774 9.53881C121.313 10.5537 121.583 11.7316 121.583 13.0723C121.583 14.4255 121.313 15.6159 120.774 16.6434C120.236 17.6583 119.478 18.454 118.5 19.0303C117.523 19.5942 116.389 19.8761 115.098 19.8761ZM115.117 17.8463C115.957 17.8463 116.69 17.6583 117.316 17.2824C117.943 16.894 118.425 16.3426 118.763 15.6284C119.102 14.9142 119.271 14.0622 119.271 13.0723C119.271 12.0824 119.102 11.2304 118.763 10.5162C118.425 9.80194 117.943 9.25689 117.316 8.88098C116.69 8.49255 115.957 8.29834 115.117 8.29834C114.278 8.29834 113.545 8.49255 112.918 8.88098C112.292 9.25689 111.803 9.80194 111.452 10.5162C111.114 11.2304 110.945 12.0824 110.945 13.0723C110.945 14.0622 111.114 14.9142 111.452 15.6284C111.803 16.3426 112.292 16.894 112.918 17.2824C113.545 17.6583 114.278 17.8463 115.117 17.8463Z" fill="#2A3546"/>
<defs>
<radialGradient id="paint0_radial_17_167" cx="0" cy="0" r="1" gradientTransform="matrix(4.48325 10.3544 -20.9809 20.8482 3.62575 7.18211)" gradientUnits="userSpaceOnUse">
<stop offset="0.122966" stop-color="#FF00FF"/>
<stop offset="0.517761" stop-color="#FF00FF" stop-opacity="0"/>
</radialGradient>
<radialGradient id="paint1_radial_17_167" cx="0" cy="0" r="1" gradientTransform="matrix(0.401786 9.04309 -18.0468 1.84015 8.21758 3.84892)" gradientUnits="userSpaceOnUse">
<stop stop-color="#FF00FF"/>
<stop offset="0.755637" stop-color="#FF00FF" stop-opacity="0"/>
</radialGradient>
<radialGradient id="paint2_radial_17_167" cx="0" cy="0" r="1" gradientTransform="matrix(-5.26147 0.753592 -0.670921 -10.7502 10.59 15.5006)" gradientUnits="userSpaceOnUse">
<stop offset="0.305763" stop-color="#00F9FF"/>
<stop offset="0.458159" stop-color="#00F9FF" stop-opacity="0"/>
</radialGradient>
<radialGradient id="paint3_radial_17_167" cx="0" cy="0" r="1" gradientTransform="matrix(-7.22474 -1.42511 1.26877 -14.7616 11.3037 19.1892)" gradientUnits="userSpaceOnUse">
<stop offset="0.186401" stop-color="#00F9FF"/>
<stop offset="0.503027" stop-color="#00F9FF" stop-opacity="0"/>
</radialGradient>
<radialGradient id="paint4_radial_17_167" cx="0" cy="0" r="1" gradientTransform="matrix(-9.33672 0.260859 -0.22886 -18.799 10.9535 19.2975)" gradientUnits="userSpaceOnUse">
<stop offset="0.296002" stop-color="#00F9FF"/>
<stop offset="0.782677" stop-color="#00F9FF" stop-opacity="0"/>
</radialGradient>
</defs>
</svg>
