<svg width="16" height="20" viewBox="0 0 16 20" fill="none" xmlns="http://www.w3.org/2000/svg"><path d="M7.45 18C7.3968 18 7.34309 17.9922 7.29053 17.9754C7.05843 17.9022 6.89997 17.6802 6.89997 17.4286V11.7144H3.04998C2.84703 11.7144 2.66056 11.5984 2.56494 11.4125C2.46931 11.2266 2.48002 11.0013 2.5923 10.8261L8.09228 2.25479C8.22643 2.04487 8.47797 1.9512 8.70933 2.02494C8.94156 2.09775 9.10002 2.31989 9.10002 2.57166V8.28584H12.95C13.153 8.28584 13.3394 8.40183 13.4351 8.58771C13.5307 8.77358 13.52 8.99892 13.4077 9.17416L7.90771 17.7454C7.80387 17.9071 7.63043 18 7.45 18Z" fill="#3C28CC"/><path d="M2.56494 11.4125L1.67572 11.87C1.41734 11.3678 1.44532 10.7626 1.75032 10.2866L1.75067 10.286L7.24964 1.71631C7.24988 1.71594 7.25011 1.71557 7.25035 1.71521C7.61989 1.138 8.33472 0.855976 9.013 1.07216L8.70933 2.02494L9.00848 1.07073C9.67853 1.2808 10.1 1.90502 10.1 2.57166L2.56494 11.4125ZM2.56494 11.4125L1.67572 11.87C1.93639 12.3767 2.45875 12.7144 3.04998 12.7144H5.89997V17.4286C5.89997 18.0953 6.32127 18.7176 6.98839 18.9287L2.56494 11.4125Z" stroke="#8377E4" stroke-opacity="0.2" stroke-width="2"/></svg>
   