<svg width="16" height="16" viewBox="0 0 16 16" fill="none" xmlns="http://www.w3.org/2000/svg">
<path d="M14 0H2C0.9 0 0 0.900001 0 2V14C0 15.1 0.9 16 2 16H4V14H2V4H14V5H16V2C16 0.900001 15.1 0 14 0ZM13.9333 8.48333L15.1 7.31667L13.6833 5.9L12.5167 7.06667C12.2 6.88333 11.8667 6.73333 11.5 6.63333V5H9.5V6.63333C9.13333 6.73333 8.8 6.88333 8.48333 7.06667L7.31667 5.9L5.9 7.31667L7.06667 8.48333C6.88333 8.8 6.73333 9.13333 6.63333 9.5H5V11.5H6.63333C6.73333 11.8667 6.88333 12.2 7.06667 12.5167L5.9 13.6833L7.31667 15.1L8.48333 13.9333C8.8 14.1167 9.13333 14.2667 9.5 14.3667V16H11.5V14.3667C11.8667 14.2667 12.2 14.1167 12.5167 13.9333L13.6833 15.1L15.1 13.6833L13.9333 12.5167C14.1167 12.2 14.2667 11.8667 14.35 11.5H16V9.5H14.35C14.2667 9.13333 14.1167 8.8 13.9333 8.48333ZM10.5 12.5C9.4 12.5 8.5 11.6 8.5 10.5C8.5 9.4 9.4 8.5 10.5 8.5C11.6 8.5 12.5 9.4 12.5 10.5C12.5 11.6 11.6 12.5 10.5 12.5Z" fill="#003B99"/>
</svg>
