<svg width="161" height="22" viewBox="0 0 161 22" fill="none" xmlns="http://www.w3.org/2000/svg">
<path d="M90.1614 5.91797C90.9093 5.91801 91.6207 6.07972 92.2952 6.40234C92.9845 6.72501 93.5272 7.21605 93.9232 7.87598H93.9671V6.2041H95.9691V16.1035C95.9691 16.8662 95.8736 17.5929 95.6829 18.2822C95.4923 18.9861 95.1697 19.602 94.7151 20.1299C94.2605 20.6726 93.6663 21.1051 92.9329 21.4277C92.1997 21.7504 91.2906 21.9121 90.2054 21.9121C89.2962 21.9121 88.3793 21.7435 87.4554 21.4062C86.5461 21.0836 85.7609 20.6209 85.1009 20.0195L86.4212 18.4141C86.8759 18.9274 87.4409 19.3385 88.1155 19.6465C88.8046 19.9543 89.5085 20.1084 90.2269 20.1084C90.9162 20.1084 91.4958 20.0051 91.9651 19.7998C92.4344 19.6092 92.8086 19.3382 93.0872 18.9863C93.3805 18.6491 93.5861 18.2456 93.7034 17.7764C93.8354 17.307 93.9007 16.8005 93.9007 16.2578V14.916H93.8568C93.4755 15.5025 92.9551 15.9498 92.2952 16.2578C91.6352 16.5658 90.9309 16.7197 90.1829 16.7197C89.391 16.7197 88.6651 16.5804 88.0052 16.3018C87.3599 16.0231 86.8095 15.6422 86.3548 15.1582C85.9002 14.6742 85.5485 14.1092 85.2991 13.4639C85.0498 12.8039 84.9251 12.0995 84.9251 11.3516C84.9252 10.6038 85.0499 9.90005 85.2991 9.24023C85.5484 8.58041 85.9003 8.00833 86.3548 7.52441C86.8094 7.02577 87.3599 6.63706 88.0052 6.3584C88.6505 6.06506 89.3694 5.91797 90.1614 5.91797ZM8.67804 0.999023C8.68836 0.997374 13.7199 0.192703 14.4554 1.03223C15.1911 1.87244 15.2049 2.81054 14.9622 3.36035C14.7475 3.8465 12.8845 7.92723 12.4261 8.94922C13.6253 9.80575 14.7168 11.2139 14.9622 12.7324C15.4704 15.8743 14.0786 20.0681 7.26593 19.6338C4.81411 19.6338 0.534644 18.7572 0.0559716 15.0029C-0.420319 11.2603 2.29924 8.06815 2.31574 8.04883L8.31085 1.19824C8.39148 1.1064 8.55816 1.01706 8.67804 0.999023ZM14.097 1.53809C13.9287 1.30158 13.5776 1.2239 13.3812 1.52832C13.3482 1.57779 7.89484 9.76417 7.89484 13.6455C7.89504 17.5387 9.8583 18.3066 11.0403 18.3066C12.2227 18.3062 14.3958 16.6671 14.3187 13.5283C14.2418 10.4106 11.5056 9.12692 11.47 9.11035L14.3538 2.77441C14.4035 2.66406 14.4305 2.45121 14.4095 2.33301C14.3679 2.1029 14.2217 1.71304 14.097 1.53809ZM107.293 0.660156C107.821 0.660156 108.357 0.711787 108.9 0.814453C109.442 0.917107 109.963 1.0711 110.461 1.27637C110.96 1.48168 111.415 1.73794 111.826 2.0459C112.236 2.33919 112.588 2.68415 112.881 3.08008L111.165 4.40039C110.784 3.87239 110.241 3.4389 109.537 3.10156C108.848 2.74968 108.1 2.57422 107.293 2.57422C106.384 2.57426 105.563 2.74279 104.829 3.08008C104.111 3.40271 103.495 3.84999 102.982 4.42188C102.468 4.99386 102.072 5.66118 101.793 6.42383C101.515 7.17183 101.375 7.9716 101.375 8.82227C101.375 9.70217 101.508 10.5235 101.772 11.2861C102.05 12.0487 102.439 12.7161 102.938 13.2881C103.451 13.8454 104.067 14.2858 104.785 14.6084C105.519 14.9311 106.333 15.0918 107.228 15.0918C108.108 15.0918 108.907 14.9163 109.625 14.5645C110.344 14.2125 110.938 13.6989 111.408 13.0244L113.146 14.2119C112.53 15.0479 111.73 15.7298 110.747 16.2578C109.765 16.7711 108.584 17.0283 107.205 17.0283C106.017 17.0283 104.918 16.8296 103.906 16.4336C102.908 16.023 102.043 15.4587 101.31 14.7402C100.591 14.0069 100.026 13.1409 99.6155 12.1436C99.205 11.1317 98.9994 10.0247 98.9993 8.82227C98.9993 7.60494 99.2049 6.49733 99.6155 5.5C100.041 4.488 100.62 3.62978 101.354 2.92578C102.102 2.20724 102.982 1.64987 103.993 1.25391C105.005 0.857944 106.105 0.660194 107.293 0.660156ZM119.928 5.91797C120.72 5.91798 121.46 6.05734 122.15 6.33594C122.839 6.59994 123.433 6.97401 123.932 7.45801C124.445 7.94201 124.842 8.52162 125.12 9.19629C125.414 9.85618 125.56 10.59 125.56 11.3965C125.56 12.203 125.414 12.9436 125.12 13.6182C124.842 14.2928 124.445 14.8793 123.932 15.3779C123.433 15.8619 122.839 16.2438 122.15 16.5225C121.461 16.7864 120.72 16.918 119.928 16.918C119.136 16.918 118.396 16.7863 117.706 16.5225C117.017 16.2438 116.423 15.8619 115.924 15.3779C115.425 14.8793 115.029 14.2928 114.736 13.6182C114.457 12.9436 114.318 12.203 114.318 11.3965C114.318 10.59 114.457 9.8562 114.736 9.19629C115.029 8.52162 115.425 7.94201 115.924 7.45801C116.423 6.97404 117.017 6.59992 117.706 6.33594C118.396 6.05737 119.136 5.91797 119.928 5.91797ZM145.236 5.91797C145.969 5.91798 146.695 6.06508 147.413 6.3584C148.147 6.65172 148.726 7.07649 149.152 7.63379L147.656 8.84375C147.436 8.50649 147.105 8.22778 146.665 8.00781C146.225 7.77323 145.756 7.65625 145.257 7.65625C144.715 7.6563 144.231 7.75871 143.806 7.96387C143.395 8.1692 143.043 8.44781 142.749 8.7998C142.456 9.13714 142.229 9.53362 142.068 9.98828C141.921 10.4429 141.848 10.9194 141.848 11.418C141.848 11.9165 141.921 12.3931 142.068 12.8477C142.229 13.3022 142.456 13.7057 142.749 14.0576C143.043 14.3949 143.402 14.6667 143.827 14.8721C144.253 15.0774 144.737 15.1797 145.28 15.1797C145.807 15.1797 146.284 15.0773 146.709 14.8721C147.149 14.6668 147.509 14.3881 147.787 14.0361L149.173 15.29C148.733 15.8032 148.184 16.2067 147.524 16.5C146.864 16.7787 146.116 16.918 145.28 16.918C144.473 16.918 143.725 16.7864 143.035 16.5225C142.361 16.2585 141.774 15.8912 141.276 15.4219C140.777 14.9379 140.381 14.3583 140.087 13.6836C139.809 13.009 139.669 12.2538 139.669 11.418C139.669 10.5966 139.809 9.84849 140.087 9.17383C140.366 8.49918 140.755 7.91954 141.253 7.43555C141.752 6.95158 142.339 6.57844 143.014 6.31445C143.703 6.05051 144.444 5.91797 145.236 5.91797ZM34.8929 5.91797C35.6409 5.91797 36.2867 6.02805 36.8294 6.24805C37.3866 6.45337 37.8408 6.73986 38.1927 7.10645C38.5447 7.4731 38.8087 7.90566 38.9847 8.4043C39.1606 8.90285 39.2493 9.43791 39.2493 10.0098V14.5645C39.2493 14.9162 39.2562 15.2899 39.2708 15.6855C39.3001 16.0668 39.344 16.3825 39.4027 16.6318H37.5325C37.4152 16.1333 37.3568 15.6343 37.3568 15.1357H37.2913C36.9101 15.693 36.4257 16.1256 35.8392 16.4336C35.2672 16.7416 34.5852 16.8965 33.7933 16.8965C33.3827 16.8965 32.95 16.837 32.4954 16.7197C32.0556 16.6171 31.652 16.4415 31.2855 16.1924C30.9188 15.943 30.61 15.6128 30.3607 15.2021C30.126 14.7915 30.0091 14.2849 30.0091 13.6836C30.0092 12.892 30.2218 12.269 30.6468 11.8145C31.0721 11.3452 31.6295 10.9925 32.3187 10.7578C33.0079 10.5085 33.7855 10.3478 34.6507 10.2744C35.516 10.2011 36.3889 10.1641 37.2689 10.1641V9.87793C37.2688 9.10063 37.0341 8.52876 36.5648 8.16211C36.0954 7.78083 35.4719 7.58984 34.6946 7.58984C34.1081 7.58989 33.5507 7.70777 33.0228 7.94238C32.5096 8.16235 32.0768 8.44791 31.7249 8.7998L30.6253 7.48047C31.1386 6.99647 31.7621 6.6146 32.4954 6.33594C33.2433 6.05738 34.0424 5.91798 34.8929 5.91797ZM132.541 5.91797C133.289 5.91797 133.935 6.02805 134.478 6.24805C135.035 6.45338 135.49 6.73981 135.842 7.10645C136.194 7.47302 136.458 7.90583 136.634 8.4043C136.81 8.90279 136.898 9.438 136.898 10.0098V14.5645C136.898 14.9162 136.905 15.2899 136.919 15.6855C136.949 16.0668 136.993 16.3825 137.052 16.6318H135.182C135.065 16.1332 135.006 15.6344 135.006 15.1357H134.94C134.558 15.693 134.074 16.1256 133.488 16.4336C132.916 16.7416 132.234 16.8965 131.442 16.8965C131.031 16.8965 130.598 16.837 130.144 16.7197C129.704 16.6171 129.3 16.4416 128.934 16.1924C128.567 15.9431 128.259 15.6127 128.01 15.2021C127.775 14.7915 127.658 14.2849 127.658 13.6836C127.658 12.8921 127.87 12.269 128.295 11.8145C128.721 11.3451 129.279 10.9925 129.968 10.7578C130.657 10.5086 131.435 10.3477 132.3 10.2744C133.165 10.2011 134.038 10.1641 134.917 10.1641V9.87793C134.917 9.10082 134.683 8.52878 134.214 8.16211C133.745 7.78083 133.121 7.5899 132.344 7.58984C131.757 7.58984 131.2 7.70779 130.672 7.94238C130.159 8.16238 129.725 8.4478 129.373 8.7998L128.274 7.48047C128.787 6.99647 129.411 6.6146 130.144 6.33594C130.892 6.05735 131.691 5.91801 132.541 5.91797ZM28.3021 5.91797C28.6245 5.918 28.8957 5.94724 29.1155 6.00586L29.0277 7.91992C28.7343 7.84659 28.4187 7.80957 28.0814 7.80957C27.5828 7.8096 27.1501 7.90508 26.7835 8.0957C26.4168 8.2717 26.109 8.51427 25.8597 8.82227C25.6251 9.13024 25.4487 9.48978 25.3314 9.90039C25.2141 10.2963 25.1556 10.7145 25.1556 11.1543V16.6318H23.0872V8.44824C23.0872 8.1696 23.0804 7.81006 23.0657 7.37012C23.0511 6.93015 23.0287 6.54142 22.9993 6.2041H24.9573C24.9867 6.46807 25.0091 6.77599 25.0237 7.12793C25.0384 7.46519 25.0452 7.74389 25.0452 7.96387H25.1116C25.405 7.34792 25.8307 6.85688 26.388 6.49023C26.96 6.10897 27.5981 5.91797 28.3021 5.91797ZM48.1146 5.91797C48.7891 5.91797 49.3689 6.03492 49.8528 6.26953C50.3368 6.48951 50.7402 6.79059 51.0628 7.17188C51.3854 7.55314 51.6202 8.00046 51.7669 8.51367C51.9282 9.02701 52.0091 9.5774 52.0091 10.1641V16.6318H49.9407V10.8457C49.9407 10.4205 49.9037 10.017 49.8304 9.63574C49.7717 9.25454 49.6548 8.91727 49.4788 8.62402C49.3029 8.33077 49.0611 8.09591 48.7532 7.91992C48.4452 7.74392 48.0488 7.65625 47.5648 7.65625C46.7437 7.65627 46.0692 7.97125 45.5413 8.60156C45.028 9.21754 44.7708 10.0466 44.7708 11.0879V16.6318H42.7025V8.44824C42.7025 8.1696 42.6956 7.81006 42.681 7.37012C42.6663 6.93015 42.6439 6.54142 42.6146 6.2041H44.5726C44.6019 6.46808 44.6243 6.76914 44.639 7.10645C44.6536 7.42888 44.6605 7.70004 44.6605 7.91992H44.7269C44.8589 7.6413 45.0352 7.38503 45.2552 7.15039C45.4899 6.90106 45.7538 6.68772 46.0472 6.51172C46.3404 6.32117 46.6631 6.17489 47.015 6.07227C47.3669 5.96963 47.7333 5.91799 48.1146 5.91797ZM57.6194 10.7363H57.6859L62.0638 6.2041H64.8353L59.9515 10.9336L65.2532 16.6318H62.3939L57.6859 11.2197H57.6194V16.6318H55.5511V0H57.6194V10.7363ZM69.1995 16.6318H67.1312V6.2041H69.1995V16.6318ZM78.2142 5.91797C78.8888 5.91797 79.4685 6.03492 79.9525 6.26953C80.4364 6.48951 80.8398 6.79059 81.1624 7.17188C81.485 7.55314 81.7198 8.00046 81.8665 8.51367C82.0279 9.02701 82.1087 9.5774 82.1087 10.1641V16.6318H80.0403V10.8457C80.0403 10.4205 80.0033 10.017 79.93 9.63574C79.8713 9.25454 79.7544 8.91727 79.5784 8.62402C79.4025 8.33077 79.1607 8.09591 78.8528 7.91992C78.5448 7.74392 78.1484 7.65625 77.6644 7.65625C76.8433 7.65627 76.1689 7.97125 75.6409 8.60156C75.1276 9.21754 74.8704 10.0466 74.8704 11.0879V16.6318H72.8021V8.44824C72.8021 8.1696 72.7952 7.81006 72.7806 7.37012C72.7659 6.93015 72.7435 6.54142 72.7142 6.2041H74.6722C74.7015 6.46808 74.7239 6.76914 74.7386 7.10645C74.7532 7.42888 74.7601 7.70004 74.7601 7.91992H74.8265C74.9585 7.6413 75.1348 7.38503 75.3548 7.15039C75.5895 6.90106 75.8535 6.68772 76.1468 6.51172C76.44 6.32117 76.7627 6.17489 77.1146 6.07227C77.4665 5.96963 77.833 5.91799 78.2142 5.91797ZM153.334 7.78809H153.378C153.628 7.27475 154.053 6.83444 154.655 6.46777C155.256 6.10114 155.931 5.91797 156.679 5.91797C157.353 5.91801 157.932 6.03505 158.416 6.26953C158.9 6.48948 159.304 6.79066 159.626 7.17188C159.949 7.55312 160.184 8.00049 160.33 8.51367C160.492 9.02701 160.573 9.5774 160.573 10.1641V16.6318H158.504V10.8682C158.504 10.4429 158.468 10.0395 158.395 9.6582C158.336 9.27696 158.218 8.93977 158.042 8.64648C157.866 8.35322 157.625 8.11837 157.317 7.94238C157.023 7.76639 156.635 7.67774 156.151 7.67773C155.329 7.67773 154.654 7.99336 154.126 8.62402C153.598 9.24 153.334 10.0691 153.334 11.1104V16.6318H151.267V0H153.334V7.78809ZM36.763 11.6602C36.2497 11.6602 35.7139 11.6816 35.1566 11.7256C34.6142 11.7696 34.1159 11.8583 33.6614 11.9902C33.2214 12.1222 32.8542 12.32 32.5609 12.584C32.2677 12.8479 32.1215 13.1999 32.1214 13.6396C32.1214 13.9476 32.1798 14.2048 32.2972 14.4102C32.4292 14.6154 32.5978 14.7841 32.803 14.916C33.0083 15.048 33.2355 15.1435 33.4847 15.2021C33.734 15.2461 33.9912 15.2676 34.2552 15.2676C35.223 15.2675 35.9636 14.982 36.4769 14.4102C37.0049 13.8235 37.2689 13.09 37.2689 12.21V11.6602H36.763ZM134.411 11.6602C133.898 11.6602 133.363 11.6816 132.806 11.7256C132.263 11.7696 131.765 11.8582 131.31 11.9902C130.87 12.1222 130.503 12.32 130.209 12.584C129.916 12.8479 129.77 13.1999 129.77 13.6396C129.77 13.9476 129.828 14.2048 129.946 14.4102C130.078 14.6154 130.246 14.784 130.451 14.916C130.657 15.048 130.885 15.1435 131.134 15.2021C131.383 15.2461 131.64 15.2676 131.904 15.2676C132.871 15.2676 133.612 14.982 134.125 14.4102C134.653 13.8235 134.917 13.09 134.917 12.21V11.6602H134.411ZM119.928 7.63379C119.371 7.63379 118.872 7.73705 118.432 7.94238C118.007 8.14771 117.647 8.42637 117.354 8.77832C117.061 9.11554 116.833 9.51136 116.672 9.96582C116.526 10.4205 116.452 10.8978 116.452 11.3965C116.453 11.895 116.526 12.3717 116.672 12.8262C116.834 13.2808 117.061 13.6842 117.354 14.0361C117.647 14.3881 118.007 14.6667 118.432 14.8721C118.872 15.0774 119.371 15.1797 119.928 15.1797C120.485 15.1797 120.976 15.0773 121.402 14.8721C121.842 14.6667 122.209 14.3881 122.502 14.0361C122.796 13.6842 123.016 13.2808 123.162 12.8262C123.324 12.3717 123.404 11.895 123.404 11.3965C123.404 10.8978 123.324 10.4205 123.162 9.96582C123.016 9.51131 122.795 9.11558 122.502 8.77832C122.209 8.42632 121.842 8.14772 121.402 7.94238C120.976 7.73709 120.485 7.6338 119.928 7.63379ZM90.513 7.63379C89.9704 7.63381 89.4862 7.73707 89.0609 7.94238C88.6357 8.13304 88.2691 8.39714 87.9612 8.73438C87.668 9.05701 87.4409 9.4458 87.2796 9.90039C87.133 10.3402 87.0589 10.8092 87.0589 11.3076C87.0589 11.7916 87.1329 12.2543 87.2796 12.6943C87.4409 13.1342 87.668 13.5231 87.9612 13.8604C88.2691 14.1975 88.6357 14.4686 89.0609 14.6738C89.4862 14.8791 89.9704 14.9824 90.513 14.9824C91.041 14.9824 91.5252 14.8869 91.9651 14.6963C92.4052 14.5056 92.7792 14.2484 93.0872 13.9258C93.3951 13.5885 93.63 13.1997 93.7913 12.7598C93.9673 12.3052 94.055 11.8209 94.055 11.3076C94.0549 10.8092 93.9672 10.3402 93.7913 9.90039C93.63 9.46039 93.3874 9.07171 93.0648 8.73438C92.7568 8.39704 92.3827 8.13305 91.9427 7.94238C91.5174 7.73712 91.0409 7.63379 90.513 7.63379ZM68.1653 1.09961C68.5466 1.09967 68.8692 1.23215 69.1331 1.49609C69.4117 1.74542 69.5511 2.06108 69.5511 2.44238C69.551 2.82347 69.4116 3.13847 69.1331 3.3877C68.8692 3.63697 68.5466 3.76166 68.1653 3.76172C67.7841 3.76172 67.4616 3.63697 67.1976 3.3877C66.9337 3.12379 66.8012 2.80889 66.8011 2.44238C66.8011 2.06105 66.9336 1.74543 67.1976 1.49609C67.4615 1.23222 67.7841 1.09961 68.1653 1.09961ZM11.3636 1.87012C11.3575 1.86987 10.5836 1.83814 10.0482 1.87891C9.51062 1.91983 9.11359 1.96094 9.11359 1.96094C9.03579 1.96865 8.93442 2.02235 8.888 2.08008L8.40363 2.68652C8.33303 2.77478 8.37052 2.84563 8.48859 2.8457H9.56378C9.74842 2.84575 10.8257 2.87944 10.8402 2.87988C10.9185 2.88303 11.016 2.83534 11.0569 2.77344L11.4984 2.10547C11.5808 1.98072 11.5206 1.87461 11.3636 1.87012Z" fill="#002766"/>
</svg>
