<svg width="12" height="14" viewBox="0 0 12 14" fill="none" xmlns="http://www.w3.org/2000/svg">
<g id="rc Logo">
<path id="Symbol" fill-rule="evenodd" clip-rule="evenodd" d="M1.62116 5.63399L5.81815 0.838967C5.87458 0.774674 5.99092 0.711635 6.07484 0.699008C6.07484 0.699008 9.60356 0.134258 10.1189 0.722527C10.634 1.3107 10.6438 1.96721 10.4739 2.3521C10.3239 2.69168 9.01921 5.54869 8.69827 6.26419C9.53783 6.86374 10.3021 7.84943 10.4739 8.91252C10.8297 11.1119 9.8554 14.0476 5.08623 13.7435C3.36995 13.7435 0.374282 13.1304 0.0392115 10.5024C-0.295365 7.87449 1.62116 5.63399 1.62116 5.63399ZM7.72819 12.8146C8.55574 12.8146 10.0774 11.6674 10.0234 9.46998C9.96929 7.27322 8.02905 6.37715 8.02905 6.37715L10.0482 1.94202C10.0829 1.86477 10.1013 1.71615 10.0866 1.63341C10.0575 1.47236 9.95554 1.19939 9.86822 1.07687C9.75045 0.911203 9.50449 0.856397 9.36698 1.06955C9.36698 1.06955 5.52638 6.82658 5.52638 9.55176C5.52648 12.2771 6.90074 12.8146 7.72819 12.8146ZM6.69468 1.99235H5.9424C5.85966 1.99235 5.83306 1.94224 5.8825 1.88043L6.22168 1.45636C6.25411 1.41582 6.3253 1.3778 6.37989 1.37244C6.37989 1.37244 6.65773 1.34405 7.03402 1.31541C7.41031 1.28676 7.9548 1.30924 7.9548 1.30924C8.06469 1.31239 8.10669 1.3862 8.04897 1.47352L7.73985 1.9412C7.7112 1.98455 7.64333 2.01818 7.58848 2.01598C7.58848 2.01598 6.82408 1.99235 6.69468 1.99235Z" fill="#8699B6"/>
</g>
</svg>
