<svg width="128" height="128" viewBox="0 0 128 128" fill="none" xmlns="http://www.w3.org/2000/svg">
<g clip-path="url(#clip0_8885_22201)">
<path d="M36.1914 70.3978L128 70.4L123.462 19.8947C122.451 8.63852 112.773 0.00202942 101.169 0.00174713L29.8667 2.28882e-05L36.1914 70.3978Z" fill="#B84E00"/>
<path d="M5.29158 119.19C5.71993 124.175 9.81953 128 14.7343 128L51.2 127.999L45.1514 57.6L0 57.6016L5.29158 119.19Z" fill="url(#paint0_linear_8885_22201)"/>
<path d="M6.39999 28.8C6.39999 27.0327 7.83268 25.6 9.59999 25.6H118.4C120.167 25.6 121.6 27.0327 121.6 28.8V99.2C121.6 100.967 120.167 102.4 118.4 102.4H9.6C7.83268 102.4 6.39999 100.967 6.39999 99.2V28.8Z" fill="url(#paint1_linear_8885_22201)"/>
<path d="M6.39999 28.8C6.39999 27.0327 7.83268 25.6 9.59999 25.6H118.4C120.167 25.6 121.6 27.0327 121.6 28.8V99.2C121.6 100.967 120.167 102.4 118.4 102.4H9.6C7.83268 102.4 6.39999 100.967 6.39999 99.2V28.8Z" fill="url(#paint2_radial_8885_22201)" fill-opacity="0.3"/>
<rect x="16.6839" y="33.8417" width="7.46667" height="7.46667" rx="3.73333" fill="#988D85"/>
<rect x="30.1964" y="73.0687" width="7.46667" height="7.46667" rx="3.73333" fill="#FFA900"/>
<rect x="28.4172" y="35.4417" width="12.8" height="4.26667" rx="2.13333" fill="#988D85"/>
<rect x="45.4838" y="35.4417" width="25.6" height="4.26667" rx="2.13333" fill="#988D85"/>
<rect x="41.9297" y="74.6688" width="22.4" height="4.26667" rx="2.13333" fill="#FFA900"/>
<rect x="68.5964" y="74.6688" width="9.6" height="4.26667" rx="2.13333" fill="#FFA900"/>
<g style="mix-blend-mode:multiply">
<rect x="16.7563" y="55.4667" width="17.0667" height="3.2" rx="1.6" fill="#EBE7E5"/>
</g>
<g style="mix-blend-mode:multiply">
<rect x="85.0229" y="62.9333" width="17.0667" height="3.2" rx="1.6" fill="#EBE7E5"/>
</g>
<g style="mix-blend-mode:multiply">
<rect x="46.6229" y="62.9333" width="34.1333" height="3.2" rx="1.6" fill="#EBE7E5"/>
</g>
<g style="mix-blend-mode:multiply">
<rect x="38.0896" y="55.4667" width="25.6" height="3.2" rx="1.6" fill="#EBE7E5"/>
</g>
<g style="mix-blend-mode:multiply">
<rect x="67.9562" y="55.4667" width="29.8667" height="3.2" rx="1.6" fill="#EBE7E5"/>
</g>
<g style="mix-blend-mode:multiply">
<rect x="16.7563" y="62.9333" width="25.6" height="3.2" rx="1.6" fill="#EBE7E5"/>
</g>
<path d="M59.6022 92.5626C60.4857 92.5627 61.2016 93.2787 61.2018 94.1622C61.2018 95.0459 60.4858 95.7628 59.6022 95.7628H41.4684C40.5849 95.7626 39.8688 95.0458 39.8688 94.1622C39.8689 93.2788 40.585 92.5628 41.4684 92.5626H59.6022ZM98.0026 92.5626C98.8859 92.5629 99.602 93.2789 99.6022 94.1622C99.6022 95.0457 98.886 95.7626 98.0026 95.7628H67.069C66.1853 95.7628 65.4684 95.0459 65.4684 94.1622C65.4685 93.2787 66.1854 92.5626 67.069 92.5626H98.0026ZM55.3356 85.0958C56.219 85.0959 56.935 85.812 56.9352 86.6954C56.9352 87.579 56.2192 88.296 55.3356 88.296H41.4684C40.5849 88.2958 39.8688 87.579 39.8688 86.6954C39.869 85.8121 40.585 85.096 41.4684 85.0958H55.3356ZM85.2018 85.0958C86.0853 85.0958 86.8022 85.812 86.8024 86.6954C86.8024 87.5791 86.0854 88.296 85.2018 88.296H62.8024C61.9187 88.296 61.2018 87.5791 61.2018 86.6954C61.202 85.812 61.9188 85.0958 62.8024 85.0958H85.2018ZM106.536 85.0958C107.419 85.096 108.135 85.8121 108.135 86.6954C108.135 87.579 107.419 88.2958 106.536 88.296H92.6686C91.785 88.2959 91.069 87.579 91.069 86.6954C91.0692 85.812 91.7851 85.0959 92.6686 85.0958H106.536Z" fill="url(#paint3_linear_8885_22201)"/>
<path d="M27.2095 84.5857C27.7346 87.5637 30.5746 89.5523 33.5527 89.0272L33.6887 89.7986L33.6877 89.7987C30.7106 90.3238 28.7222 93.162 29.2457 96.1391L28.4763 96.2747C27.9493 93.2989 25.1105 91.3121 22.1337 91.837L21.9977 91.0657C24.9757 90.5406 26.9644 87.7015 26.4395 84.7234C26.4393 84.7222 26.439 84.7208 26.4388 84.7196L27.2091 84.5838L27.2095 84.5857Z" fill="white"/>
<path d="M19.6376 45.7795C19.7287 45.5605 20.039 45.5605 20.1301 45.7795L20.6677 47.0721C20.7061 47.1645 20.793 47.2275 20.8926 47.2355L22.2882 47.3474C22.5246 47.3664 22.6205 47.6614 22.4403 47.8157L21.3771 48.7265C21.3011 48.7916 21.268 48.8937 21.2912 48.9909L21.616 50.3527C21.6711 50.5834 21.4201 50.7658 21.2176 50.6422L20.0229 49.9124C19.9375 49.8603 19.8302 49.8603 19.7449 49.9124L18.5501 50.6422C18.3477 50.7658 18.0967 50.5834 18.1517 50.3527L18.4766 48.9909C18.4998 48.8937 18.4666 48.7916 18.3906 48.7265L17.3274 47.8157C17.1473 47.6614 17.2431 47.3664 17.4796 47.3474L18.8751 47.2355C18.9748 47.2275 19.0616 47.1645 19.1 47.0721L19.6376 45.7795Z" fill="#FFA900"/>
<path d="M27.1043 45.7795C27.1954 45.5605 27.5056 45.5605 27.5967 45.7795L28.1344 47.0721C28.1728 47.1645 28.2596 47.2275 28.3593 47.2355L29.7548 47.3474C29.9912 47.3664 30.0871 47.6614 29.907 47.8157L28.8437 48.7265C28.7678 48.7916 28.7346 48.8937 28.7578 48.9909L29.0827 50.3527C29.1377 50.5834 28.8867 50.7658 28.6843 50.6422L27.4895 49.9124C27.4042 49.8603 27.2968 49.8603 27.2115 49.9124L26.0168 50.6422C25.8143 50.7658 25.5633 50.5834 25.6184 50.3527L25.9432 48.9909C25.9664 48.8937 25.9332 48.7916 25.8573 48.7265L24.7941 47.8157C24.6139 47.6614 24.7098 47.3664 24.9462 47.3474L26.3417 47.2355C26.4414 47.2275 26.5283 47.1645 26.5667 47.0721L27.1043 45.7795Z" fill="#FFA900"/>
<path d="M34.571 45.7795C34.6621 45.5605 34.9723 45.5605 35.0634 45.7795L35.601 47.0721C35.6395 47.1645 35.7263 47.2275 35.826 47.2355L37.2215 47.3474C37.4579 47.3664 37.5538 47.6614 37.3736 47.8157L36.3104 48.7265C36.2345 48.7916 36.2013 48.8937 36.2245 48.9909L36.5493 50.3527C36.6044 50.5834 36.3534 50.7658 36.1509 50.6422L34.9562 49.9124C34.8709 49.8603 34.7635 49.8603 34.6782 49.9124L33.4834 50.6422C33.281 50.7658 33.03 50.5834 33.085 50.3527L33.4099 48.9909C33.4331 48.8937 33.3999 48.7916 33.324 48.7265L32.2607 47.8157C32.0806 47.6614 32.1765 47.3664 32.4129 47.3474L33.8084 47.2355C33.9081 47.2275 33.9949 47.1645 34.0333 47.0721L34.571 45.7795Z" fill="#FFA900"/>
<path d="M42.0376 45.7795C42.1287 45.5605 42.439 45.5605 42.5301 45.7795L43.0677 47.0721C43.1061 47.1645 43.193 47.2275 43.2926 47.2355L44.6882 47.3474C44.9246 47.3664 45.0205 47.6614 44.8403 47.8157L43.7771 48.7265C43.7011 48.7916 43.668 48.8937 43.6912 48.9909L44.016 50.3527C44.071 50.5834 43.82 50.7658 43.6176 50.6422L42.4229 49.9124C42.3375 49.8603 42.2302 49.8603 42.1449 49.9124L40.9501 50.6422C40.7477 50.7658 40.4967 50.5834 40.5517 50.3527L40.8765 48.9909C40.8998 48.8937 40.8666 48.7916 40.7906 48.7265L39.7274 47.8157C39.5473 47.6614 39.6431 47.3664 39.8796 47.3474L41.2751 47.2355C41.3748 47.2275 41.4616 47.1645 41.5 47.0721L42.0376 45.7795Z" fill="#EBE7E5"/>
<path d="M49.5043 45.7795C49.5954 45.5605 49.9057 45.5605 49.9968 45.7795L50.5344 47.0721C50.5728 47.1645 50.6596 47.2275 50.7593 47.2355L52.1548 47.3474C52.3913 47.3664 52.4871 47.6614 52.307 47.8157L51.2438 48.7265C51.1678 48.7916 51.1346 48.8937 51.1579 48.9909L51.4827 50.3527C51.5377 50.5834 51.2867 50.7658 51.0843 50.6422L49.8895 49.9124C49.8042 49.8603 49.6969 49.8603 49.6115 49.9124L48.4168 50.6422C48.2144 50.7658 47.9634 50.5834 48.0184 50.3527L48.3432 48.9909C48.3664 48.8937 48.3333 48.7916 48.2573 48.7265L47.1941 47.8157C47.0139 47.6614 47.1098 47.3664 47.3462 47.3474L48.7418 47.2355C48.8414 47.2275 48.9283 47.1645 48.9667 47.0721L49.5043 45.7795Z" fill="#EBE7E5"/>
</g>
<defs>
<linearGradient id="paint0_linear_8885_22201" x1="35.2449" y1="71.4406" x2="8.36494" y2="135.771" gradientUnits="userSpaceOnUse">
<stop stop-color="#FF9D42"/>
<stop offset="1" stop-color="#FFC770"/>
</linearGradient>
<linearGradient id="paint1_linear_8885_22201" x1="104.198" y1="162.611" x2="-59.0487" y2="64.1614" gradientUnits="userSpaceOnUse">
<stop stop-color="#EBE7E5"/>
<stop offset="0.264423" stop-color="white"/>
<stop offset="0.724224" stop-color="white"/>
<stop offset="1" stop-color="#EBE7E5"/>
</linearGradient>
<radialGradient id="paint2_radial_8885_22201" cx="0" cy="0" r="1" gradientUnits="userSpaceOnUse" gradientTransform="translate(27.8588 91.1119) rotate(-32.4335) scale(22.3042 21.6716)">
<stop stop-color="#C871F3"/>
<stop offset="1" stop-color="white" stop-opacity="0"/>
</radialGradient>
<linearGradient id="paint3_linear_8885_22201" x1="115.896" y1="98.1192" x2="98.8097" y2="56.1967" gradientUnits="userSpaceOnUse">
<stop stop-color="#3478FF"/>
<stop offset="0.259615" stop-color="#4BDFF9"/>
<stop offset="1" stop-color="#F548F0"/>
</linearGradient>
<clipPath id="clip0_8885_22201">
<rect width="128" height="128" fill="white"/>
</clipPath>
</defs>
</svg>
