<svg width="128" height="128" viewBox="0 0 128 128" fill="none" xmlns="http://www.w3.org/2000/svg">
<g clip-path="url(#clip0_8885_22293)">
<path d="M38.1873 57.6022L128 57.6L123.561 108.105C122.572 119.361 113.104 127.998 101.753 127.998L32 128L38.1873 57.6022Z" fill="#00BDFF"/>
<path d="M5.29158 8.80934C5.71993 3.82386 9.81953 -0.00121689 14.7343 -0.00103759L51.2 0.000292783L45.1514 70.399L0 70.3973L5.29158 8.80934Z" fill="url(#paint0_linear_8885_22293)"/>
<rect x="106.667" y="19.9406" width="2.50205" height="3.39453" fill="#00CDFF"/>
<path d="M106.667 22.341C106.667 21.0153 107.742 19.9406 109.067 19.9406C110.393 19.9406 111.468 21.0153 111.468 22.341V29.5406H106.667V22.341Z" fill="#202225"/>
<rect x="10.6666" y="29.126" width="106.667" height="78.9333" rx="3.2" fill="url(#paint1_radial_8885_22293)"/>
<mask id="mask0_8885_22293" style="mask-type:alpha" maskUnits="userSpaceOnUse" x="16" y="40" width="96" height="35">
<path d="M110.934 40.8594C111.522 40.8595 112 41.3369 112 41.9258V73.9258C112 74.5148 111.523 74.993 110.934 74.9932H46.4004V65.9258C46.4002 65.3368 45.922 64.8594 45.333 64.8594H22.9336C22.3446 64.8594 21.8664 65.3368 21.8662 65.9258V74.9932H17.0664C16.4774 74.993 16 74.5148 16 73.9258V41.9258C16.0001 41.3369 16.4775 40.8595 17.0664 40.8594H110.934Z" fill="#F3F3F3"/>
</mask>
<g mask="url(#mask0_8885_22293)">
<path d="M16 11.5261V67.9014H112C112 49.1096 112 30.3178 112 11.5261C112 11.5261 48 11.5261 16 11.5261Z" fill="url(#paint2_linear_8885_22293)"/>
<path d="M32.3 11.5261L16 19.1942V54.6241L64.1433 65.6293L38.2379 11.5261H32.3Z" fill="url(#paint3_linear_8885_22293)"/>
<path d="M28.2541 45.3063C24.3049 43.091 18.4392 41.6378 16 41.1882V89.3983H112V41.1882C109.58 42.5609 103.916 45.9879 100.617 48.7143C96.4936 52.1224 85.5172 59.6486 78.8966 61.7787C72.2759 63.9087 66.4682 58.0866 61.706 56.7375C56.9437 55.3885 54.3303 57.1635 48.8131 56.3825C43.2958 55.6015 33.1906 48.0753 28.2541 45.3063Z" fill="url(#paint4_linear_8885_22293)"/>
<path d="M32.3583 55.9565C43.0115 56.4298 68.7306 63.9655 86.3812 90.3213C62.5715 92.3803 37.714 84.2151 32.3583 55.9565Z" fill="url(#paint5_linear_8885_22293)"/>
<path d="M33.6248 55.868C25.7112 55.1403 18.5887 58.4654 16 60.436V107.526H112V77.3642C89.5284 90.8665 76.6402 93.0833 65.3494 85.8284C54.0585 78.5734 50.5886 57.428 33.6248 55.868Z" fill="url(#paint6_linear_8885_22293)"/>
</g>
<path d="M92.8 23.1406C92.8 21.3733 94.2327 19.9406 96 19.9406H106.667L106.667 39.1406L99.7334 36.3444L92.8 39.1406L92.8 23.1406Z" fill="#00CDFF"/>
<path d="M100.267 28.593H102.934V29.6594H100.267V32.3264H99.2003V29.6594H96.5333V28.593H99.2003V25.926H100.267V28.593Z" fill="white"/>
<rect x="24.5336" y="67.5261" width="19.2" height="19.2" fill="url(#paint7_radial_8885_22293)"/>
<rect x="29.2356" y="77.1261" width="7.46667" height="7.46667" rx="1.06667" transform="rotate(-45 29.2356 77.1261)" fill="white"/>
<path d="M67.2502 23.5854C67.2502 22.9963 67.7278 22.5187 68.3169 22.5187H80.0502C80.6393 22.5187 81.1169 22.9963 81.1169 23.5854L81.1169 37.4521L74.1836 34.0412L67.2502 37.4521L67.2502 23.5854Z" fill="#32CCFE"/>
<circle cx="75.4437" cy="31.4375" r="0.899493" fill="black"/>
<path d="M74.5502 25.1443C75.4082 25.1443 76.2151 25.4819 76.8229 26.0916C77.4295 26.6956 77.7691 27.5173 77.7668 28.3747C77.7572 29.2301 77.4312 30.0496 76.8235 30.6573C76.2317 31.2514 75.4184 31.6098 74.5479 31.6098V31.6053H73.5299C72.9411 31.6053 72.5363 31.528 72.0208 31.2611C71.7189 31.105 71.4445 30.9002 71.2073 30.6605C70.9277 30.3756 70.7622 30.1052 70.6812 29.9132L70.6096 29.696C70.5723 29.5825 70.6507 29.4638 70.7697 29.4537L70.9199 29.441C71.0174 29.4177 71.1084 29.3648 71.1784 29.2906C71.2715 29.1897 71.3245 29.0533 71.3245 28.9135V28.3772C71.3245 27.6625 71.5625 26.9629 72.0011 26.3996C72.6241 25.6203 73.545 25.1443 74.5502 25.1443Z" fill="white"/>
<circle cx="72.9272" cy="31.4375" r="0.899493" fill="black"/>
<path d="M41.6 23.5724C41.6 22.9833 42.0775 22.5057 42.6666 22.5057H54.4C54.9891 22.5057 55.4666 22.9833 55.4666 23.5724L55.4666 37.4391L48.5333 34.0282L41.6 37.4391L41.6 23.5724Z" fill="#1877F2"/>
<path d="M50.1899 28.9977L50.3876 27.628H49.1514V26.7396C49.1514 26.3648 49.3241 25.9992 49.8778 25.9992H50.4398V24.8331C50.4398 24.8331 49.9297 24.7405 49.4421 24.7405C48.424 24.7405 47.7585 25.3965 47.7585 26.5841V27.628H46.6268V28.9977H47.7585V32.3089C48.22 32.3856 48.6899 32.3856 49.1514 32.3089V28.9977H50.1899Z" fill="white"/>
<path d="M16 23.5724C16 22.9833 16.4776 22.5057 17.0667 22.5057H28.8C29.3891 22.5057 29.8667 22.9833 29.8667 23.5724L29.8667 37.4391L22.9333 34.0282L16 37.4391L16 23.5724Z" fill="#82AEF7"/>
<path d="M26.1211 28.3269C26.1111 28.1927 26.0946 28.0701 26.0711 27.9136H22.9996C22.9996 28.3437 22.9996 28.813 22.9979 29.2433H24.7773C24.7395 29.4438 24.6624 29.6349 24.5507 29.8055C24.4389 29.9762 24.2945 30.1231 24.1259 30.2377C24.1259 30.2377 24.1259 30.2303 24.1246 30.2301C23.9068 30.3732 23.6615 30.4691 23.4044 30.5115C23.1466 30.5587 22.8824 30.5575 22.6251 30.5081C22.3638 30.4539 22.1164 30.3466 21.8983 30.1927C21.5763 29.9642 21.328 29.6465 21.1838 29.2787C21.1728 29.2501 21.1626 29.2212 21.1522 29.192V29.1888L21.155 29.1867C21.015 28.7753 21.0146 28.3292 21.1539 27.9176C21.252 27.6289 21.4135 27.3659 21.6265 27.1478C22.1261 26.6304 22.8727 26.4358 23.5609 26.6435C23.8248 26.7245 24.066 26.8666 24.2648 27.0583L24.8652 26.4573C24.9711 26.3502 25.081 26.2465 25.1829 26.1358C24.8785 25.8515 24.5212 25.63 24.1314 25.4839C23.4219 25.2264 22.6458 25.2195 21.932 25.4646C21.9071 25.4731 21.8824 25.4819 21.8578 25.4911C21.0877 25.781 20.4541 26.3494 20.0823 27.0842C19.951 27.3443 19.8553 27.6209 19.798 27.9066C19.458 29.5983 20.4891 31.2636 22.1538 31.7112C22.6979 31.8571 23.2764 31.8535 23.8249 31.7288C24.3232 31.6161 24.7839 31.3764 25.1624 31.033C25.5572 30.6692 25.8402 30.1847 25.9885 29.67C26.1125 29.2338 26.1574 28.7789 26.1211 28.3269Z" fill="white"/>
<rect x="16.0002" y="92.0657" width="96" height="3.2" rx="1.6" fill="#E1E8F3"/>
<rect x="69.3335" y="99.5323" width="42.6667" height="3.2" rx="1.6" fill="#E1E8F3"/>
<rect x="16.0002" y="99.5323" width="42.6667" height="3.2" rx="1.6" fill="#E1E8F3"/>
</g>
<defs>
<linearGradient id="paint0_linear_8885_22293" x1="25.6" y1="-0.00103815" x2="51.2" y2="72.5444" gradientUnits="userSpaceOnUse">
<stop stop-color="#35FAFF"/>
<stop offset="1" stop-color="#00CDFF"/>
</linearGradient>
<radialGradient id="paint1_radial_8885_22293" cx="0" cy="0" r="1" gradientUnits="userSpaceOnUse" gradientTransform="translate(64 116.189) rotate(-119.985) scale(100.516 100.516)">
<stop stop-color="#F0F5FD"/>
<stop offset="1" stop-color="white"/>
</radialGradient>
<linearGradient id="paint2_linear_8885_22293" x1="16" y1="39.1238" x2="104.454" y2="13.8721" gradientUnits="userSpaceOnUse">
<stop offset="0.135" stop-color="#005778"/>
<stop offset="0.32" stop-color="#ABE2D5"/>
<stop offset="0.542695" stop-color="#417FA9"/>
<stop offset="0.83" stop-color="#1C4371"/>
<stop offset="1" stop-color="#173D66"/>
</linearGradient>
<linearGradient id="paint3_linear_8885_22293" x1="21.2393" y1="52.281" x2="35.9638" y2="8.9292" gradientUnits="userSpaceOnUse">
<stop stop-color="#C3E3DE"/>
<stop offset="0.457305" stop-color="#9DC5BF"/>
<stop offset="1" stop-color="#628AA3"/>
</linearGradient>
<linearGradient id="paint4_linear_8885_22293" x1="16" y1="65.2932" x2="112" y2="65.2932" gradientUnits="userSpaceOnUse">
<stop stop-color="#4CB39C"/>
<stop offset="0.31" stop-color="#93B5CD"/>
<stop offset="0.745" stop-color="#337DB1"/>
<stop offset="1" stop-color="#1F366C"/>
</linearGradient>
<linearGradient id="paint5_linear_8885_22293" x1="49.7062" y1="57.2345" x2="73.9995" y2="92.9344" gradientUnits="userSpaceOnUse">
<stop stop-color="#7097B4"/>
<stop offset="1" stop-color="#294387"/>
</linearGradient>
<linearGradient id="paint6_linear_8885_22293" x1="30.6013" y1="130.198" x2="99.899" y2="67.8614" gradientUnits="userSpaceOnUse">
<stop stop-color="#02A6BB"/>
<stop offset="0.604658" stop-color="#19CFDE"/>
<stop offset="0.665" stop-color="#12265C"/>
</linearGradient>
<radialGradient id="paint7_radial_8885_22293" cx="0" cy="0" r="1" gradientUnits="userSpaceOnUse" gradientTransform="translate(34.1336 77.1261) rotate(44.0125) scale(8.99174 11.6846)">
<stop stop-color="#80B3FF"/>
<stop offset="1" stop-color="#3478FF"/>
</radialGradient>
<clipPath id="clip0_8885_22293">
<rect width="128" height="128" fill="white"/>
</clipPath>
</defs>
</svg>
