<svg width="326" height="251" viewBox="0 0 326 251" fill="none" xmlns="http://www.w3.org/2000/svg">
<g clip-path="url(#clip0_1971_115512)">
<rect width="325.688" height="251" transform="translate(0.15625)" fill="white"/>
<path d="M31.2577 79.4464C34.7979 70.2419 43.6412 64.1682 53.5031 64.1682H302.144C318.87 64.1682 330.394 80.9469 324.389 96.5582L295.055 172.827C291.515 182.032 282.672 188.105 272.81 188.105H24.1689C7.44263 188.105 -4.08091 171.327 1.92346 155.715L31.2577 79.4464Z" fill="#F5F7F9"/>
<path d="M34.7944 24.9878C34.7944 22.3927 36.8981 20.2889 39.4933 20.2889H286.82C289.415 20.2889 291.519 22.3927 291.519 24.9878V227.012C291.519 229.607 289.415 231.711 286.82 231.711H39.4933C36.8981 231.711 34.7944 229.607 34.7944 227.012V24.9878Z" fill="white" stroke="#B6C1D3" stroke-width="0.397338"/>
<rect x="49.1318" y="33.6707" width="227.737" height="183.046" rx="2.44878" fill="#E8E5FA"/>
<circle cx="54.5281" cy="38.4552" r="1.72346" fill="#8377E4"/>
<circle cx="59.3533" cy="38.4552" r="1.72346" fill="#8377E4"/>
<circle cx="64.1795" cy="38.4552" r="1.72346" fill="#8377E4"/>
<rect x="95.5977" y="69.564" width="51.0145" height="5.51508" rx="2.75754" fill="#8377E4"/>
<rect x="95.5977" y="78.1401" width="78.5899" height="2.75754" rx="1.37877" fill="#8377E4"/>
<rect x="95.5977" y="83.9586" width="78.5899" height="2.75754" rx="1.37877" fill="#8377E4"/>
<rect x="95.5977" y="89.7771" width="78.5899" height="2.75754" rx="1.37877" fill="#8377E4"/>
<rect x="95.5977" y="95.5956" width="78.5899" height="2.75754" rx="1.37877" fill="#8377E4"/>
<rect x="95.5977" y="101.414" width="78.5899" height="2.75754" rx="1.37877" fill="#8377E4"/>
<rect x="95.5977" y="107.233" width="78.5899" height="2.75754" rx="1.37877" fill="#8377E4"/>
<rect x="95.5977" y="113.051" width="78.5899" height="2.75754" rx="1.37877" fill="#8377E4"/>
<rect x="95.5977" y="118.87" width="35.848" height="2.75754" rx="1.37877" fill="#8377E4"/>
<rect opacity="0.5" x="104.56" y="130.887" width="49.6357" height="17.2346" rx="2.06815" stroke="#8377E4" stroke-width="1.37877" stroke-dasharray="2.76 2.76"/>
<rect x="95.5977" y="134.334" width="55.1508" height="18.6134" rx="2.75754" fill="#8377E4"/>
<rect x="96.21" y="162.131" width="51.0145" height="5.51508" rx="2.75754" fill="#8377E4"/>
<rect x="96.21" y="170.707" width="78.5899" height="2.75754" rx="1.37877" fill="#8377E4"/>
<rect x="96.21" y="176.525" width="78.5899" height="2.75754" rx="1.37877" fill="#8377E4"/>
<rect x="96.21" y="182.344" width="78.5899" height="2.75754" rx="1.37877" fill="#8377E4"/>
<rect x="96.21" y="188.162" width="78.5899" height="2.75754" rx="1.37877" fill="#8377E4"/>
<rect opacity="0.5" x="184.904" y="74.3897" width="40.6737" height="31.7117" rx="2.06815" stroke="#8377E4" stroke-width="1.37877" stroke-dasharray="2.76 2.76"/>
<g clip-path="url(#clip1_1971_115512)">
<rect x="188.351" y="69.564" width="42.0525" height="33.0905" rx="1.73803" fill="#AAA1F3"/>
<path d="M200.176 89.9657L182.146 102.654H232.471L224.291 87.4738C223.185 85.4212 220.412 85.0179 218.767 86.6706L212.492 92.9755C211.186 94.2885 209.079 94.3461 207.703 93.1065L204.503 90.2253C203.298 89.1401 201.503 89.0324 200.176 89.9657Z" fill="#8377E4"/>
<circle cx="208.9" cy="81.1516" r="4.69369" fill="white"/>
</g>
<rect x="187.661" y="110.541" width="42.7419" height="2.75754" rx="1.37877" fill="#8377E4"/>
<rect x="187.661" y="116.36" width="42.7419" height="2.75754" rx="1.37877" fill="#8377E4"/>
<rect x="187.661" y="122.178" width="42.7419" height="2.75754" rx="1.37877" fill="#8377E4"/>
<rect x="187.661" y="127.997" width="42.7419" height="2.75754" rx="1.37877" fill="#8377E4"/>
<path fill-rule="evenodd" clip-rule="evenodd" d="M158.332 60.9866H157.643C157.643 62.7084 156.61 63.7415 154.888 63.7415V64.4302C156.61 64.4302 157.643 65.4633 157.643 67.1851H158.332C158.332 65.4633 159.365 64.4302 161.086 64.4302V63.7415C159.365 63.7415 158.332 62.7084 158.332 60.9866ZM157.987 64.4156C158.089 64.2968 158.198 64.1881 158.317 64.0859C158.198 63.9836 158.089 63.875 157.987 63.7562C157.885 63.875 157.776 63.9836 157.658 64.0859C157.776 64.1881 157.885 64.2968 157.987 64.4156Z" fill="#8377E4"/>
<path d="M154.888 61.6754V62.3641C153.816 62.3641 153.51 62.6698 153.51 63.7415H152.822C152.822 62.6698 152.516 62.3641 151.444 62.3641V61.6754C152.516 61.6754 152.822 61.3697 152.822 60.2979H153.51C153.51 61.3697 153.816 61.6754 154.888 61.6754Z" fill="#8377E4"/>
<path d="M156.265 67.1851V67.8738C154.888 67.8738 154.199 68.5626 154.199 69.94H153.51C153.51 68.5626 152.822 67.8738 151.444 67.8738V67.1851C152.822 67.1851 153.51 66.4964 153.51 65.119H154.199C154.199 66.4964 154.888 67.1851 156.265 67.1851Z" fill="#8377E4"/>
<rect x="199.259" y="139.469" width="71.9542" height="71.9542" rx="35.9771" fill="white"/>
<path d="M255.864 174.912H259.189C260.433 174.912 261.444 175.922 261.444 177.167V182.782C261.444 184.026 260.435 185.038 259.189 185.038H255.864C255.455 185.038 255.123 184.705 255.123 184.296V175.655C255.123 175.245 255.455 174.913 255.864 174.913V174.912Z" fill="#66A1FF"/>
<path d="M211.236 175.622H214.56C214.97 175.622 215.302 175.954 215.302 176.364V185.005C215.302 185.414 214.97 185.746 214.56 185.746H211.236C209.992 185.746 208.98 184.737 208.98 183.491V177.876C208.98 176.632 209.99 175.621 211.236 175.621V175.622Z" fill="#66A1FF"/>
<path d="M235.423 153.836L236.378 172.641L234.744 172.652L235.423 153.836Z" fill="#E5EFFF" stroke="#99C0FF" stroke-width="0.768956"/>
<path d="M235.476 154.484C236.595 154.484 237.503 153.577 237.503 152.458C237.503 151.339 236.595 150.431 235.476 150.431C234.357 150.431 233.45 151.339 233.45 152.458C233.45 153.577 234.357 154.484 235.476 154.484Z" fill="#66A1FF"/>
<path d="M241.912 166.522L229.214 166.581V164.075C229.214 161.952 230.934 160.232 233.056 160.232H238.07C240.192 160.232 241.912 161.952 241.912 164.075V166.522Z" fill="#66A1FF"/>
<path d="M258.382 185.375C258.382 188.526 257.743 191.014 256.61 192.976C255.477 194.938 253.836 196.4 251.791 197.48C247.681 199.651 241.964 200.27 235.564 200.27C229.165 200.27 223.447 199.651 219.338 197.48C217.292 196.4 215.651 194.938 214.519 192.976C213.385 191.014 212.747 188.526 212.747 185.375C212.747 172.773 222.963 162.557 235.564 162.557C248.165 162.557 258.382 172.774 258.382 185.375Z" fill="white" stroke="#99C0FF" stroke-width="0.768956"/>
<path d="M254.729 185.929C254.729 195.073 246.122 196.832 235.507 196.832C224.892 196.832 216.285 195.073 216.285 185.929C216.285 176.785 224.892 169.373 235.507 169.373C246.122 169.373 254.729 176.786 254.729 185.929Z" fill="#3381FF"/>
<path d="M235.564 196.984C245.543 196.984 253.632 191.206 253.632 184.078C253.632 176.951 245.543 171.173 235.564 171.173C225.585 171.173 217.496 176.951 217.496 184.078C217.496 191.206 225.585 196.984 235.564 196.984Z" fill="#3381FF"/>
<path d="M235.565 195.273C244.599 195.273 251.922 190.261 251.922 184.078C251.922 177.895 244.599 172.883 235.565 172.883C226.531 172.883 219.207 177.895 219.207 184.078C219.207 190.261 226.531 195.273 235.565 195.273Z" fill="#3381FF"/>
<path d="M230.92 182.647C230.553 182.647 230.254 182.349 230.254 181.98C230.254 180.657 229.177 179.581 227.855 179.581C226.532 179.581 225.456 180.657 225.456 181.98C225.456 182.347 225.158 182.647 224.789 182.647C224.42 182.647 224.122 182.349 224.122 181.98C224.122 179.923 225.796 178.249 227.853 178.249C229.911 178.249 231.585 179.923 231.585 181.98C231.585 182.347 231.286 182.647 230.918 182.647H230.92Z" fill="white"/>
<path d="M246.335 182.647C245.968 182.647 245.669 182.349 245.669 181.98C245.669 180.657 244.593 179.581 243.27 179.581C241.947 179.581 240.871 180.657 240.871 181.98C240.871 182.347 240.573 182.647 240.204 182.647C239.835 182.647 239.537 182.349 239.537 181.98C239.537 179.922 241.211 178.249 243.268 178.249C245.326 178.249 247 179.922 247 181.98C247 182.347 246.701 182.647 246.333 182.647H246.335Z" fill="white"/>
<path d="M235.331 190.484C233.326 190.484 231.694 189.105 231.694 187.408C231.694 187.041 231.993 186.741 232.361 186.741C232.73 186.741 233.028 187.039 233.028 187.408C233.028 188.369 234.062 189.152 235.332 189.152C236.602 189.152 237.636 188.37 237.636 187.408C237.636 187.041 237.934 186.741 238.303 186.741C238.672 186.741 238.97 187.039 238.97 187.408C238.97 189.105 237.338 190.484 235.333 190.484H235.331Z" fill="white"/>
<path fill-rule="evenodd" clip-rule="evenodd" d="M258.948 155.385H258.029C258.029 157.681 256.652 159.058 254.356 159.058V159.977C256.652 159.977 258.029 161.354 258.029 163.65H258.948C258.948 161.354 260.325 159.977 262.621 159.977V159.058C260.325 159.058 258.948 157.681 258.948 155.385ZM258.488 159.957C258.625 159.799 258.77 159.654 258.928 159.518C258.77 159.381 258.625 159.236 258.488 159.078C258.352 159.236 258.207 159.381 258.049 159.518C258.207 159.654 258.352 159.799 258.488 159.957Z" fill="#3C28CC"/>
<path d="M254.356 156.304V157.222C252.927 157.222 252.52 157.629 252.52 159.058H251.601C251.601 157.629 251.194 157.222 249.765 157.222V156.304C251.194 156.304 251.601 155.896 251.601 154.467H252.52C252.52 155.896 252.927 156.304 254.356 156.304Z" fill="#3C28CC"/>
<path d="M256.193 163.65V164.568C254.356 164.568 253.438 165.487 253.438 167.323H252.52C252.52 165.487 251.601 164.568 249.765 164.568V163.65C251.601 163.65 252.52 162.732 252.52 160.895H253.438C253.438 162.732 254.356 163.65 256.193 163.65Z" fill="#3C28CC"/>
</g>
<defs>
<clipPath id="clip0_1971_115512">
<rect width="325.688" height="251" fill="white" transform="translate(0.15625)"/>
</clipPath>
<clipPath id="clip1_1971_115512">
<rect x="188.351" y="69.564" width="42.0525" height="33.0905" rx="1.73803" fill="white"/>
</clipPath>
</defs>
</svg>
