<svg width="160" height="160" viewBox="0 0 160 160" fill="none" xmlns="http://www.w3.org/2000/svg">
<path opacity="0.5" d="M105.986 144.515L77.35 148.605C68.1125 149.924 58.7353 149.932 49.4955 148.628L20.7998 144.577L63.3959 69.6L108.8 80.9317L105.986 144.515Z" fill="#E6E9F0"/>
<path d="M77.8473 98.003L57.0956 107.68C56.3481 108.028 56.0247 108.917 56.3733 109.664L66.05 130.416C66.3985 131.163 67.287 131.487 68.0344 131.138L88.7862 121.462C89.5336 121.113 89.857 120.224 89.5085 119.477L79.8318 98.7253C79.4832 97.9778 78.5948 97.6545 77.8473 98.003Z" stroke="#8698B6" stroke-width="2" stroke-miterlimit="16" stroke-linecap="square" stroke-linejoin="round" stroke-dasharray="8 8"/>
<path d="M67.5407 35.7651C69.1737 18.7061 85.5089 7.09746 102.046 11.2435C118.583 15.3895 127.587 33.3505 121.064 49.1834L113.312 68L65.6001 56.0381L67.5407 35.7651Z" fill="#E6E9F0" stroke="white" stroke-width="4"/>
<path d="M84.9802 28.3597C83.5489 20.3776 90.8638 13.5794 98.7729 15.5409L102.666 16.5064C110.575 18.4679 113.825 27.8861 108.794 34.2655L99.3012 46.3021C97.7046 48.3259 95.0619 49.2281 92.5523 48.6059C90.0431 47.9837 88.1352 45.9529 87.681 43.4203L84.9802 28.3597Z" fill="#B6C1D3"/>
<path d="M84.6101 33.772C82.5886 30.3878 85.9036 26.4033 89.9627 27.3384C93.0985 28.0608 95.0068 30.9951 94.2247 33.8924L93.3972 36.959C93.1228 37.9773 92.0064 38.5969 90.9045 38.3431C88.2691 37.736 86.0262 36.1427 84.7136 33.9456L84.6101 33.772Z" fill="#8698B6" stroke="#B6C1D3" stroke-width="2"/>
<path d="M106.702 39.2485C110.081 37.1673 109.211 32.2814 105.297 31.3595C102.273 30.6474 99.2111 32.3855 98.4574 35.2417L97.6596 38.2648C97.3944 39.2686 98.0409 40.2853 99.1039 40.5355C101.645 41.134 104.335 40.7064 106.528 39.3552L106.702 39.2485Z" fill="#8698B6" stroke="#B6C1D3" stroke-width="2"/>
<path d="M63.2002 56.8L115.2 69.6322L108.573 81.2079C107.836 82.4942 106.432 83.2624 104.94 83.1961L86.4001 82.3675C85.0791 82.3086 83.783 81.9888 82.5881 81.427L65.8257 73.5431C64.4764 72.9086 63.6012 71.5781 63.5611 70.1002L63.2002 56.8Z" fill="#E6E9F0"/>
<path d="M139.2 76.5166C138.11 80.7929 133.958 83.6251 129.479 83.1476L124.717 82.6399C98.5729 79.8531 72.9388 73.6016 48.5178 64.0571L44.0697 62.3187C39.8853 60.6831 37.5788 56.2763 38.6689 52L139.2 76.5166Z" fill="#E6E9F0"/>
<path d="M38.3999 51.6548C39.49 47.2686 43.6418 44.3641 48.1214 44.8538L52.8833 45.3744C79.0265 48.2323 104.661 54.6441 129.082 64.4333L133.53 66.2163C137.714 67.8938 140.021 72.4136 138.931 76.8001L38.3999 51.6548Z" fill="white"/>
<path d="M63.8414 62.0884C65.9753 62.6205 68.1365 61.3219 68.6686 59.188C69.2006 57.0541 67.902 54.8929 65.7681 54.3608C63.6342 53.8288 61.473 55.1273 60.9409 57.2613C60.4089 59.3952 61.7075 61.5564 63.8414 62.0884Z" fill="#B6C1D3"/>
<path d="M87.749 69.0753C90.4164 69.7403 93.1179 68.1171 93.783 65.4497C94.448 62.7823 92.8248 60.0808 90.1574 59.4157C87.49 58.7507 84.7885 60.3739 84.1234 63.0413C83.4584 65.7087 85.0816 68.4102 87.749 69.0753Z" fill="#8698B6"/>
<path d="M112.139 74.1303C114.273 74.6623 116.434 73.3638 116.966 71.2298C117.498 69.0959 116.199 66.9347 114.065 66.4027C111.932 65.8706 109.77 67.1692 109.238 69.3031C108.706 71.4371 110.005 73.5982 112.139 74.1303Z" fill="#B6C1D3"/>
<path d="M63.5998 150.4C87.2376 150.4 106.4 147.714 106.4 144.4C106.4 141.086 87.2376 138.4 63.5998 138.4C39.962 138.4 20.7998 141.086 20.7998 144.4C20.7998 147.714 39.962 150.4 63.5998 150.4Z" fill="#E6E9F0"/>
<path opacity="0.2" d="M33.9477 148.8L26.7225 147.356C24.9594 147.003 23.3172 146.189 21.9578 144.994C21.5844 144.666 21.4913 144.115 21.7356 143.679L63.2185 69.6L71.2001 72.2223L33.9477 148.8Z" fill="#E6E9F0"/>
<path opacity="0.2" d="M92 148.8L101.323 146.941C102.943 146.618 104.455 145.882 105.714 144.805C105.919 144.629 106.043 144.375 106.055 144.104L108.8 81.2073L101.798 80L92 148.8Z" fill="#E6E9F0"/>
</svg>
